<?xml version="1.0" encoding="UTF-8"?>
<svg width="31px" height="31px" viewBox="0 0 31 31" version="1.1" xmlns="http://www.w3.org/2000/svg" xmlns:xlink="http://www.w3.org/1999/xlink">
    <title>团队 (2)</title>
    <defs>
        <linearGradient x1="79.0249433%" y1="0%" x2="50%" y2="61.7604167%" id="linearGradient-1">
            <stop stop-color="#154EC7" offset="0%"></stop>
            <stop stop-color="#0D1B6A" offset="100%"></stop>
        </linearGradient>
        <linearGradient x1="20.9750567%" y1="0%" x2="50%" y2="50%" id="linearGradient-2">
            <stop stop-color="#154EC7" offset="0%"></stop>
            <stop stop-color="#0D1B6A" offset="100%"></stop>
        </linearGradient>
        <linearGradient x1="50%" y1="0%" x2="50%" y2="100%" id="linearGradient-3">
            <stop stop-color="#36EFF9" offset="0%"></stop>
            <stop stop-color="#154EC7" offset="100%"></stop>
        </linearGradient>
        <linearGradient x1="67.7338064%" y1="-34.2053285%" x2="67.7338064%" y2="100%" id="linearGradient-4">
            <stop stop-color="#36EFF9" offset="0%"></stop>
            <stop stop-color="#154EC7" offset="100%"></stop>
        </linearGradient>
    </defs>
    <g id="数据大屏素材" stroke="none" stroke-width="1" fill="none" fill-rule="evenodd">
        <g id="素材" transform="translate(-491.000000, -51.000000)" fill-rule="nonzero">
            <g id="团队-(2)" transform="translate(491.000000, 51.000000)">
                <path d="M29.3067703,21.957672 L15.4450563,21.957672 C14.6531223,21.957672 14.0110859,21.3108837 14.0110859,20.5130883 L14.0110859,15.1069746 C14.0110859,14.7492957 14.1427244,14.4044254 14.3806679,14.1389109 L17.2857964,10.8972652 C16.3147116,9.71530679 15.7627286,8.21062842 15.7636846,6.6513448 C15.7667437,2.98364314 18.7309517,0 22.3714202,0 C26.0208749,0 28.985083,2.98364314 28.9881421,6.65115219 C28.9890981,8.21053212 28.4371151,9.71530679 27.4659347,10.8973615 L30.3711588,14.1390072 C30.6090459,14.4044896 30.7407407,14.7494231 30.7407407,15.1070709 L30.7407407,20.5130883 C30.7407407,21.3108837 30.0987044,21.957672 29.3067703,21.957672 Z M16.8790267,19.0685046 L27.8727999,19.0685046 L27.8727999,15.6626578 L24.4070846,11.7956036 C24.1362079,11.4934702 24.0044806,11.0902047 24.0443255,10.6850656 C24.0841704,10.2799264 24.2918871,9.91054084 24.6163487,9.66782814 C25.5586585,8.96277499 26.1208705,7.83580711 26.1201057,6.65327091 C26.1183849,4.57788569 24.4408307,2.88916736 22.3804064,2.88916736 C20.3110915,2.88916736 18.6334417,4.57788569 18.6316254,6.65355983 C18.6308606,7.83580711 19.192977,8.96277499 20.1352868,9.66782814 C20.4597433,9.91052256 20.6674587,10.2798919 20.707304,10.6850159 C20.7471492,11.0901399 20.6154234,11.4933904 20.3445508,11.7955073 L16.8790267,15.6626578 L16.8790267,19.0685046 Z" id="Shape" fill="url(#linearGradient-1)"></path>
                <path d="M15.2956844,21.957672 L1.43397041,21.957672 C0.642036353,21.957672 0,21.3108837 0,20.5130883 L0,15.1069746 C0,14.7492957 0.131638484,14.4044254 0.369581975,14.1389109 L3.27471043,10.8972652 C2.30362567,9.71530679 1.75164266,8.21053212 1.75259864,6.6513448 C1.75565778,2.98364314 4.71996142,0 8.36033431,0 C12.0096934,0 14.973997,2.98364314 14.9770562,6.65115219 C14.9780122,8.21053212 14.4260292,9.71530679 13.4549444,10.8973615 L16.3600729,14.1390072 C16.59796,14.4044896 16.7296548,14.7494231 16.7296548,15.1070709 L16.7296548,20.5130883 C16.7296548,21.3108837 16.0876185,21.957672 15.2956844,21.957672 L15.2956844,21.957672 Z M2.86794083,19.0685046 L13.861714,19.0685046 L13.861714,15.6626578 L10.3959987,11.7956036 C10.1251323,11.4934575 9.9934211,11.0901837 10.0332843,10.6850439 C10.0731475,10.2799041 10.2808828,9.91052606 10.6053584,9.66782814 C11.5476681,8.96277499 12.1098801,7.83580711 12.1091154,6.65327091 C12.1073946,4.57788569 10.4297448,2.88916736 8.36932052,2.88916736 C6.30000561,2.88916736 4.62226023,4.57788569 4.62053947,6.65355983 C4.61977468,7.83580711 5.18198668,8.96277499 6.12420084,9.66782814 C6.44853008,9.91061332 6.65614601,10.2799636 6.69598648,10.685039 C6.73582695,11.0901144 6.60419501,11.4933266 6.33346492,11.7955073 L2.86794083,15.6626578 L2.86794083,19.0685046 Z" id="Shape" fill="url(#linearGradient-2)"></path>
                <path d="M7.1101033,29.2768959 L7.1101033,22.81437 L11.7388334,17.698902 C10.1557594,16.5248722 9.22362919,14.674002 9.22534701,12.7080356 C9.22534701,9.26994919 12.0234299,6.48274124 15.4749307,6.48274124 C18.9264316,6.48274124 21.7245144,9.26994919 21.7245144,12.7080356 C21.7261942,14.6740419 20.7940332,16.5249379 19.2109318,17.6989977 L23.8397581,22.8145615 L23.8397581,29.2768959 L7.1101033,29.2768959 Z" id="Shape" fill="#0D1B6A"></path>
                <path d="M23.85821,30.7407407 L7.09165148,30.7407407 C6.29340912,30.7407407 5.6462585,30.096159 5.6462585,29.3010853 L5.6462585,22.8248432 C5.6462585,22.4688644 5.77875286,22.1254585 6.01801358,21.8609458 L9.70444017,17.7872967 C8.47026729,16.3954378 7.76453008,14.5798403 7.7661682,12.6958112 C7.7661682,8.46322416 11.2243191,5.01889645 15.4749307,5.01889645 C19.7255424,5.01889645 23.1836932,8.46332013 23.1836932,12.6970589 C23.1853313,14.5801283 22.4794978,16.3956298 21.2454213,17.7873927 L24.9318479,21.8611378 C25.1711657,22.125598 25.3036029,22.4690037 25.3036029,22.8250351 L25.3036029,29.3010853 C25.3036029,30.096159 24.6564523,30.7407407 23.85821,30.7407407 Z M8.53704445,27.8614298 L22.412817,27.8614298 L22.412817,23.3781507 L18.1456315,18.6625113 C17.8731981,18.3615305 17.7407477,17.9601181 17.7808048,17.5568447 C17.8208618,17.1535712 18.0297158,16.7857919 18.3560807,16.5438183 C19.5702108,15.6434578 20.2942563,14.2058178 20.2930036,12.6982106 C20.2929073,10.0509722 18.131563,7.89820738 15.4749307,7.89820738 C12.8182984,7.89820738 10.6569541,10.0509722 10.6569541,12.6970589 C10.6556051,14.2059138 11.3796506,15.6434578 12.5937807,16.5438183 C12.9200689,16.7858459 13.1288629,17.1536139 13.168917,17.5568584 C13.2089712,17.9601029 13.0765774,18.3614925 12.8042299,18.6625113 L8.53704445,23.3779588 L8.53704445,27.8614298 Z" id="Shape" fill="url(#linearGradient-3)"></path>
                <path d="M15.4749307,26.558327 C14.666498,26.558327 14.0110859,25.9062589 14.0110859,25.1019508 L14.0110859,19.8589965 C14.0110859,19.0546885 14.666498,18.4026203 15.4749307,18.4026203 C16.2833634,18.4026203 16.9387755,19.0546885 16.9387755,19.8589965 L16.9387755,25.1019508 C16.9387755,25.9062589 16.2833634,26.558327 15.4749307,26.558327 Z" id="Shape" fill="url(#linearGradient-4)"></path>
            </g>
        </g>
    </g>
</svg>