<?xml version="1.0" encoding="UTF-8"?>
<svg width="28px" height="32px" viewBox="0 0 28 32" version="1.1" xmlns="http://www.w3.org/2000/svg" xmlns:xlink="http://www.w3.org/1999/xlink">
    <title>深</title>
    <defs>
        <linearGradient x1="14.6889848%" y1="20.7680314%" x2="66.9934214%" y2="104.492908%" id="linearGradient-1">
            <stop stop-color="#9FA1FF" offset="0%"></stop>
            <stop stop-color="#3134B6" offset="100%"></stop>
        </linearGradient>
        <path d="M8.41454621,5.8985631 L7.75613431,5.8985631 L6.62084795,4.30898156 L5.42083431,3.59246564 L4.2873543,4.74551437 L3.2499115,5.8985631 L2.76280109,5.8985631 L3.2499115,7.09466299 L2.76280109,7.67871379 L4.79616347e-14,7.09466299 L2.43826153,8.1748559 L3.81830732,7.67871379 L4.2873543,7.67871379 L4.2873543,8.1748559 L5.07010278,8.1748559 L5.42083431,8.8353752 L6.16625172,9.42153339 L6.62084795,10.9689669 L6.9785038,11.9380698 C6.84684149,12.0251756 6.84684149,12.176507 6.9785038,12.3920639 C7.11016611,12.6076208 7.17599726,12.9774193 7.17599726,13.5014593 L7.17599726,14.891139 C7.15050776,15.1699178 7.15050776,15.3924994 7.17599726,15.5588836 C7.20148676,15.7252679 7.18874201,16.1859856 7.13776301,16.9410368 L6.9785038,18.534231 L7.17599726,19.2959055 L7.75613431,19.9407699 L9.03382068,21.8503751 L9.03382068,20.8075133 L10.5448263,22.8531963 C11.1260672,23.4687578 11.4301349,23.8597306 11.4570294,24.0261148 C11.4839238,24.1924991 11.6738908,24.6678682 12.0269305,25.4522224 C12.3149418,25.9700406 12.5375233,26.2618653 12.6946751,26.3276964 C12.9304029,26.4264432 14.1156647,26.6124965 14.528715,26.8593633 C14.8040819,27.0239412 15.1677589,27.1062301 15.619746,27.1062301 L16.0638052,26.8593633 L16.8068142,26.8593633 L17.6112388,27.1062301 L18.9271594,27.4735198 L19.8077515,27.9720704 L20.1283773,26.3276964 L18.0453631,26.3276964 L18.5098943,24.496366 L17.6112388,24.496366 L16.8068142,25.4522224 L15.9969706,26.0444017 C15.1397606,25.4746009 14.6503421,24.9585891 14.528715,24.496366 C14.407088,24.034143 14.4679015,23.4864198 14.7111557,22.8531963 L15.619746,21.8503751 L16.8068142,21.2109298 L17.6112388,20.8075133 L18.9271594,20.8075133 L20.1283773,22.4503819 L20.5835756,21.8503751 L19.4799003,20.2607936 L20.970133,18.534231 L20.5835756,16.4069615 L21.3148433,15.782268 L21.3148433,14.891139 L22.2869568,13.5014593 L23.0555556,12.9023557 C22.5728607,13.2477686 22.1076271,13.2477686 21.6598548,12.9023557 C21.2120825,12.5569428 21.2120825,12.3842364 21.6598548,12.3842364 L20.5835756,12.9023557 C20.7903015,12.0718395 21.0340574,11.6061041 21.3148433,11.5051496 C21.5956293,11.4041952 21.9196671,11.0694197 22.2869568,10.5008231 L22.2869568,9.89509623 C22.3953373,10.0921883 22.1863033,10.0921883 21.6598548,9.89509623 C21.1334063,9.69800417 20.4067548,9.34476383 19.4799003,8.8353752 C19.8746865,9.13081258 19.8746865,9.32619864 19.4799003,9.42153339 C19.085114,9.51686815 18.606935,9.32148208 18.0453631,8.8353752 L16.8068142,8.8353752 L17.1951779,9.89509623 L17.6112388,10.5008231 L18.0453631,11.5051496 L18.0453631,12.9023557 L17.6112388,12.9023557 L16.8068142,12.3842364 L16.8068142,11.9380698 L15.619746,11.9380698 L14.7111557,11.5051496 L14.0093915,10.5008231 L14.0093915,9.42153339 L15.0904876,8.1748559 L15.0904876,7.09466299 C15.2803543,6.57724618 15.5825153,6.32827195 15.9969706,6.34774031 C16.4114259,6.36720867 16.8108283,6.6161829 17.1951779,7.09466299 L16.8068142,7.67871379 L18.5098943,8.1748559 L18.9271594,7.67871379 L17.6112388,7.09466299 L18.5098943,7.09466299 L17.6112388,5.8985631 L16.0638052,5.53789668 L14.528715,5.53789668 L14.0093915,5.53789668 L14.528715,6.34774031 L14.0093915,6.34774031 L13.4277492,5.53789668 L12.6946751,5.53789668 L13.4807352,5.05319474 L15.0904876,4.74551437 L14.528715,3.2838821 L15.0904876,3.2838821 L15.619746,3.59246564 L16.8068142,3.2838821 L18.5098943,4.74551437 L19.4799003,5.05319474 L20.970133,6.34774031 L21.6598548,5.53789668 L20.970133,4.74551437 L20.1283773,2.60469726 L20.1283773,1.78521981 L18.9271594,1.78521981 L18.0453631,0.928411279 L16.8068142,0.537037037 L15.619746,0.537037037 L15.0904876,0.928411279 L15.0904876,2.60469726 L14.0093915,2.27443762 L12.6946751,2.60469726 L12.6946751,3.59246564 L12.0269305,4.30898156 L10.5448263,4.30898156 L10.5448263,5.05319474 L10.5448263,5.8985631 L11.4570294,7.09466299 L12.6946751,7.09466299 L13.4277492,7.67871379 L12.6946751,7.67871379 L12.0269305,7.67871379 L11.0801059,7.67871379 L9.62901059,6.34774031 L8.41454621,5.8985631 Z" id="path-2"></path>
        <filter x="-15.2%" y="-9.1%" width="130.4%" height="125.5%" filterUnits="objectBoundingBox" id="filter-3">
            <feOffset dx="0" dy="1" in="SourceAlpha" result="shadowOffsetOuter1"></feOffset>
            <feGaussianBlur stdDeviation="1" in="shadowOffsetOuter1" result="shadowBlurOuter1"></feGaussianBlur>
            <feColorMatrix values="0 0 0 0 0   0 0 0 0 0   0 0 0 0 0  0 0 0 0.5 0" type="matrix" in="shadowBlurOuter1"></feColorMatrix>
        </filter>
        <linearGradient x1="14.6889848%" y1="50%" x2="85.3110152%" y2="100%" id="linearGradient-4">
            <stop stop-color="#464AF1" offset="0%"></stop>
            <stop stop-color="#2124B1" offset="100%"></stop>
        </linearGradient>
    </defs>
    <g id="数据大屏素材" stroke="none" stroke-width="1" fill="none" fill-rule="evenodd">
        <g id="素材" transform="translate(-180.000000, -39.000000)">
            <g id="深" transform="translate(182.000000, 40.000000)">
                <g id="Path-11">
                    <use fill="black" fill-opacity="1" filter="url(#filter-3)" xlink:href="#path-2"></use>
                    <use fill="url(#linearGradient-1)" fill-rule="evenodd" xlink:href="#path-2"></use>
                </g>
                <path d="M8.41454621,5.36152606 L7.75613431,5.36152606 L6.62084795,3.77194452 L5.42083431,3.0554286 L4.2873543,4.20847733 L3.2499115,5.36152606 L2.76280109,5.36152606 L3.2499115,6.55762596 L2.76280109,7.14167675 L4.79616347e-14,6.55762596 L2.43826153,7.63781887 L3.81830732,7.14167675 L4.2873543,7.14167675 L4.2873543,7.63781887 L5.07010278,7.63781887 L5.42083431,8.29833816 L6.16625172,8.88449636 L6.62084795,10.4319299 L6.9785038,11.4010327 C6.84684149,11.4881386 6.84684149,11.63947 6.9785038,11.8550269 C7.11016611,12.0705837 7.17599726,12.4403822 7.17599726,12.9644223 L7.17599726,14.3541019 C7.15050776,14.6328808 7.15050776,14.8554624 7.17599726,15.0218466 C7.20148676,15.1882308 7.18874201,15.6489485 7.13776301,16.4039998 L6.9785038,17.997194 L7.17599726,18.7588685 L7.75613431,19.4037328 L9.03382068,21.3133381 L9.03382068,20.2704762 L10.5448263,22.3161593 C11.1260672,22.9317207 11.4301349,23.3226936 11.4570294,23.4890778 C11.4839238,23.655462 11.6738908,24.1308312 12.0269305,24.9151853 C12.3149418,25.4330035 12.5375233,25.7248282 12.6946751,25.7906594 C12.9304029,25.8894061 14.1156647,26.0754594 14.528715,26.3223263 C14.8040819,26.4869041 15.1677589,26.5691931 15.619746,26.5691931 L16.0638052,26.3223263 L16.8068142,26.3223263 L17.6112388,26.5691931 L18.9271594,26.9364828 L19.8077515,27.4350333 L20.1283773,25.7906594 L18.0453631,25.7906594 L18.5098943,23.959329 L17.6112388,23.959329 L16.8068142,24.9151853 L15.9969706,25.5073647 C15.1397606,24.9375639 14.6503421,24.421552 14.528715,23.959329 C14.407088,23.497106 14.4679015,22.9493827 14.7111557,22.3161593 L15.619746,21.3133381 L16.8068142,20.6738928 L17.6112388,20.2704762 L18.9271594,20.2704762 L20.1283773,21.9133449 L20.5835756,21.3133381 L19.4799003,19.7237565 L20.970133,17.997194 L20.5835756,15.8699245 L21.3148433,15.245231 L21.3148433,14.3541019 L22.2869568,12.9644223 L23.0555556,12.3653187 C22.5728607,12.7107315 22.1076271,12.7107315 21.6598548,12.3653187 C21.2120825,12.0199058 21.2120825,11.8471994 21.6598548,11.8471994 L20.5835756,12.3653187 C20.7903015,11.5348024 21.0340574,11.0690671 21.3148433,10.9681126 C21.5956293,10.8671581 21.9196671,10.5323826 22.2869568,9.96378609 L22.2869568,9.35805919 C22.3953373,9.55515124 22.1863033,9.55515124 21.6598548,9.35805919 C21.1334063,9.16096714 20.4067548,8.80772679 19.4799003,8.29833816 C19.8746865,8.59377554 19.8746865,8.78916161 19.4799003,8.88449636 C19.085114,8.97983111 18.606935,8.78444504 18.0453631,8.29833816 L16.8068142,8.29833816 L17.1951779,9.35805919 L17.6112388,9.96378609 L18.0453631,10.9681126 L18.0453631,12.3653187 L17.6112388,12.3653187 L16.8068142,11.8471994 L16.8068142,11.4010327 L15.619746,11.4010327 L14.7111557,10.9681126 L14.0093915,9.96378609 L14.0093915,8.88449636 L15.0904876,7.63781887 L15.0904876,6.55762596 C15.2803543,6.04020914 15.5825153,5.79123491 15.9969706,5.81070327 C16.4114259,5.83017163 16.8108283,6.07914586 17.1951779,6.55762596 L16.8068142,7.14167675 L18.5098943,7.63781887 L18.9271594,7.14167675 L17.6112388,6.55762596 L18.5098943,6.55762596 L17.6112388,5.36152606 L16.0638052,5.00085964 L14.528715,5.00085964 L14.0093915,5.00085964 L14.528715,5.81070327 L14.0093915,5.81070327 L13.4277492,5.00085964 L12.6946751,5.00085964 L13.4807352,4.5161577 L15.0904876,4.20847733 L14.528715,2.74684507 L15.0904876,2.74684507 L15.619746,3.0554286 L16.8068142,2.74684507 L18.5098943,4.20847733 L19.4799003,4.5161577 L20.970133,5.81070327 L21.6598548,5.00085964 L20.970133,4.20847733 L20.1283773,2.06766023 L20.1283773,1.24818278 L18.9271594,1.24818278 L18.0453631,0.391374242 L16.8068142,7.10542736e-15 L15.619746,7.10542736e-15 L15.0904876,0.391374242 L15.0904876,2.06766023 L14.0093915,1.73740058 L12.6946751,2.06766023 L12.6946751,3.0554286 L12.0269305,3.77194452 L10.5448263,3.77194452 L10.5448263,4.5161577 L10.5448263,5.36152606 L11.4570294,6.55762596 L12.6946751,6.55762596 L13.4277492,7.14167675 L12.6946751,7.14167675 L12.0269305,7.14167675 L11.0801059,7.14167675 L9.62901059,5.81070327 L8.41454621,5.36152606 Z" id="Path-11" fill="url(#linearGradient-4)"></path>
            </g>
        </g>
    </g>
</svg>