<?xml version="1.0" encoding="UTF-8"?>
<svg width="31px" height="31px" viewBox="0 0 31 31" version="1.1" xmlns="http://www.w3.org/2000/svg" xmlns:xlink="http://www.w3.org/1999/xlink">
    <title>白</title>
    <defs>
        <linearGradient x1="79.3220051%" y1="96.3697458%" x2="19.0780117%" y2="68.0986914%" id="linearGradient-1">
            <stop stop-color="#6C8FBA" offset="0%"></stop>
            <stop stop-color="#A8C5E8" offset="100%"></stop>
        </linearGradient>
        <path d="M23.0522191,23.4193519 L23.2821429,24.4861041 L22.6507591,25.6620157 L22.0289856,26.154321 C21.5916227,25.8347003 21.318845,25.4881222 21.2106527,25.1145867 C21.1024604,24.7410511 20.9575189,24.1759729 20.7758283,23.4193519 C21.2772605,23.7361922 21.652972,23.8768422 21.9029627,23.841302 C22.1529535,23.8057617 22.536039,23.6651117 23.0522191,23.4193519 Z M19.4664594,0.537037037 C19.9023717,2.3354474 20.2568678,3.2053379 20.5299477,3.14670854 C20.8030275,3.08807917 21.0131866,3.35940619 21.1604249,3.96068959 L21.1604249,3.96068959 L21.6367733,5.03922809 L21.8764889,6.46210832 C23.02913,7.16795749 23.6373039,7.68788509 23.7010104,8.02189113 C23.764717,8.35589717 24.1087565,8.83949874 24.733129,9.47269586 L24.733129,9.47269586 L25.7398616,10.1298283 L26.4994443,12.0910711 L26.6011693,13.7446004 L26.2038798,15.3825356 C26.010826,15.7842374 25.8561533,16.0452892 25.7398616,16.1656909 C25.5654242,16.3462935 25.357441,17.2440481 25.0359466,17.6572944 C24.7144522,18.0705408 24.4658516,19.5287799 24.4105466,19.5224335 C24.3736766,19.5182025 24.2433623,19.864297 24.0196036,20.5607172 C23.6936969,20.7341875 23.333217,20.8450998 22.9381639,20.8934539 C22.5431108,20.941808 22.1892191,21.1914361 21.8764889,21.6423382 L21.8764889,21.6423382 L21.1604249,21.0921893 L20.5299477,21.6423382 L19.0976384,21.4274646 C18.7169706,21.2318722 18.4513252,21.1201138 18.3007022,21.0921893 C18.1500791,21.0642648 17.9834992,20.9980197 17.8009624,20.8934539 L17.8009624,20.8934539 L17.5144643,20.3369585 L17.5144643,19.5224335 L16.9111863,18.7338383 L16.5012038,17.6572944 C16.3324178,17.858921 16.2059101,18.0130224 16.1216807,18.1195988 L16.092,18.157037 C16.1480011,17.989184 16.1672424,17.7444976 16.1332275,17.6209502 L16.1062716,17.5630039 C16.0464334,17.4916816 16.0464334,17.2291187 16.1062716,16.7753154 L16.1062716,16.7753154 L15.7247577,17.3178485 L15.0117763,17.6572944 L15.0117763,18.7338383 C14.7665,18.3425326 14.5898262,17.9836847 14.4817547,17.6572944 C14.3736833,17.3309042 14.2521936,17.0369111 14.1172856,16.7753154 L14.1172856,16.7753154 L12.6144398,15.7022167 C12.3020722,15.5760125 12.0971112,15.4694521 11.9995568,15.3825356 C11.9020023,15.2956191 11.6028717,15.2956191 11.1021649,15.3825356 L11.1021649,15.3825356 L10.4167453,15.8906164 L8.93729077,16.1656909 L7.31295522,16.7753154 L6.8083196,17.3178485 L6.1816503,17.5630039 C5.4760429,17.6887246 4.95508777,17.7201548 4.61878491,17.6572944 C4.34362802,17.6058632 4.0341597,17.7386672 3.71515715,17.9024525 L3.3938942,18.0708888 C3.23259137,18.1545945 3.07096974,18.2332743 2.91212648,18.2877716 C2.32970118,18.487595 1.56830522,18.4487908 1.40057689,18.2877716 C1.28875801,18.1804255 1.06790059,17.9702664 0.738004655,17.6572944 C1.02401924,17.5165839 1.2190072,17.4034353 1.32296854,17.3178485 C1.42692989,17.2322618 1.42692989,17.1339216 1.32296854,17.022828 C1.42644634,16.6075871 1.4523158,16.3218747 1.40057689,16.1656909 C1.34883799,16.0095071 1.23647512,15.7484553 1.06348828,15.3825356 C0.832113848,14.6411462 0.723619307,14.1598414 0.738004655,13.9386213 C0.752390004,13.7174013 0.506388452,13.1015512 8.17124146e-14,12.0910711 L8.17124146e-14,12.0910711 L0.115687216,11.6009417 L8.17124146e-14,10.5100729 C8.17124146e-14,9.94831901 0.0385624054,9.60252665 0.115687216,9.47269586 C0.192812027,9.34286507 0.192812027,9.21599596 0.115687216,9.09208854 L0.115687216,9.09208854 L0.738004655,8.43695075 C1.06415315,8.21162058 1.28501056,8.07326738 1.40057689,8.02189113 C1.51614322,7.97051489 1.77773898,7.87719145 2.18536415,7.74192081 L2.18536415,7.74192081 L3.44504925,7.35115914 C3.83635491,7.19062348 4.22760013,7.03915422 4.61878491,6.89675136 C5.00996969,6.75434849 5.26872464,6.43635975 5.39504976,5.94278514 L5.39504976,5.94278514 L5.82425296,5.60696582 C5.84806736,5.46021109 5.84806736,5.27096518 5.82425296,5.03922809 C5.80043855,4.807491 5.919571,4.70280435 6.1816503,4.72516812 L6.1816503,4.72516812 L6.5959846,5.03922809 L6.8083196,4.52316882 L7.31295522,3.33039372 C7.66557759,3.33039372 7.88335243,3.26916533 7.96627973,3.14670854 C8.04920704,3.02425174 8.27157552,2.83579159 8.63338517,2.58132806 L8.63338517,2.58132806 L9.22052499,3.14670854 L10.4167453,3.59984702 L10.4167453,2.9354615 L11.3801406,1.6984424 L12.2517839,1.6984424 L13.3005846,1.23116033 L13.6761148,1.6984424 L15.3185831,1.6984424 C15.0644822,2.19516003 14.9622133,2.48945525 15.0117763,2.58132806 C15.0613392,2.67320088 14.8846654,3.0127072 14.4817547,3.59984702 C14.7493948,3.76461366 15.0283375,3.97120661 15.3185831,4.21962587 C15.6088287,4.46804513 15.8414724,4.63655921 16.0165143,4.72516812 C16.6978238,5.12384779 17.1971404,5.39221312 17.5144643,5.53026411 C17.9904501,5.7373406 17.9413102,5.53026411 18.3007022,5.60696582 C18.6600941,5.68366754 18.5886509,4.91066659 18.79881,4.72516812 C18.938916,4.60150248 18.9587412,4.3466763 18.8582855,3.96068959 C18.8582855,3.38007758 18.8384604,3.03833488 18.79881,2.9354615 C18.7393344,2.78115144 18.9881163,2.15303151 19.0976384,1.6984424 C19.1706531,1.39538299 19.2935934,1.00824787 19.4664594,0.537037037 Z" id="path-2"></path>
        <filter x="-13.2%" y="-9.8%" width="126.3%" height="127.3%" filterUnits="objectBoundingBox" id="filter-3">
            <feOffset dx="0" dy="1" in="SourceAlpha" result="shadowOffsetOuter1"></feOffset>
            <feGaussianBlur stdDeviation="1" in="shadowOffsetOuter1" result="shadowBlurOuter1"></feGaussianBlur>
            <feColorMatrix values="0 0 0 0 0   0 0 0 0 0   0 0 0 0 0  0 0 0 0.5 0" type="matrix" in="shadowBlurOuter1"></feColorMatrix>
        </filter>
        <linearGradient x1="79.3220051%" y1="96.3697458%" x2="19.0780117%" y2="68.0986914%" id="linearGradient-4">
            <stop stop-color="#B1D4FF" offset="0%"></stop>
            <stop stop-color="#FFFFFF" offset="100%"></stop>
        </linearGradient>
    </defs>
    <g id="数据大屏素材" stroke="none" stroke-width="1" fill="none" fill-rule="evenodd">
        <g id="素材" transform="translate(-330.000000, -83.000000)">
            <g id="大洋" transform="translate(332.000000, 42.000000)">
                <g id="白" transform="translate(0.000000, 42.000000)">
                    <g id="Combined-Shape">
                        <use fill="black" fill-opacity="1" filter="url(#filter-3)" xlink:href="#path-2"></use>
                        <use fill="url(#linearGradient-1)" fill-rule="evenodd" xlink:href="#path-2"></use>
                    </g>
                    <path d="M23.0522191,22.8823149 L23.2821429,23.949067 L22.6507591,25.1249786 L22.0289856,25.617284 C21.5916227,25.2976633 21.318845,24.9510852 21.2106527,24.5775496 C21.1024604,24.2040141 20.9575189,23.6389358 20.7758283,22.8823149 C21.2772605,23.1991552 21.652972,23.3398052 21.9029627,23.3042649 C22.1529535,23.2687247 22.536039,23.1280746 23.0522191,22.8823149 Z M19.4664594,-9.76996262e-14 C19.9023717,1.79841036 20.2568678,2.66830086 20.5299477,2.6096715 C20.8030275,2.55104214 21.0131866,2.82236915 21.1604249,3.42365255 L21.1604249,3.42365255 L21.6367733,4.50219105 L21.8764889,5.92507128 C23.02913,6.63092045 23.6373039,7.15084806 23.7010104,7.48485409 C23.764717,7.81886013 24.1087565,8.30246171 24.733129,8.93565882 L24.733129,8.93565882 L25.7398616,9.59279122 L26.4994443,11.5540341 L26.6011693,13.2075634 L26.2038798,14.8454986 C26.010826,15.2472004 25.8561533,15.5082521 25.7398616,15.6286539 C25.5654242,15.8092565 25.357441,16.707011 25.0359466,17.1202574 C24.7144522,17.5335037 24.4658516,18.9917429 24.4105466,18.9853964 C24.3736766,18.9811654 24.2433623,19.32726 24.0196036,20.0236801 C23.6936969,20.1971505 23.333217,20.3080627 22.9381639,20.3564169 C22.5431108,20.404771 22.1892191,20.6543991 21.8764889,21.1053012 L21.8764889,21.1053012 L21.1604249,20.5551523 L20.5299477,21.1053012 L19.0976384,20.8904276 C18.7169706,20.6948352 18.4513252,20.5830768 18.3007022,20.5551523 C18.1500791,20.5272278 17.9834992,20.4609826 17.8009624,20.3564169 L17.8009624,20.3564169 L17.5144643,19.7999215 L17.5144643,18.9853964 L16.9111863,18.1968013 L16.5012038,17.1202574 C16.3324178,17.321884 16.2059101,17.4759854 16.1216807,17.5825617 L16.092,17.62 C16.1480011,17.452147 16.1672424,17.2074605 16.1332275,17.0839132 L16.1062716,17.0259669 C16.0464334,16.9546445 16.0464334,16.6920817 16.1062716,16.2382784 L16.1062716,16.2382784 L15.7247577,16.7808115 L15.0117763,17.1202574 L15.0117763,18.1968013 C14.7665,17.8054956 14.5898262,17.4466476 14.4817547,17.1202574 C14.3736833,16.7938671 14.2521936,16.4998741 14.1172856,16.2382784 L14.1172856,16.2382784 L12.6144398,15.1651797 C12.3020722,15.0389755 12.0971112,14.9324151 11.9995568,14.8454986 C11.9020023,14.758582 11.6028717,14.758582 11.1021649,14.8454986 L11.1021649,14.8454986 L10.4167453,15.3535794 L8.93729077,15.6286539 L7.31295522,16.2382784 L6.8083196,16.7808115 L6.1816503,17.0259669 C5.4760429,17.1516876 4.95508777,17.1831177 4.61878491,17.1202574 C4.34362802,17.0688262 4.0341597,17.2016302 3.71515715,17.3654155 L3.3938942,17.5338518 C3.23259137,17.6175575 3.07096974,17.6962373 2.91212648,17.7507346 C2.32970118,17.9505579 1.56830522,17.9117538 1.40057689,17.7507346 C1.28875801,17.6433884 1.06790059,17.4332294 0.738004655,17.1202574 C1.02401924,16.9795469 1.2190072,16.8663983 1.32296854,16.7808115 C1.42692989,16.6952247 1.42692989,16.5968845 1.32296854,16.485791 C1.42644634,16.07055 1.4523158,15.7848377 1.40057689,15.6286539 C1.34883799,15.4724701 1.23647512,15.2114183 1.06348828,14.8454986 C0.832113848,14.1041091 0.723619307,13.6228044 0.738004655,13.4015843 C0.752390004,13.1803642 0.506388452,12.5645141 8.17124146e-14,11.5540341 L8.17124146e-14,11.5540341 L0.115687216,11.0639047 L8.17124146e-14,9.97303588 C8.17124146e-14,9.41128197 0.0385624054,9.06548962 0.115687216,8.93565882 C0.192812027,8.80582803 0.192812027,8.67895892 0.115687216,8.55505151 L0.115687216,8.55505151 L0.738004655,7.89991371 C1.06415315,7.67458355 1.28501056,7.53623034 1.40057689,7.48485409 C1.51614322,7.43347785 1.77773898,7.34015441 2.18536415,7.20488378 L2.18536415,7.20488378 L3.44504925,6.8141221 C3.83635491,6.65358644 4.22760013,6.50211718 4.61878491,6.35971432 C5.00996969,6.21731145 5.26872464,5.89932272 5.39504976,5.4057481 L5.39504976,5.4057481 L5.82425296,5.06992879 C5.84806736,4.92317405 5.84806736,4.73392814 5.82425296,4.50219105 C5.80043855,4.27045396 5.919571,4.16576731 6.1816503,4.18813109 L6.1816503,4.18813109 L6.5959846,4.50219105 L6.8083196,3.98613178 L7.31295522,2.79335669 C7.66557759,2.79335669 7.88335243,2.73212829 7.96627973,2.6096715 C8.04920704,2.48721471 8.27157552,2.29875455 8.63338517,2.04429103 L8.63338517,2.04429103 L9.22052499,2.6096715 L10.4167453,3.06280998 L10.4167453,2.39842447 L11.3801406,1.16140536 L12.2517839,1.16140536 L13.3005846,0.694123297 L13.6761148,1.16140536 L15.3185831,1.16140536 C15.0644822,1.65812299 14.9622133,1.95241821 15.0117763,2.04429103 C15.0613392,2.13616384 14.8846654,2.47567016 14.4817547,3.06280998 C14.7493948,3.22757662 15.0283375,3.43416957 15.3185831,3.68258883 C15.6088287,3.93100809 15.8414724,4.09952217 16.0165143,4.18813109 C16.6978238,4.58681075 17.1971404,4.85517608 17.5144643,4.99322707 C17.9904501,5.20030356 17.9413102,4.99322707 18.3007022,5.06992879 C18.6600941,5.1466305 18.5886509,4.37362955 18.79881,4.18813109 C18.938916,4.06446544 18.9587412,3.80963926 18.8582855,3.42365255 C18.8582855,2.84304054 18.8384604,2.50129784 18.79881,2.39842447 C18.7393344,2.2441144 18.9881163,1.61599447 19.0976384,1.16140536 C19.1706531,0.858345955 19.2935934,0.471210835 19.4664594,-9.76996262e-14 Z" id="Combined-Shape" fill="url(#linearGradient-4)"></path>
                </g>
            </g>
        </g>
    </g>
</svg>