<?xml version="1.0" encoding="UTF-8"?>
<svg width="28px" height="31px" viewBox="0 0 28 31" version="1.1" xmlns="http://www.w3.org/2000/svg" xmlns:xlink="http://www.w3.org/1999/xlink">
    <title>深</title>
    <defs>
        <linearGradient x1="6.76950083%" y1="20.7680314%" x2="70.804672%" y2="104.492908%" id="linearGradient-1">
            <stop stop-color="#9FA1FF" offset="0%"></stop>
            <stop stop-color="#3134B6" offset="100%"></stop>
        </linearGradient>
        <path d="M9.62645086,0.537037037 L9.62645086,1.90082205 L10.1185463,2.27087157 L10.5657351,2.27087157 L11.2163338,2.65140452 L11.9809985,2.90112926 L12.6361347,2.90112926 L12.6361347,2.65140452 L12.8788184,2.27087157 L13.6549053,2.27087157 L13.9856811,2.65140452 L16.5663266,2.65140452 L16.7450143,2.90112926 L16.7450143,3.46613932 C17.0188353,3.77615685 17.2009133,3.9732558 17.2912481,4.0574362 C17.381583,4.1416166 17.534349,4.4265469 17.7495462,4.91222711 L18.1885986,5.31826453 L18.4790053,5.96808086 C18.7162126,6.36436503 18.8678833,6.63761231 18.9340176,6.78782268 C19.0001519,6.93803306 19.1389922,7.15782004 19.3505385,7.44718363 C19.3442797,7.64756845 19.4095795,7.820519 19.5464378,7.9660353 C19.7517253,8.18430975 20.0016065,8.40133245 20.0740518,8.51586786 C20.146497,8.63040327 20.2084587,8.68266396 20.3974735,8.92331349 C20.5234833,9.08374652 20.6658702,9.25742726 20.8246342,9.44435573 C20.9507483,9.29185047 21.0398836,9.29185047 21.09204,9.44435573 C21.1441964,9.59686098 21.3460937,9.82603612 21.697732,10.1318811 C21.9268028,10.0736746 22.0872359,10.0736746 22.1790311,10.1318811 C22.2708263,10.1900876 22.5828779,10.0206837 23.1151859,9.62366936 L23.8200794,9.44435573 L23.8200794,10.3470262 C23.5893396,10.9675828 23.4618172,11.3300696 23.4375124,11.4344867 C23.4010551,11.5911123 23.178243,11.7242676 23.1151859,11.8877778 C23.0731479,11.9967846 22.7610963,12.2815063 22.1790311,12.7419428 C21.8729774,13.0696935 21.647036,13.2724254 21.5012068,13.3501384 C21.2824629,13.4667079 20.9867362,13.8048377 20.8246342,13.9345506 C20.7165662,14.0210259 20.466372,14.4445879 20.0740518,15.2052365 L19.7909991,16.0032291 C19.8052899,16.2859167 19.8052899,16.4883356 19.7909991,16.6104858 C19.7695628,16.7937112 19.7924073,16.9420439 19.8124354,17.3365026 C19.8257874,17.5994751 19.8324634,17.9511134 19.8324634,18.3914176 L19.8324634,19.1409048 C19.6486643,19.4531128 19.5533225,19.6465609 19.5464378,19.7212488 C19.5395532,19.7959367 19.3354131,19.9444781 18.9340176,20.1668729 L18.4790053,20.3338255 L18.1885986,20.7237466 L17.7495462,21.0518624 L17.7495462,21.7353196 L17.91556,22.212081 L17.7495462,22.8216848 C17.9175941,22.9437307 17.764828,23.0600394 17.2912481,23.170611 C16.8176682,23.2811825 16.5760277,23.6113324 16.5663266,24.1610606 L15.62094,25.3844928 C15.3089406,25.5360593 15.0783051,25.6562276 14.9290335,25.7449977 C14.7051262,25.878153 14.5035939,26.0496431 14.2349364,26.07061 C13.9662789,26.0915769 13.6630417,26.0288327 13.4749658,26.0915769 C13.3495819,26.1334063 13.0699715,26.154321 12.6361347,26.154321 L12.3125566,26.154321 L11.9809985,25.7449977 L11.9809985,24.3835597 L11.4729432,23.7138718 L11.2163338,22.8216848 L11.0215297,22.0097664 L10.5657351,21.0518624 L10.1185463,20.3338255 L10.1185463,19.7212488 L10.3527806,19.1409048 L10.5657351,17.846905 L10.4615267,17.0066657 L10.3527806,16.6104858 L10.3527806,16.16627 L10.1185463,15.7057813 L9.62645086,14.9107616 L9.37093675,14.5688765 L9.08710173,14.1698802 L9.08710173,13.9345506 L9.37093675,13.345679 L9.37093675,12.1345296 L8.55009965,11.8877778 C8.56042661,12.0122229 8.49909071,12.0944735 8.36609194,12.1345296 C8.16659379,12.1946138 8.13576937,12.3308984 7.77886326,12.1946138 C7.54092585,12.1037574 7.42195715,11.8503817 7.42195715,11.4344867 L6.55402284,11.4344867 C6.42884753,11.8202353 6.27284779,11.9713323 6.08602364,11.8877778 C5.89919949,11.8042233 5.63304548,11.762446 5.28756162,11.762446 C5.21600307,11.7763196 5.12650272,11.8180969 5.01906058,11.8877778 C4.85789737,11.9922992 4.80235082,12.1799057 4.64118761,12.1345296 C4.4800244,12.0891536 4.3496856,12.1562789 4.07711636,12.0891536 C3.89540353,12.0444034 3.72396551,12.0220283 3.5628023,12.0220283 L3.12531459,12.1345296 L2.42292462,11.762446 L1.17195385,11.0414362 L1.17195385,10.3470262 L0.441555911,9.44435573 L-5.32907052e-14,8.92331349 L-5.32907052e-14,8.51586786 L0.441555911,6.78782268 L0.441555911,5.31826453 L0.992953158,4.91222711 L1.62790492,4.0574362 L1.81472908,3.79441158 L2.42292462,3.46613932 L2.69674562,3.46613932 L3.12531459,2.90112926 C3.4516049,2.93857754 3.59743414,2.85533596 3.5628023,2.65140452 C3.52817047,2.44747307 3.54548638,2.11242049 3.61475006,1.64624677 L4.64118761,1.22033777 L4.64118761,0.948237935 L5.28756162,0.948237935 L5.55762736,1.22033777 L6.08602364,1.22033777 L6.55402284,0.948237935 L7.42195715,0.537037037 C7.94915384,0.61349829 8.26386543,0.671965591 8.36609194,0.712438942 C8.46831844,0.752912293 8.70865504,0.752912293 9.08710173,0.712438942 L9.62645086,0.537037037 Z M23.0912462,18.5355257 L23.2991937,19.5575821 L23.0912462,20.1305721 L22.6537585,21.0779927 L21.6842757,23.1767133 L21.0748284,23.4032806 L20.6655051,22.9819092 L20.6655051,22.0908174 L21.0748284,21.0779927 L21.0748284,20.4744912 L21.3840114,19.8659827 L21.8710998,19.8659827 L22.1338115,19.5575821 L22.6537585,19.2529367 L23.0912462,18.5355257 Z" id="path-2"></path>
        <filter x="-14.7%" y="-9.8%" width="129.4%" height="127.3%" filterUnits="objectBoundingBox" id="filter-3">
            <feOffset dx="0" dy="1" in="SourceAlpha" result="shadowOffsetOuter1"></feOffset>
            <feGaussianBlur stdDeviation="1" in="shadowOffsetOuter1" result="shadowBlurOuter1"></feGaussianBlur>
            <feColorMatrix values="0 0 0 0 0   0 0 0 0 0   0 0 0 0 0  0 0 0 0.5 0" type="matrix" in="shadowBlurOuter1"></feColorMatrix>
        </filter>
        <linearGradient x1="6.76950083%" y1="50%" x2="93.2304992%" y2="100%" id="linearGradient-4">
            <stop stop-color="#464AF1" offset="0%"></stop>
            <stop stop-color="#2124B1" offset="100%"></stop>
        </linearGradient>
    </defs>
    <g id="数据大屏素材" stroke="none" stroke-width="1" fill="none" fill-rule="evenodd">
        <g id="素材" transform="translate(-281.000000, -44.000000)">
            <g id="深" transform="translate(283.000000, 45.000000)">
                <g id="Combined-Shape">
                    <use fill="black" fill-opacity="1" filter="url(#filter-3)" xlink:href="#path-2"></use>
                    <use fill="url(#linearGradient-1)" fill-rule="evenodd" xlink:href="#path-2"></use>
                </g>
                <path d="M9.62645086,-9.41469125e-14 L9.62645086,1.36378502 L10.1185463,1.73383453 L10.5657351,1.73383453 L11.2163338,2.11436748 L11.9809985,2.36409223 L12.6361347,2.36409223 L12.6361347,2.11436748 L12.8788184,1.73383453 L13.6549053,1.73383453 L13.9856811,2.11436748 L16.5663266,2.11436748 L16.7450143,2.36409223 L16.7450143,2.92910229 C17.0188353,3.23911981 17.2009133,3.43621877 17.2912481,3.52039916 C17.381583,3.60457956 17.534349,3.88950986 17.7495462,4.37519007 L18.1885986,4.78122749 L18.4790053,5.43104382 C18.7162126,5.827328 18.8678833,6.10057527 18.9340176,6.25078564 C19.0001519,6.40099602 19.1389922,6.620783 19.3505385,6.9101466 C19.3442797,7.11053141 19.4095795,7.28348196 19.5464378,7.42899826 C19.7517253,7.64727271 20.0016065,7.86429541 20.0740518,7.97883082 C20.146497,8.09336623 20.2084587,8.14562692 20.3974735,8.38627646 C20.5234833,8.54670948 20.6658702,8.72039023 20.8246342,8.90731869 C20.9507483,8.75481344 21.0398836,8.75481344 21.09204,8.90731869 C21.1441964,9.05982395 21.3460937,9.28899908 21.697732,9.59484409 C21.9268028,9.53663757 22.0872359,9.53663757 22.1790311,9.59484409 C22.2708263,9.65305061 22.5828779,9.48364669 23.1151859,9.08663232 L23.8200794,8.90731869 L23.8200794,9.80998916 C23.5893396,10.4305458 23.4618172,10.7930326 23.4375124,10.8974497 C23.4010551,11.0540753 23.178243,11.1872305 23.1151859,11.3507408 C23.0731479,11.4597476 22.7610963,11.7444693 22.1790311,12.2049058 C21.8729774,12.5326565 21.647036,12.7353883 21.5012068,12.8131013 C21.2824629,12.9296709 20.9867362,13.2678007 20.8246342,13.3975136 C20.7165662,13.4839889 20.466372,13.9075508 20.0740518,14.6681995 L19.7909991,15.4661921 C19.8052899,15.7488796 19.8052899,15.9512986 19.7909991,16.0734488 C19.7695628,16.2566742 19.7924073,16.4050069 19.8124354,16.7994656 C19.8257874,17.0624381 19.8324634,17.4140764 19.8324634,17.8543805 L19.8324634,18.6038677 C19.6486643,18.9160758 19.5533225,19.1095238 19.5464378,19.1842118 C19.5395532,19.2588997 19.3354131,19.4074411 18.9340176,19.6298359 L18.4790053,19.7967884 L18.1885986,20.1867095 L17.7495462,20.5148253 L17.7495462,21.1982825 L17.91556,21.675044 L17.7495462,22.2846478 C17.9175941,22.4066937 17.764828,22.5230024 17.2912481,22.6335739 C16.8176682,22.7441455 16.5760277,23.0742953 16.5663266,23.6240236 L15.62094,24.8474558 C15.3089406,24.9990222 15.0783051,25.1191905 14.9290335,25.2079607 C14.7051262,25.3411159 14.5035939,25.5126061 14.2349364,25.533573 C13.9662789,25.5545398 13.6630417,25.4917957 13.4749658,25.5545398 C13.3495819,25.5963692 13.0699715,25.617284 12.6361347,25.617284 L12.3125566,25.617284 L11.9809985,25.2079607 L11.9809985,23.8465227 L11.4729432,23.1768348 L11.2163338,22.2846478 L11.0215297,21.4727294 L10.5657351,20.5148253 L10.1185463,19.7967884 L10.1185463,19.1842118 L10.3527806,18.6038677 L10.5657351,17.3098679 L10.4615267,16.4696287 L10.3527806,16.0734488 L10.3527806,15.6292329 L10.1185463,15.1687442 L9.62645086,14.3737245 L9.37093675,14.0318395 L9.08710173,13.6328432 L9.08710173,13.3975136 L9.37093675,12.808642 L9.37093675,11.5974926 L8.55009965,11.3507408 C8.56042661,11.4751859 8.49909071,11.5574365 8.36609194,11.5974926 C8.16659379,11.6575768 8.13576937,11.7938614 7.77886326,11.6575768 C7.54092585,11.5667203 7.42195715,11.3133446 7.42195715,10.8974497 L6.55402284,10.8974497 C6.42884753,11.2831983 6.27284779,11.4342953 6.08602364,11.3507408 C5.89919949,11.2671862 5.63304548,11.225409 5.28756162,11.225409 C5.21600307,11.2392826 5.12650272,11.2810598 5.01906058,11.3507408 C4.85789737,11.4552622 4.80235082,11.6428687 4.64118761,11.5974926 C4.4800244,11.5521166 4.3496856,11.6192418 4.07711636,11.5521166 C3.89540353,11.5073664 3.72396551,11.4849913 3.5628023,11.4849913 L3.12531459,11.5974926 L2.42292462,11.225409 L1.17195385,10.5043992 L1.17195385,9.80998916 L0.441555911,8.90731869 L-5.32907052e-14,8.38627646 L-5.32907052e-14,7.97883082 L0.441555911,6.25078564 L0.441555911,4.78122749 L0.992953158,4.37519007 L1.62790492,3.52039916 L1.81472908,3.25737454 L2.42292462,2.92910229 L2.69674562,2.92910229 L3.12531459,2.36409223 C3.4516049,2.40154051 3.59743414,2.31829892 3.5628023,2.11436748 C3.52817047,1.91043603 3.54548638,1.57538345 3.61475006,1.10920973 L4.64118761,0.683300731 L4.64118761,0.411200898 L5.28756162,0.411200898 L5.55762736,0.683300731 L6.08602364,0.683300731 L6.55402284,0.411200898 L7.42195715,-9.41469125e-14 C7.94915384,0.0764612527 8.26386543,0.134928554 8.36609194,0.175401905 C8.46831844,0.215875256 8.70865504,0.215875256 9.08710173,0.175401905 L9.62645086,-9.41469125e-14 Z M23.0912462,17.9984886 L23.2991937,19.020545 L23.0912462,19.593535 L22.6537585,20.5409557 L21.6842757,22.6396762 L21.0748284,22.8662435 L20.6655051,22.4448722 L20.6655051,21.5537804 L21.0748284,20.5409557 L21.0748284,19.9374542 L21.3840114,19.3289457 L21.8710998,19.3289457 L22.1338115,19.020545 L22.6537585,18.7158996 L23.0912462,17.9984886 Z" id="Combined-Shape" fill="url(#linearGradient-4)"></path>
            </g>
        </g>
    </g>
</svg>