<?xml version="1.0" encoding="UTF-8"?>
<svg width="30px" height="27px" viewBox="0 0 30 27" version="1.1" xmlns="http://www.w3.org/2000/svg" xmlns:xlink="http://www.w3.org/1999/xlink">
    <title>白</title>
    <defs>
        <linearGradient x1="79.3220051%" y1="87.175598%" x2="19.0780117%" y2="64.5101006%" id="linearGradient-1">
            <stop stop-color="#6C8FBA" offset="0%"></stop>
            <stop stop-color="#A8C5E8" offset="100%"></stop>
        </linearGradient>
        <path d="M9.12136666,2.6783806 L8.61724581,4.63886914 L8.86930624,5.27052454 L8.61724581,6.2694059 L8.61724581,6.93800119 L8.10978199,7.34668006 L5.01034137,7.91298028 L4.18997495,7.34668006 L2.71237936,6.93800119 L1.34844497,6.03172028 L0.823931964,5.7161433 L0.573877326,6.03172028 C0.270557929,5.51835053 0.129707188,5.05406682 0.151325103,4.63886914 C0.183751974,4.01607263 -0.226932683,5.52576079 0.183751974,6.2694059 C0.457541745,6.76516931 0.845772744,7.31302744 1.34844497,7.91298028 L1.94516627,7.91298028 L3.1469663,8.16036053 C3.18329331,8.4444021 3.20686129,8.63383743 3.21767025,8.72866653 C3.23388369,8.87091018 2.91145361,8.1581876 2.18619487,8.16036053 C1.70268904,8.16180916 1.42343907,8.16253347 1.34844497,8.16253347 C1.06106043,8.60971228 1.06106043,8.7984233 1.34844497,8.72866653 C1.63582951,8.65890975 1.91507948,8.65890975 2.18619487,8.72866653 L2.3732344,8.96300918 L2.3732344,9.33374527 L2.71237936,9.74576711 L2.71237936,8.96300918 L3.1469663,8.96300918 L3.50065321,9.33374527 L2.71237936,9.97526245 L3.1469663,10.6415177 L2.71237936,11.3126202 L2.71237936,11.8668857 L3.1469663,13.02857 L2.71237936,13.2602383 L2.71237936,13.966442 C2.9768088,14.1529801 3.14523909,14.2223469 3.21767025,14.1745423 C3.29010141,14.1267378 3.38442906,14.057371 3.50065321,13.966442 L4.18997495,13.966442 L4.18997495,15.4550694 L4.56068333,17.5125043 L5.68144389,17.7804439 L6.27064349,18.2055033 C6.51267499,18.2893006 6.66773338,18.3665233 6.73581867,18.4371716 C6.80390395,18.5078198 7.16572544,18.6195309 7.82128312,18.772305 C7.42246603,18.9322107 7.51863232,18.9322107 8.10978199,18.772305 C8.70093166,18.6123993 9.11406783,18.5324464 9.34919051,18.5324464 L9.89794009,18.772305 L10.1175736,18.5324464 L11.4454039,18.772305 L12.8064967,19.0302156 L13.2591358,19.2520221 L13.8235973,19.2520221 L14.2737291,18.5324464 L14.9478403,19.9560529 L14.2737291,21.3112956 L14.2737291,21.8745871 L14.5114147,22.279923 L14.9478403,22.47532 L15.29902,22.47532 L15.8014694,22.279923 L16.3853202,22.47532 C16.6081853,22.3748078 16.8285989,22.3748078 17.0465609,22.47532 C17.264523,22.5758321 17.5658366,22.6260882 17.9505018,22.6260882 C18.6157541,22.5869754 19.011061,22.5367193 19.1364227,22.47532 C19.2617843,22.4139207 19.5604235,22.3487883 20.0323403,22.279923 L20.4625814,21.8745871 C20.8091366,22.0939978 21.0646515,22.0939978 21.2291259,21.8745871 C21.3936004,21.6551764 21.7558119,21.3625546 22.3157604,20.9967215 L22.5302123,20.5970687 L22.3157604,19.9560529 L22.7928031,19.6790873 L23.198139,19.2520221 C23.071886,18.983804 23.071886,18.8238982 23.198139,18.772305 C23.3243921,18.7207117 23.3875187,18.5317778 23.3875187,18.2055033 L24.2364675,17.5125043 L24.5072486,17.2423918 L24.5072486,16.83271 L24.5072486,16.3122086 L24.8094537,15.9167345 C25.0050178,15.6139723 25.1448099,15.4600839 25.2288301,15.4550694 C25.3128502,15.450055 25.3548603,15.3232447 25.3548603,15.0746387 L25.617284,14.447162 L25.617284,13.7132116 L25.2288301,13.4855549 L25.2288301,12.6522344 L25.2288301,11.8668857 L25.3548603,11.3126202 L25.3548603,10.3239349 L24.5072486,10.3239349 L23.9805627,9.74576711 L23.7460529,7.91298028 L23.198139,6.03172028 C22.8314145,5.85053095 22.6963026,5.66973165 22.7928031,5.48932235 C22.937554,5.21870841 22.9213406,4.85432397 22.937554,4.63886914 C22.948363,4.49523259 22.7410984,4.23342181 22.3157604,3.85343682 C22.4869208,4.046438 22.2171426,4.046438 21.5064258,3.85343682 C20.795709,3.66043565 20.3043472,3.56393506 20.0323403,3.56393506 L19.1364227,3.56393506 L18.8226843,3.22144713 L18.8226843,2.6783806 L17.9505018,2.1316368 L16.0302961,1.28268793 L14.2737291,0.714549087 L12.0392837,0.537037037 L10.7395344,1.28268793 L9.89794009,1.70975318 L9.12136666,2.6783806 Z" id="path-2"></path>
        <filter x="-13.7%" y="-11.3%" width="127.3%" height="131.7%" filterUnits="objectBoundingBox" id="filter-3">
            <feOffset dx="0" dy="1" in="SourceAlpha" result="shadowOffsetOuter1"></feOffset>
            <feGaussianBlur stdDeviation="1" in="shadowOffsetOuter1" result="shadowBlurOuter1"></feGaussianBlur>
            <feColorMatrix values="0 0 0 0 0   0 0 0 0 0   0 0 0 0 0  0 0 0 0.5 0" type="matrix" in="shadowBlurOuter1"></feColorMatrix>
        </filter>
        <linearGradient x1="79.3220051%" y1="87.175598%" x2="19.0780117%" y2="64.5101006%" id="linearGradient-4">
            <stop stop-color="#B1D4FF" offset="0%"></stop>
            <stop stop-color="#FFFFFF" offset="100%"></stop>
        </linearGradient>
    </defs>
    <g id="数据大屏素材" stroke="none" stroke-width="1" fill="none" fill-rule="evenodd">
        <g id="素材" transform="translate(-379.000000, -78.000000)">
            <g id="南极" transform="translate(381.000000, 43.000000)">
                <g id="白" transform="translate(0.000000, 36.000000)">
                    <g id="Path-17">
                        <use fill="black" fill-opacity="1" filter="url(#filter-3)" xlink:href="#path-2"></use>
                        <use fill="url(#linearGradient-1)" fill-rule="evenodd" xlink:href="#path-2"></use>
                    </g>
                    <path d="M9.12136666,2.14134356 L8.61724581,4.1018321 L8.86930624,4.7334875 L8.61724581,5.73236887 L8.61724581,6.40096416 L8.10978199,6.80964303 L5.01034137,7.37594324 L4.18997495,6.80964303 L2.71237936,6.40096416 L1.34844497,5.49468324 L0.823931964,5.17910626 L0.573877326,5.49468324 C0.270557929,4.98131349 0.129707188,4.51702978 0.151325103,4.1018321 C0.183751974,3.47903559 -0.226932683,4.98872376 0.183751974,5.73236887 C0.457541745,6.22813227 0.845772744,6.7759904 1.34844497,7.37594324 L1.94516627,7.37594324 L3.1469663,7.6233235 C3.18329331,7.90736506 3.20686129,8.09680039 3.21767025,8.19162949 C3.23388369,8.33387314 2.91145361,7.62115056 2.18619487,7.6233235 C1.70268904,7.62477212 1.42343907,7.62549643 1.34844497,7.62549643 C1.06106043,8.07267525 1.06106043,8.26138627 1.34844497,8.19162949 C1.63582951,8.12187272 1.91507948,8.12187272 2.18619487,8.19162949 L2.3732344,8.42597214 L2.3732344,8.79670823 L2.71237936,9.20873008 L2.71237936,8.42597214 L3.1469663,8.42597214 L3.50065321,8.79670823 L2.71237936,9.43822541 L3.1469663,10.1044806 L2.71237936,10.7755831 L2.71237936,11.3298486 L3.1469663,12.4915329 L2.71237936,12.7232012 L2.71237936,13.429405 C2.9768088,13.6159431 3.14523909,13.6853098 3.21767025,13.6375053 C3.29010141,13.5897007 3.38442906,13.520334 3.50065321,13.429405 L4.18997495,13.429405 L4.18997495,14.9180324 L4.56068333,16.9754673 L5.68144389,17.2434068 L6.27064349,17.6684663 C6.51267499,17.7522636 6.66773338,17.8294863 6.73581867,17.9001345 C6.80390395,17.9707828 7.16572544,18.0824939 7.82128312,18.2352679 C7.42246603,18.3951736 7.51863232,18.3951736 8.10978199,18.2352679 C8.70093166,18.0753622 9.11406783,17.9954094 9.34919051,17.9954094 L9.89794009,18.2352679 L10.1175736,17.9954094 L11.4454039,18.2352679 L12.8064967,18.4931786 L13.2591358,18.7149851 L13.8235973,18.7149851 L14.2737291,17.9954094 L14.9478403,19.4190159 L14.2737291,20.7742586 L14.2737291,21.3375501 L14.5114147,21.742886 L14.9478403,21.9382829 L15.29902,21.9382829 L15.8014694,21.742886 L16.3853202,21.9382829 C16.6081853,21.8377708 16.8285989,21.8377708 17.0465609,21.9382829 C17.264523,22.0387951 17.5658366,22.0890512 17.9505018,22.0890512 C18.6157541,22.0499384 19.011061,21.9996823 19.1364227,21.9382829 C19.2617843,21.8768836 19.5604235,21.8117513 20.0323403,21.742886 L20.4625814,21.3375501 C20.8091366,21.5569608 21.0646515,21.5569608 21.2291259,21.3375501 C21.3936004,21.1181394 21.7558119,20.8255175 22.3157604,20.4596845 L22.5302123,20.0600316 L22.3157604,19.4190159 L22.7928031,19.1420503 L23.198139,18.7149851 C23.071886,18.4467669 23.071886,18.2868612 23.198139,18.2352679 C23.3243921,18.1836747 23.3875187,17.9947408 23.3875187,17.6684663 L24.2364675,16.9754673 L24.5072486,16.7053548 L24.5072486,16.295673 L24.5072486,15.7751716 L24.8094537,15.3796975 C25.0050178,15.0769352 25.1448099,14.9230469 25.2288301,14.9180324 C25.3128502,14.9130179 25.3548603,14.7862077 25.3548603,14.5376017 L25.617284,13.910125 L25.617284,13.1761745 L25.2288301,12.9485178 L25.2288301,12.1151974 L25.2288301,11.3298486 L25.3548603,10.7755831 L25.3548603,9.78689785 L24.5072486,9.78689785 L23.9805627,9.20873008 L23.7460529,7.37594324 L23.198139,5.49468324 C22.8314145,5.31349392 22.6963026,5.13269461 22.7928031,4.95228531 C22.937554,4.68167137 22.9213406,4.31728694 22.937554,4.1018321 C22.948363,3.95819555 22.7410984,3.69638478 22.3157604,3.31639979 C22.4869208,3.50940096 22.2171426,3.50940096 21.5064258,3.31639979 C20.795709,3.12339861 20.3043472,3.02689803 20.0323403,3.02689803 L19.1364227,3.02689803 L18.8226843,2.68441009 L18.8226843,2.14134356 L17.9505018,1.59459977 L16.0302961,0.745650897 L14.2737291,0.177512049 L12.0392837,-1.0658141e-13 L10.7395344,0.745650897 L9.89794009,1.17271614 L9.12136666,2.14134356 Z" id="Path-17" fill="url(#linearGradient-4)"></path>
                </g>
            </g>
        </g>
    </g>
</svg>