<?xml version="1.0" encoding="UTF-8"?>
<svg width="25px" height="35px" viewBox="0 0 25 35" version="1.1" xmlns="http://www.w3.org/2000/svg" xmlns:xlink="http://www.w3.org/1999/xlink">
    <title>白</title>
    <defs>
        <linearGradient x1="63.8066596%" y1="100%" x2="35.4399668%" y2="69.515625%" id="linearGradient-1">
            <stop stop-color="#6C8FBA" offset="0%"></stop>
            <stop stop-color="#A8C5E8" offset="100%"></stop>
        </linearGradient>
        <path d="M14.7719483,5.98123408 L13.2529374,5.98123408 L14.0124429,4.71385655 L13.2529374,3.63879618 L11.6908209,3.1510032 L10.9499208,3.1510032 L10.1368097,2.60868351 L8.91659044,1.76830905 L7.85847756,0.976566514 C7.68359911,0.928917048 7.45161499,0.928917048 7.16252519,0.976566514 C6.87343539,1.02421598 6.46067804,1.02421598 5.92425313,0.976566514 L4.65024397,0.537037037 L3.04170608,0.976566514 L1.67706469,1.76830905 L1.67706469,3.25913556 L1.67706469,4.71385655 L0.505477319,5.19428105 L0.505477319,6.55892245 L0.505477319,7.2405063 L-3.19744231e-14,7.63361439 L0.505477319,8.3955146 L1.67706469,9.86699887 L2.55501837,11.9176452 L3.47939344,12.5933343 L4.65024397,13.0431796 L5.28135377,14.2866096 L5.28135377,16.6109947 L5.28135377,17.9196357 L4.65024397,19.24854 C5.32912604,20.1855643 5.53949598,20.8035337 5.28135377,21.1024481 C5.02321156,21.4013625 4.81284163,22.2337545 4.65024397,23.5996239 C4.6040682,24.2396987 4.6040682,24.6642456 4.65024397,24.8732647 C4.71950762,25.1867932 4.63477017,25.3662156 4.71950762,26.0396941 C4.77599926,26.4886798 4.96328131,27.1153685 5.28135377,27.9197603 L5.92425313,29.3389284 L7.16252519,30.402936 L7.85847756,29.8786691 C7.05654197,29.6075092 6.66748654,29.0865581 6.69131128,28.3158157 C6.71513601,27.5450734 6.94669031,27.1597022 7.38597417,27.1597022 C6.78532072,26.5815226 6.71083773,26.0335537 7.16252519,25.5157956 C7.61421265,24.9980375 7.84619677,24.3593136 7.85847756,23.5996239 L8.91659044,22.8056709 C9.61512178,22.550476 10.0218615,22.1455784 10.1368097,21.5909779 C10.2517579,21.0363774 10.2517579,20.5682337 10.1368097,20.1865468 C10.9384997,21.1058867 11.6289257,21.1058867 12.2080878,20.1865468 C12.7872499,19.2672068 13.3887015,18.5115698 14.0124429,17.9196357 L14.0124429,16.6109947 L16.7511205,15.4699865 L17.8180755,14.2866096 L17.8180755,12.5933343 L19.066295,11.2857985 C20.0858462,10.3094757 20.5592707,9.49611901 20.4865684,8.84572837 C20.4138661,8.19533772 19.9404416,7.8701424 19.066295,7.8701424 L17.8180755,7.2405063 C16.9635781,6.73208159 16.3978021,6.50488697 16.1207475,6.55892245 C15.8436929,6.61295792 15.3940932,6.42039514 14.7719483,5.98123408 Z" id="path-2"></path>
        <filter x="-17.1%" y="-8.4%" width="134.2%" height="123.4%" filterUnits="objectBoundingBox" id="filter-3">
            <feOffset dx="0" dy="1" in="SourceAlpha" result="shadowOffsetOuter1"></feOffset>
            <feGaussianBlur stdDeviation="1" in="shadowOffsetOuter1" result="shadowBlurOuter1"></feGaussianBlur>
            <feColorMatrix values="0 0 0 0 0   0 0 0 0 0   0 0 0 0 0  0 0 0 0.5 0" type="matrix" in="shadowBlurOuter1"></feColorMatrix>
        </filter>
        <linearGradient x1="63.8066596%" y1="100%" x2="35.4399668%" y2="69.515625%" id="linearGradient-4">
            <stop stop-color="#B1D4FF" offset="0%"></stop>
            <stop stop-color="#FFFFFF" offset="100%"></stop>
        </linearGradient>
    </defs>
    <g id="数据大屏素材" stroke="none" stroke-width="1" fill="none" fill-rule="evenodd">
        <g id="素材" transform="translate(-238.000000, -77.000000)">
            <g id="南美" transform="translate(240.000000, 40.000000)">
                <g id="白" transform="translate(0.000000, 38.000000)">
                    <g id="Path-12">
                        <use fill="black" fill-opacity="1" filter="url(#filter-3)" xlink:href="#path-2"></use>
                        <use fill="url(#linearGradient-1)" fill-rule="evenodd" xlink:href="#path-2"></use>
                    </g>
                    <path d="M14.7719483,5.44419705 L13.2529374,5.44419705 L14.0124429,4.17681951 L13.2529374,3.10175915 L11.6908209,2.61396617 L10.9499208,2.61396617 L10.1368097,2.07164648 L8.91659044,1.23127201 L7.85847756,0.439529477 C7.68359911,0.391880011 7.45161499,0.391880011 7.16252519,0.439529477 C6.87343539,0.487178942 6.46067804,0.487178942 5.92425313,0.439529477 L4.65024397,-1.04805054e-13 L3.04170608,0.439529477 L1.67706469,1.23127201 L1.67706469,2.72209852 L1.67706469,4.17681951 L0.505477319,4.65724402 L0.505477319,6.02188541 L0.505477319,6.70346926 L-3.19744231e-14,7.09657735 L0.505477319,7.85847756 L1.67706469,9.32996183 L2.55501837,11.3806082 L3.47939344,12.0562972 L4.65024397,12.5061426 L5.28135377,13.7495726 L5.28135377,16.0739577 L5.28135377,17.3825987 L4.65024397,18.711503 C5.32912604,19.6485273 5.53949598,20.2664966 5.28135377,20.565411 C5.02321156,20.8643255 4.81284163,21.6967174 4.65024397,23.0625869 C4.6040682,23.7026617 4.6040682,24.1272086 4.65024397,24.3362276 C4.71950762,24.6497562 4.63477017,24.8291786 4.71950762,25.5026571 C4.77599926,25.9516428 4.96328131,26.5783315 5.28135377,27.3827232 L5.92425313,28.8018913 L7.16252519,29.865899 L7.85847756,29.3416321 C7.05654197,29.0704722 6.66748654,28.5495211 6.69131128,27.7787787 C6.71513601,27.0080363 6.94669031,26.6226651 7.38597417,26.6226651 C6.78532072,26.0444855 6.71083773,25.4965167 7.16252519,24.9787586 C7.61421265,24.4610005 7.84619677,23.8222766 7.85847756,23.0625869 L8.91659044,22.2686338 C9.61512178,22.013439 10.0218615,21.6085414 10.1368097,21.0539409 C10.2517579,20.4993404 10.2517579,20.0311967 10.1368097,19.6495097 C10.9384997,20.5688497 11.6289257,20.5688497 12.2080878,19.6495097 C12.7872499,18.7301698 13.3887015,17.9745328 14.0124429,17.3825987 L14.0124429,16.0739577 L16.7511205,14.9329495 L17.8180755,13.7495726 L17.8180755,12.0562972 L19.066295,10.7487615 C20.0858462,9.7724387 20.5592707,8.95908197 20.4865684,8.30869133 C20.4138661,7.65830069 19.9404416,7.33310537 19.066295,7.33310537 L17.8180755,6.70346926 C16.9635781,6.19504455 16.3978021,5.96784993 16.1207475,6.02188541 C15.8436929,6.07592089 15.3940932,5.8833581 14.7719483,5.44419705 Z" id="Path-12" fill="url(#linearGradient-4)"></path>
                </g>
            </g>
        </g>
    </g>
</svg>