<?xml version="1.0" encoding="UTF-8"?>
<svg width="36px" height="30px" viewBox="0 0 36 30" version="1.1" xmlns="http://www.w3.org/2000/svg" xmlns:xlink="http://www.w3.org/1999/xlink">
    <title>白</title>
    <defs>
        <linearGradient x1="79.3220051%" y1="83.5981341%" x2="19.0780117%" y2="63.1137717%" id="linearGradient-1">
            <stop stop-color="#6C8FBA" offset="0%"></stop>
            <stop stop-color="#A8C5E8" offset="100%"></stop>
        </linearGradient>
        <path d="M18.6605255,8.99000754 L19.3263656,10.8768855 L20.1688796,11.8413046 L21.1001722,13.3512045 L21.8936592,13.9452707 L23.4252017,14.5907932 L25.7676777,14.5907932 L26.0530061,15.6552539 L25.7676777,16.2930469 L24.4265014,17.9266186 L24.8706156,18.8208098 L24.5576818,19.120493 L23.660178,19.120493 L23.660178,18.3875168 L22.9366981,18.0043552 L22.9366981,17.6410693 L21.8936592,18.8208098 L21.6083307,19.9718407 L21.3267566,20.289633 L21.1001722,22.07139 L21.8936592,22.3553934 C22.5204101,22.2738289 22.8680898,22.1791611 22.9366981,22.07139 C23.0053065,21.9636188 23.5456344,21.6057804 24.5576818,20.9978748 L24.5576818,20.9978748 L25.7676777,20.9978748 C26.732612,21.1532006 27.3487625,21.270468 27.6161291,21.3496768 C27.8834957,21.4288856 28.1391576,21.2343234 28.3831149,20.7659902 L28.3831149,20.7659902 L29.8570175,19.9718407 L31.2507543,21.7977661 L31.2507543,22.7200043 L29.4486798,24.0795105 C28.8607972,24.140463 28.3901819,24.1557011 28.036834,24.1252249 C27.683486,24.0947486 27.3350702,24.0947486 26.9915866,24.1252249 L26.9915866,24.1252249 L26.0530061,24.7192911 L25.2690154,25.4412251 L24.5576818,25.0613761 L23.660178,25.8981481 L22.5210726,25.4412251 L21.1001722,24.1252249 L20.7015516,23.2891153 L19.0481041,23.2891153 L18.6605255,23.7522219 L18.6605255,24.1252249 L19.0481041,24.7192911 L19.0481041,25.8981481 L18.6605255,25.8981481 L18.2541754,25.0613761 C17.5218618,24.4112158 17.1458407,23.9748311 17.1261121,23.7522219 C17.0965192,23.4183081 16.6027155,22.9030827 16.5517009,22.7200043 C16.5176911,22.597952 16.329975,22.2905393 15.9885526,21.7977661 L15.9885526,21.7977661 L15.0987783,20.7659902 L12.9126588,19.9718407 L12.9126588,21.3496768 L14.5985701,22.3553934 L15.3964739,23.7522219 L15.3964739,24.7192911 L14.5985701,24.7192911 L14.5985701,24.1252249 L13.7487683,23.2891153 L11.9718699,21.7977661 L11.2406605,20.7659902 L9.79679247,21.3496768 L8.61484361,20.9978748 L6.99584752,22.3553934 L6.51485264,22.9967199 L5.63877059,23.2891153 L5.20393178,24.1252249 C4.66198438,24.601214 4.35427722,24.9132644 4.28081029,25.0613761 C4.20734336,25.2094877 4.11554651,25.3361041 4.00541974,25.4412251 L4.00541974,25.4412251 L2.20886631,25.4412251 L1.68546967,24.7192911 L0.48607426,24.1252249 L6.03961325e-14,22.9967199 L0.48607426,22.3553934 L0.48607426,20.7659902 L1.22854662,19.4769327 L2.51274554,19.9718407 L4.6584509,20.7659902 L5.61491961,20.289633 C5.64672092,19.9345183 5.65467125,19.6636182 5.63877059,19.4769327 C5.62286993,19.2902472 5.62286993,18.9570696 5.63877059,18.4773997 L5.63877059,18.4773997 L5.20393178,17.6410693 L4.6407835,16.782213 L6.51485264,16.782213 L7.42759454,16.2930469 C7.67125739,15.9379323 7.92316502,15.7253346 8.18331744,15.6552539 C8.44346986,15.5851732 8.69184402,15.4720283 8.92843991,15.315819 L8.92843991,15.315819 L9.47568753,14.5907932 L10.2989882,13.9452707 L11.2406605,13.9452707 L11.6907374,13.3512045 L11.2406605,11.8413046 L11.9718699,10.8768855 L11.8029254,12.5232661 L12.1408144,13.3512045 L12.9126588,13.6705427 L14.0402804,13.3512045 L16.5517009,13.3512045 L16.5517009,11.2907443 L17.1261121,10.8768855 L17.7327664,11.2907443 C17.7327664,10.7727951 17.6807212,10.4254835 17.5766307,10.2488096 C17.4725403,10.0721356 17.4725403,9.65253493 17.5766307,8.99000754 L17.5766307,8.99000754 L18.6605255,8.99000754 Z M6.26198802,9.55492256 L7.16125853,10.1454553 L7.16125853,11.8128159 L8.01503549,14.1321034 L8.01503549,15.4377241 L4.37025149,15.4377241 L5.78585167,14.7716632 L5.08357264,14.1321034 L6.26198802,13.5349454 L6.26198802,12.4815269 L5.08357264,12.4815269 L4.37025149,13.5349454 L3.00588676,13.5349454 L3.58493569,11.8128159 L5.78585167,11.8128159 L5.78585167,10.975823 L6.26198802,9.55492256 Z M17.6181491,0.280864198 L16.1822314,2.02551965 L16.1822314,3.3982764 L16.7294791,4.81255153 L15.1500138,7.0311349 L15.1500138,10.3044619 L14.2045872,11.7249206 L13.3015624,12.4938941 L12.3267637,10.3044619 L10.7910252,10.3044619 L10.7910252,7.75593986 L11.776866,7.0311349 L14.0369678,3.9313901 L14.0369678,2.02551965 L17.6181491,0.280864198 Z M3.03857144,1.36520069 L3.89455682,1.92061948 L4.90204014,2.87686734 L4.66110101,3.63811131 L3.89455682,3.63811131 L3.03857144,4.066104 L2.1094872,3.63811131 C1.87583588,3.79682343 1.87583588,3.54307544 2.1094872,2.87686734 C2.34313853,2.21065925 2.65283327,1.70677036 3.03857144,1.36520069 Z" id="path-2"></path>
        <filter x="-11.2%" y="-9.8%" width="122.4%" height="127.3%" filterUnits="objectBoundingBox" id="filter-3">
            <feOffset dx="0" dy="1" in="SourceAlpha" result="shadowOffsetOuter1"></feOffset>
            <feGaussianBlur stdDeviation="1" in="shadowOffsetOuter1" result="shadowBlurOuter1"></feGaussianBlur>
            <feColorMatrix values="0 0 0 0 0   0 0 0 0 0   0 0 0 0 0  0 0 0 0.5 0" type="matrix" in="shadowBlurOuter1"></feColorMatrix>
        </filter>
        <linearGradient x1="79.3220051%" y1="83.5981341%" x2="19.0780117%" y2="63.1137717%" id="linearGradient-4">
            <stop stop-color="#B1D4FF" offset="0%"></stop>
            <stop stop-color="#FFFFFF" offset="100%"></stop>
        </linearGradient>
    </defs>
    <g id="数据大屏素材" stroke="none" stroke-width="1" fill="none" fill-rule="evenodd">
        <g id="素材" transform="translate(-118.000000, -72.000000)">
            <g id="欧洲" transform="translate(120.000000, 38.000000)">
                <g id="白" transform="translate(0.000000, 35.000000)">
                    <g id="Combined-Shape">
                        <use fill="black" fill-opacity="1" filter="url(#filter-3)" xlink:href="#path-2"></use>
                        <use fill="url(#linearGradient-1)" fill-rule="evenodd" xlink:href="#path-2"></use>
                    </g>
                    <path d="M18.6605255,8.70914335 L19.3263656,10.5960213 L20.1688796,11.5604404 L21.1001722,13.0703403 L21.8936592,13.6644065 L23.4252017,14.309929 L25.7676777,14.309929 L26.0530061,15.3743897 L25.7676777,16.0121827 L24.4265014,17.6457544 L24.8706156,18.5399456 L24.5576818,18.8396288 L23.660178,18.8396288 L23.660178,18.1066526 L22.9366981,17.723491 L22.9366981,17.3602051 L21.8936592,18.5399456 L21.6083307,19.6909765 L21.3267566,20.0087688 L21.1001722,21.7905258 L21.8936592,22.0745292 C22.5204101,21.9929647 22.8680898,21.8982969 22.9366981,21.7905258 C23.0053065,21.6827546 23.5456344,21.3249162 24.5576818,20.7170106 L24.5576818,20.7170106 L25.7676777,20.7170106 C26.732612,20.8723364 27.3487625,20.9896038 27.6161291,21.0688126 C27.8834957,21.1480214 28.1391576,20.9534592 28.3831149,20.485126 L28.3831149,20.485126 L29.8570175,19.6909765 L31.2507543,21.516902 L31.2507543,22.4391401 L29.4486798,23.7986463 C28.8607972,23.8595988 28.3901819,23.8748369 28.036834,23.8443607 C27.683486,23.8138844 27.3350702,23.8138844 26.9915866,23.8443607 L26.9915866,23.8443607 L26.0530061,24.4384269 L25.2690154,25.1603609 L24.5576818,24.7805119 L23.660178,25.617284 L22.5210726,25.1603609 L21.1001722,23.8443607 L20.7015516,23.0082511 L19.0481041,23.0082511 L18.6605255,23.4713577 L18.6605255,23.8443607 L19.0481041,24.4384269 L19.0481041,25.617284 L18.6605255,25.617284 L18.2541754,24.7805119 C17.5218618,24.1303517 17.1458407,23.6939669 17.1261121,23.4713577 C17.0965192,23.1374439 16.6027155,22.6222185 16.5517009,22.4391401 C16.5176911,22.3170878 16.329975,22.0096751 15.9885526,21.516902 L15.9885526,21.516902 L15.0987783,20.485126 L12.9126588,19.6909765 L12.9126588,21.0688126 L14.5985701,22.0745292 L15.3964739,23.4713577 L15.3964739,24.4384269 L14.5985701,24.4384269 L14.5985701,23.8443607 L13.7487683,23.0082511 L11.9718699,21.516902 L11.2406605,20.485126 L9.79679247,21.0688126 L8.61484361,20.7170106 L6.99584752,22.0745292 L6.51485264,22.7158557 L5.63877059,23.0082511 L5.20393178,23.8443607 C4.66198438,24.3203498 4.35427722,24.6324002 4.28081029,24.7805119 C4.20734336,24.9286235 4.11554651,25.0552399 4.00541974,25.1603609 L4.00541974,25.1603609 L2.20886631,25.1603609 L1.68546967,24.4384269 L0.48607426,23.8443607 L6.03961325e-14,22.7158557 L0.48607426,22.0745292 L0.48607426,20.485126 L1.22854662,19.1960685 L2.51274554,19.6909765 L4.6584509,20.485126 L5.61491961,20.0087688 C5.64672092,19.6536541 5.65467125,19.382754 5.63877059,19.1960685 C5.62286993,19.009383 5.62286993,18.6762054 5.63877059,18.1965355 L5.63877059,18.1965355 L5.20393178,17.3602051 L4.6407835,16.5013488 L6.51485264,16.5013488 L7.42759454,16.0121827 C7.67125739,15.6570681 7.92316502,15.4444704 8.18331744,15.3743897 C8.44346986,15.304309 8.69184402,15.1911641 8.92843991,15.0349548 L8.92843991,15.0349548 L9.47568753,14.309929 L10.2989882,13.6644065 L11.2406605,13.6644065 L11.6907374,13.0703403 L11.2406605,11.5604404 L11.9718699,10.5960213 L11.8029254,12.2424019 L12.1408144,13.0703403 L12.9126588,13.3896785 L14.0402804,13.0703403 L16.5517009,13.0703403 L16.5517009,11.0098801 L17.1261121,10.5960213 L17.7327664,11.0098801 C17.7327664,10.4919309 17.6807212,10.1446194 17.5766307,9.96794538 C17.4725403,9.79127141 17.4725403,9.37167073 17.5766307,8.70914335 L17.5766307,8.70914335 L18.6605255,8.70914335 Z M6.26198802,9.27405836 L7.16125853,9.86459111 L7.16125853,11.5319517 L8.01503549,13.8512392 L8.01503549,15.1568599 L4.37025149,15.1568599 L5.78585167,14.490799 L5.08357264,13.8512392 L6.26198802,13.2540812 L6.26198802,12.2006627 L5.08357264,12.2006627 L4.37025149,13.2540812 L3.00588676,13.2540812 L3.58493569,11.5319517 L5.78585167,11.5319517 L5.78585167,10.6949588 L6.26198802,9.27405836 Z M17.6181491,-9.41469125e-14 L16.1822314,1.74465545 L16.1822314,3.1174122 L16.7294791,4.53168733 L15.1500138,6.7502707 L15.1500138,10.0235977 L14.2045872,11.4440564 L13.3015624,12.2130299 L12.3267637,10.0235977 L10.7910252,10.0235977 L10.7910252,7.47507567 L11.776866,6.7502707 L14.0369678,3.6505259 L14.0369678,1.74465545 L17.6181491,-9.41469125e-14 Z M3.03857144,1.08433649 L3.89455682,1.63975528 L4.90204014,2.59600315 L4.66110101,3.35724711 L3.89455682,3.35724711 L3.03857144,3.78523981 L2.1094872,3.35724711 C1.87583588,3.51595923 1.87583588,3.26221124 2.1094872,2.59600315 C2.34313853,1.92979505 2.65283327,1.42590617 3.03857144,1.08433649 Z" id="Combined-Shape" fill="url(#linearGradient-4)"></path>
                </g>
            </g>
        </g>
    </g>
</svg>