<?xml version="1.0" encoding="UTF-8"?>
<svg width="31px" height="31px" viewBox="0 0 31 31" version="1.1" xmlns="http://www.w3.org/2000/svg" xmlns:xlink="http://www.w3.org/1999/xlink">
    <title>深</title>
    <defs>
        <linearGradient x1="0%" y1="21.8932703%" x2="74.0624934%" y2="102.395289%" id="linearGradient-1">
            <stop stop-color="#9FA1FF" offset="0%"></stop>
            <stop stop-color="#3134B6" offset="100%"></stop>
        </linearGradient>
        <path d="M0.51777925,8.99743938 L3.15990514,9.59506309 L4.34823963,9.59506309 L5.34059225,11.2355039 L7.35329491,7.66151361 L8.4711174,8.37320084 L9.02207877,6.63528758 C9.67857769,5.32666793 10.0910498,4.5635945 10.2594951,4.3460673 C10.4279405,4.12854011 10.8526254,3.59889364 11.5335501,2.75712791 L12.0955722,2.07067291 L13.9534249,1.36313344 L15.3864775,2.07067291 L16.1901069,2.07067291 L16.9788734,1.36313344 L19.5470308,1.36313344 L21.6195304,1.36313344 L22.8825247,0.537037037 L23.9885951,0.537037037 C24.7480969,0.927848612 25.1501996,1.20321408 25.1949033,1.36313344 C25.239607,1.5230528 25.0542249,1.75889929 24.6387572,2.07067291 L25.1949033,2.75712791 L26.1250394,3.58115043 L26.1250394,4.77017621 L24.6387572,3.58115043 L24.6387572,2.75712791 L23.381639,2.07067291 L23.381639,2.75712791 L22.4497746,4.3460673 L21.6195304,4.77017621 L21.6195304,5.88627047 L22.4497746,5.88627047 L23.381639,5.88627047 L24.6387572,8.37320084 L23.9885951,8.99743938 L22.8825247,10.5141385 L22.4497746,10.5141385 L21.6195304,11.2355039 L21.6195304,10.5141385 L20.8224684,11.7626156 L22.0920299,11.7626156 L22.0920299,12.7981741 L23.381639,13.9588568 L22.4497746,15.4371892 L22.0920299,16.3714731 L20.8224684,17.3385935 L19.5470308,17.3385935 L20.1702324,19.0319183 L20.8224684,19.6537373 L20.1702324,20.5697019 L19.5470308,21.5264529 L18.9110403,20.5697019 L18.3262055,20.5697019 L18.3262055,21.5264529 L18.3262055,22.0483799 L18.9110403,22.7293046 L18.9110403,23.2374057 L20.1702324,23.608285 L20.8224684,23.2374057 L21.6195304,22.7293046 L22.4497746,22.0483799 L23.381639,21.5264529 L23.381639,22.0483799 L23.9885951,22.7293046 L25.1949033,23.608285 L24.6387572,24.2522254 C24.4030259,24.1904698 24.1863052,24.1904698 23.9885951,24.2522254 C23.790885,24.313981 23.5885663,23.9757078 23.381639,23.2374057 L22.0920299,24.2522254 L20.8224684,24.2522254 L20.1702324,24.7271444 L20.1702324,25.660737 L22.4497746,25.660737 L21.6195304,26.154321 L18.9110403,25.660737 L17.6089879,23.2374057 L16.9788734,22.7293046 L18.9110403,24.2522254 L17.6089879,22.0483799 L17.6089879,19.6537373 L16.9788734,18.6665694 L15.3864775,17.3385935 L13.3214093,19.0319183 C12.8210277,19.549928 12.5552827,19.9044466 12.5241745,20.0954742 C12.4930662,20.2865018 12.3501988,20.7634947 12.0955722,21.5264529 L11.5335501,22.0483799 L10.8502059,20.5697019 L10.2594951,19.0319183 L9.72581612,17.3385935 L8.4711174,16.8813025 L6.75843637,15.99852 L5.34059225,15.4371892 L4.92650711,15.0697664 L4.34823963,14.5060161 L4.92650711,16.3714731 L6.75843637,16.8813025 L6.22026394,17.9669798 L4.34823963,17.9669798 L3.15990514,19.0319183 L1.64735374,19.0319183 L0.51777925,15.0697664 L0.51777925,12.2879991 L2.66453526e-14,10.5141385 L0.51777925,8.99743938 Z" id="path-2"></path>
        <filter x="-13.4%" y="-9.8%" width="126.8%" height="127.3%" filterUnits="objectBoundingBox" id="filter-3">
            <feOffset dx="0" dy="1" in="SourceAlpha" result="shadowOffsetOuter1"></feOffset>
            <feGaussianBlur stdDeviation="1" in="shadowOffsetOuter1" result="shadowBlurOuter1"></feGaussianBlur>
            <feColorMatrix values="0 0 0 0 0   0 0 0 0 0   0 0 0 0 0  0 0 0 0.5 0" type="matrix" in="shadowBlurOuter1"></feColorMatrix>
        </filter>
        <linearGradient x1="0%" y1="50%" x2="100%" y2="98.0753284%" id="linearGradient-4">
            <stop stop-color="#464AF1" offset="0%"></stop>
            <stop stop-color="#2124B1" offset="100%"></stop>
        </linearGradient>
    </defs>
    <g id="数据大屏素材" stroke="none" stroke-width="1" fill="none" fill-rule="evenodd">
        <g id="素材" transform="translate(-57.000000, -39.000000)">
            <g id="深" transform="translate(59.000000, 40.000000)">
                <g id="Path-4">
                    <use fill="black" fill-opacity="1" filter="url(#filter-3)" xlink:href="#path-2"></use>
                    <use fill="url(#linearGradient-1)" fill-rule="evenodd" xlink:href="#path-2"></use>
                </g>
                <path d="M0.51777925,8.46040234 L3.15990514,9.05802606 L4.34823963,9.05802606 L5.34059225,10.6984669 L7.35329491,7.12447657 L8.4711174,7.83616381 L9.02207877,6.09825054 C9.67857769,4.78963089 10.0910498,4.02655746 10.2594951,3.80903027 C10.4279405,3.59150307 10.8526254,3.0618566 11.5335501,2.22009087 L12.0955722,1.53363587 L13.9534249,0.826096401 L15.3864775,1.53363587 L16.1901069,1.53363587 L16.9788734,0.826096401 L19.5470308,0.826096401 L21.6195304,0.826096401 L22.8825247,-9.41469125e-14 L23.9885951,-9.41469125e-14 C24.7480969,0.390811575 25.1501996,0.666177042 25.1949033,0.826096401 C25.239607,0.98601576 25.0542249,1.22186225 24.6387572,1.53363587 L25.1949033,2.22009087 L26.1250394,3.04411339 L26.1250394,4.23313917 L24.6387572,3.04411339 L24.6387572,2.22009087 L23.381639,1.53363587 L23.381639,2.22009087 L22.4497746,3.80903027 L21.6195304,4.23313917 L21.6195304,5.34923343 L22.4497746,5.34923343 L23.381639,5.34923343 L24.6387572,7.83616381 L23.9885951,8.46040234 L22.8825247,9.97710151 L22.4497746,9.97710151 L21.6195304,10.6984669 L21.6195304,9.97710151 L20.8224684,11.2255786 L22.0920299,11.2255786 L22.0920299,12.2611371 L23.381639,13.4218198 L22.4497746,14.9001522 L22.0920299,15.8344361 L20.8224684,16.8015565 L19.5470308,16.8015565 L20.1702324,18.4948813 L20.8224684,19.1167003 L20.1702324,20.0326649 L19.5470308,20.9894159 L18.9110403,20.0326649 L18.3262055,20.0326649 L18.3262055,20.9894159 L18.3262055,21.5113429 L18.9110403,22.1922675 L18.9110403,22.7003687 L20.1702324,23.0712479 L20.8224684,22.7003687 L21.6195304,22.1922675 L22.4497746,21.5113429 L23.381639,20.9894159 L23.381639,21.5113429 L23.9885951,22.1922675 L25.1949033,23.0712479 L24.6387572,23.7151883 C24.4030259,23.6534327 24.1863052,23.6534327 23.9885951,23.7151883 C23.790885,23.7769439 23.5885663,23.4386707 23.381639,22.7003687 L22.0920299,23.7151883 L20.8224684,23.7151883 L20.1702324,24.1901074 L20.1702324,25.1237 L22.4497746,25.1237 L21.6195304,25.617284 L18.9110403,25.1237 L17.6089879,22.7003687 L16.9788734,22.1922675 L18.9110403,23.7151883 L17.6089879,21.5113429 L17.6089879,19.1167003 L16.9788734,18.1295323 L15.3864775,16.8015565 L13.3214093,18.4948813 C12.8210277,19.0128909 12.5552827,19.3674096 12.5241745,19.5584372 C12.4930662,19.7494648 12.3501988,20.2264577 12.0955722,20.9894159 L11.5335501,21.5113429 L10.8502059,20.0326649 L10.2594951,18.4948813 L9.72581612,16.8015565 L8.4711174,16.3442654 L6.75843637,15.4614829 L5.34059225,14.9001522 L4.92650711,14.5327294 L4.34823963,13.9689791 L4.92650711,15.8344361 L6.75843637,16.3442654 L6.22026394,17.4299428 L4.34823963,17.4299428 L3.15990514,18.4948813 L1.64735374,18.4948813 L0.51777925,14.5327294 L0.51777925,11.7509621 L2.66453526e-14,9.97710151 L0.51777925,8.46040234 Z" id="Path-4-Copy" fill="url(#linearGradient-4)"></path>
            </g>
        </g>
    </g>
</svg>