<?xml version="1.0" encoding="UTF-8"?>
<svg width="125px" height="105px" viewBox="0 0 125 105" version="1.1" xmlns="http://www.w3.org/2000/svg" xmlns:xlink="http://www.w3.org/1999/xlink">
    <title>东北</title>
    <defs>
        <filter x="-27.4%" y="-11.3%" width="154.8%" height="122.5%" filterUnits="objectBoundingBox" id="filter-1">
            <feGaussianBlur stdDeviation="3.37727865" in="SourceGraphic"></feGaussianBlur>
        </filter>
        <linearGradient x1="42.8781723%" y1="-13.0971261%" x2="50%" y2="123.688757%" id="linearGradient-2">
            <stop stop-color="#9FA1FF" offset="0%"></stop>
            <stop stop-color="#2124B1" offset="100%"></stop>
        </linearGradient>
        <linearGradient x1="40.3039116%" y1="-5.03366626%" x2="47.8820083%" y2="86.6887393%" id="linearGradient-3">
            <stop stop-color="#464AF1" offset="0%"></stop>
            <stop stop-color="#2124B1" offset="100%"></stop>
        </linearGradient>
    </defs>
    <g id="数据大屏素材" stroke="none" stroke-width="1" fill="none" fill-rule="evenodd">
        <g id="素材" transform="translate(-42.000000, -265.000000)">
            <g id="东北" transform="translate(49.000000, 265.000000)">
                <path d="M39.944135,9.57491203 C40.6038004,11.6644855 40.6038004,13.0957119 39.944135,13.868591 C39.2844696,14.6414702 39.3669278,15.1765403 40.1915096,15.4738015 L41.6955489,13.868591 L43.000516,16.8587746 L43.000516,21.1378814 L44.9115972,21.1378814 C46.1440661,21.1378814 46.9852052,21.1378814 47.4350146,21.1378814 C47.8848241,21.1378814 48.2909742,19.7115125 48.6534651,16.8587746 C50.3934266,20.5159234 51.2634074,22.3444978 51.2634074,22.3444978 C51.2634074,22.3444978 50.8849925,24.4442185 50.1281627,28.64366 L50.1281627,34.9226058 L50.1281627,36.3494596 L50.1281627,39.4707023 L48.6534651,41.8258069 L47.4350146,39.4707023 L43.9750823,47.0001648 L45.3838827,49.8376217 L47.4350146,49.8376217 L47.4350146,51.888724 L47.4350146,54.8153592 L46.2266357,56.0638563 L46.2266357,58.0622474 L43.9750823,56.0638563 L44.9115972,60.6900298 L44.9115972,65.2056248 L46.2266357,65.2056248 L47.4350146,63.8206551 L48.6534651,67.3769558 L50.1281627,69.8226498 L50.1281627,72.8019962 L48.6534651,73.9613149 L47.4350146,75.3881687 L45.3838827,75.3881687 L44.9115972,77.8851628 C42.767565,79.4236985 41.6955489,80.1929664 41.6955489,80.1929664 C41.6955489,80.1929664 41.1942025,81.3608296 40.1915096,83.6965559 L38.9671957,80.1929664 L38.2924816,80.1929664 L38.9671957,85.0544411 L37.3936673,89.140395 L38.9671957,89.140395 L40.9467138,92.5599488 L43.000516,87.7443173 L44.9115972,85.0544411 L46.2266357,85.0544411 L47.4350146,87.7443173 L46.2266357,92.5599488 L44.9115972,95.8928856 L46.2266357,95.8928856 L46.2266357,98.1223379 L51.2634074,91.1632157 L52.6086602,91.1632157 L55.6945706,85.0544411 L57.5976598,81.4499165 L59.2799272,77.8851628 L61.1654668,80.1929664 L63.6468452,77.8851628 L61.9645614,75.3881687 L64.4416013,73.9613149 L65.4425653,71.3878755 L66.2227239,69.8226498 L67.351363,65.2056248 L68.061682,68.619113 L69.6385213,65.2056248 L69.6385213,59.4824939 L68.061682,54.8153592 L69.6385213,51.888724 L73.4693279,51.888724 L74.3936673,44.9330793 L74.3936673,37.7269527 L74.3936673,34.9226058 L74.3936673,30.6454016 L70.7428095,36.3494596 L67.351363,39.4707023 L66.2227239,37.7269527 L64.4416013,36.3494596 L64.4416013,33.4110744 C65.0332864,31.5672925 64.7683677,30.6454016 63.6468452,30.6454016 C62.5253227,30.6454016 61.6981965,30.6454016 61.1654668,30.6454016 L58.4140919,30.6454016 L55.8936673,28.64366 L55.6945706,27.1794229 L54.3237435,23.7014668 L52.6086602,19.3844416 L50.1281627,11.8205315 L47.4350146,9.57491203 L45.3838827,9.57491203 L43.9750823,8.12233795 L39.944135,9.57491203 Z" id="路径-5" fill="#040135" opacity="0.553045743" filter="url(#filter-1)" transform="translate(55.893667, 53.122338) rotate(61.000000) translate(-55.893667, -53.122338) "></path>
                <path d="M30.5155095,2.45257408 C31.4247781,4.5421476 31.4247781,5.97337393 30.5155095,6.74625306 C29.606241,7.5191322 29.7198996,8.05420237 30.8564852,8.35146358 L32.9296206,6.74625306 L34.728359,9.73643664 L34.728359,14.0155435 L37.3625519,14.0155435 C39.0613604,14.0155435 40.2207684,14.0155435 40.840776,14.0155435 C41.4607836,14.0155435 42.0206122,12.5891745 42.5202617,9.73643664 C44.9185871,13.3935854 46.1177497,15.2221598 46.1177497,15.2221598 C46.1177497,15.2221598 45.5961508,17.3218806 44.552953,21.5213221 L44.552953,27.8002679 L44.552953,29.2271217 L44.552953,32.3483644 L42.5202617,34.7034689 L40.840776,32.3483644 L36.07168,39.8778269 L38.0135401,42.7152837 L40.840776,42.7152837 L40.840776,44.7663861 L40.840776,47.6930213 L39.1751726,48.9415183 L39.1751726,50.9399095 L36.07168,48.9415183 L37.3625519,53.5676918 L37.3625519,58.0832869 L39.1751726,58.0832869 L40.840776,56.6983171 L42.5202617,60.2546178 L44.552953,62.7003118 L44.552953,65.6796582 L42.5202617,66.8389769 L40.840776,68.2658307 L38.0135401,68.2658307 L37.3625519,70.7628249 C34.4072644,72.3013606 32.9296206,73.0706285 32.9296206,73.0706285 C32.9296206,73.0706285 32.2385755,74.2384916 30.8564852,76.5742179 L29.1689175,73.0706285 L28.2389061,73.0706285 L29.1689175,77.9321031 L27,82.018057 L29.1689175,82.018057 L31.8974424,85.4376109 L34.728359,80.6219793 L37.3625519,77.9321031 L39.1751726,77.9321031 L40.840776,80.6219793 L39.1751726,85.4376109 L37.3625519,88.7705476 L39.1751726,88.7705476 L39.1751726,91 L46.1177497,84.0408777 L47.9720172,84.0408777 L52.2255693,77.9321031 L54.8487463,74.3275786 L57.1675474,70.7628249 L59.7665344,73.0706285 L63.1868127,70.7628249 L60.8679891,68.2658307 L64.2822873,66.8389769 L65.6619945,64.2655375 L66.7373483,62.7003118 L68.29304,58.0832869 L69.2721283,61.4967751 L71.4456095,58.0832869 L71.4456095,52.360156 L69.2721283,47.6930213 L71.4456095,44.7663861 L76.7259105,44.7663861 L78,37.8107413 L78,30.6046147 L78,27.8002679 L78,23.5230637 L72.9677365,29.2271217 L68.29304,32.3483644 L66.7373483,30.6046147 L64.2822873,29.2271217 L64.2822873,26.2887364 C65.0978532,24.4449546 64.732695,23.5230637 63.1868127,23.5230637 C61.6409303,23.5230637 60.5008375,23.5230637 59.7665344,23.5230637 L55.9740988,23.5230637 L52.5,21.5213221 L52.2255693,20.0570849 L50.3360509,16.5791288 L47.9720172,12.2621036 L44.552953,4.69819357 L40.840776,2.45257408 L38.0135401,2.45257408 L36.07168,1 L30.5155095,2.45257408 Z" id="路径-5" fill="url(#linearGradient-2)" transform="translate(52.500000, 46.000000) rotate(61.000000) translate(-52.500000, -46.000000) "></path>
                <path d="M30.5155095,1.45257408 C31.4247781,3.5421476 31.4247781,4.97337393 30.5155095,5.74625306 C29.606241,6.5191322 29.7198996,7.05420237 30.8564852,7.35146358 L32.9296206,5.74625306 L34.728359,8.73643664 L34.728359,13.0155435 L37.3625519,13.0155435 C39.0613604,13.0155435 40.2207684,13.0155435 40.840776,13.0155435 C41.4607836,13.0155435 42.0206122,11.5891745 42.5202617,8.73643664 C44.9185871,12.3935854 46.1177497,14.2221598 46.1177497,14.2221598 C46.1177497,14.2221598 45.5961508,16.3218806 44.552953,20.5213221 L44.552953,26.8002679 L44.552953,28.2271217 L44.552953,31.3483644 L42.5202617,33.7034689 L40.840776,31.3483644 L36.07168,38.8778269 L38.0135401,41.7152837 L40.840776,41.7152837 L40.840776,43.7663861 L40.840776,46.6930213 L39.1751726,47.9415183 L39.1751726,49.9399095 L36.07168,47.9415183 L37.3625519,52.5676918 L37.3625519,57.0832869 L39.1751726,57.0832869 L40.840776,55.6983171 L42.5202617,59.2546178 L44.552953,61.7003118 L44.552953,64.6796582 L42.5202617,65.8389769 L40.840776,67.2658307 L38.0135401,67.2658307 L37.3625519,69.7628249 C34.4072644,71.3013606 32.9296206,72.0706285 32.9296206,72.0706285 C32.9296206,72.0706285 32.2385755,73.2384916 30.8564852,75.5742179 L29.1689175,72.0706285 L28.2389061,72.0706285 L29.1689175,76.9321031 L27,81.018057 L29.1689175,81.018057 L31.8974424,84.4376109 L34.728359,79.6219793 L37.3625519,76.9321031 L39.1751726,76.9321031 L40.840776,79.6219793 L39.1751726,84.4376109 L37.3625519,87.7705476 L39.1751726,87.7705476 L39.1751726,90 L46.1177497,83.0408777 L47.9720172,83.0408777 L52.2255693,76.9321031 L54.8487463,73.3275786 L57.1675474,69.7628249 L59.7665344,72.0706285 L63.1868127,69.7628249 L60.8679891,67.2658307 L64.2822873,65.8389769 L65.6619945,63.2655375 L66.7373483,61.7003118 L68.29304,57.0832869 L69.2721283,60.4967751 L71.4456095,57.0832869 L71.4456095,51.360156 L69.2721283,46.6930213 L71.4456095,43.7663861 L76.7259105,43.7663861 L78,36.8107413 L78,29.6046147 L78,26.8002679 L78,22.5230637 L72.9677365,28.2271217 L68.29304,31.3483644 L66.7373483,29.6046147 L64.2822873,28.2271217 L64.2822873,25.2887364 C65.0978532,23.4449546 64.732695,22.5230637 63.1868127,22.5230637 C61.6409303,22.5230637 60.5008375,22.5230637 59.7665344,22.5230637 L55.9740988,22.5230637 L52.5,20.5213221 L52.2255693,19.0570849 L50.3360509,15.5791288 L47.9720172,11.2621036 L44.552953,3.69819357 L40.840776,1.45257408 L38.0135401,1.45257408 L36.07168,0 L30.5155095,1.45257408 Z" id="路径-5" fill="url(#linearGradient-3)" opacity="0.9" transform="translate(52.500000, 45.000000) rotate(61.000000) translate(-52.500000, -45.000000) "></path>
            </g>
        </g>
    </g>
</svg>