<?xml version="1.0" encoding="UTF-8"?>
<svg width="116px" height="79px" viewBox="0 0 116 79" version="1.1" xmlns="http://www.w3.org/2000/svg" xmlns:xlink="http://www.w3.org/1999/xlink">
    <title>华北</title>
    <defs>
        <filter x="-10.7%" y="-26.0%" width="121.4%" height="152.0%" filterUnits="objectBoundingBox" id="filter-1">
            <feGaussianBlur stdDeviation="3.37727865" in="SourceGraphic"></feGaussianBlur>
        </filter>
        <linearGradient x1="0%" y1="35.7922384%" x2="74.0624934%" y2="76.4854638%" id="linearGradient-2">
            <stop stop-color="#9FA1FF" offset="0%"></stop>
            <stop stop-color="#2124B1" offset="100%"></stop>
        </linearGradient>
        <linearGradient x1="0%" y1="50%" x2="100%" y2="74.3017531%" id="linearGradient-3">
            <stop stop-color="#464AF1" offset="0%"></stop>
            <stop stop-color="#2124B1" offset="100%"></stop>
        </linearGradient>
    </defs>
    <g id="数据大屏素材" stroke="none" stroke-width="1" fill="none" fill-rule="evenodd">
        <g id="素材" transform="translate(-301.000000, -172.000000)">
            <g id="华北" transform="translate(312.000000, 172.000000)">
                <path d="M9.9475983e-14,50.2243498 L7.11208295,50.9370718 L11.1012343,50.9370718 L16.0365446,51.4713106 L17.8750239,52.2642512 C19.0615635,52.6204682 19.9807997,52.7985768 20.6327325,52.7985768 C21.2846654,52.7985768 22.4556709,52.7985768 24.1457491,52.7985768 C23.0538264,53.0685902 23.0538264,53.203597 24.1457491,53.203597 C25.2376718,53.203597 26.566379,53.3482478 28.1318708,53.6375494 L36.0808283,52.2642512 L42.8959386,52.2642512 L46.7563683,51.9309496 C49.3175759,50.5034231 51.0076507,49.7896598 51.8265927,49.7896598 C52.6455348,49.7896598 52.2815605,49.2753867 50.7346701,48.2468406 L51.8265927,47.1238418 L56.0970258,47.1238418 L59.2921074,47.1238418 L60.9899407,45.8662647 C64.480736,45.6155379 66.2261336,45.4901745 66.2261336,45.4901745 C66.2261336,45.4901745 66.9487596,44.9631741 68.3940116,43.9091735 C71.4489932,43.671324 72.9764839,43.5523992 72.9764839,43.5523992 C72.9764839,43.5523992 74.5401674,43.250251 77.6675344,42.6459547 L76.2343808,41.430894 C73.2786972,40.646303 71.8008554,40.2540075 71.8008554,40.2540075 C71.8008554,40.2540075 71.0636063,40.2540075 69.5891081,40.2540075 L68.3940116,40.8768814 L66.2261336,40.2540075 L63.8006897,40.8768814 L62.7770173,40.2540075 L66.2261336,36.791539 L71.8008554,36.791539 L73.8225091,35.5067892 L73.8225091,34.4127204 L77.6675344,31.6008432 L76.2343808,30.2758766 L73.8225091,30.2758766 L78.5751977,29 C79.6857217,29.3755045 80.2409837,29.5632567 80.2409837,29.5632567 C80.2409837,29.5632567 80.2409837,29.9358323 80.2409837,30.6809837 L81.5696943,30.6809837 L82.9624996,31.2170676 L83.881729,32.1375563 L85.9443451,32.5968352 L87.2689206,32.5968352 L89.9963117,32.5968352 L91.2247349,31.6008432 L94.6695115,33.20825 L94.6695115,34.4127204 C93.8623403,35.1420996 93.4587547,35.5067892 93.4587547,35.5067892 C93.4587547,35.5067892 93.4587547,35.808924 93.4587547,36.4131936 L93.4587547,36.791539 L91.2247349,38.6166748 L85.9443451,40.8768814 L87.2689206,41.430894 L87.2689206,42.6459547 L89.1244317,43.5523992 L87.2689206,43.9091735 C86.3858703,43.9091735 85.9443451,43.9091735 85.9443451,43.9091735 C85.9443451,43.9091735 85.5939704,43.9091735 84.8932211,43.9091735 L84.8932211,44.456466 L85.9443451,45.4901745 L85.9443451,47.1238418 L87.2689206,47.535813 L89.9963117,47.1238418 L91.2247349,48.9553385 L91.2247349,49.7896598 L89.9963117,50.2243498 L84.8932211,50.9370718 C82.6775366,51.465641 81.5696943,51.9080341 81.5696943,52.2642512 C81.5696943,52.6204682 80.2689743,52.3561547 77.6675344,51.4713106 L78.5751977,53.6375494 L78.5751977,54.7109214 L80.2409837,55.7786461 L80.2409837,57.2678597 L78.5751977,57.8600475 C77.6415704,57.8600475 76.8612981,57.8600475 76.2343808,57.8600475 C75.6074635,57.8600475 74.5214979,58.1050736 72.9764839,58.5951259 L72.9764839,59.9784948 L72.9764839,60.9450134 L71.8008554,61.4946859 C68.0843742,61.6971302 66.2261336,62.1855033 66.2261336,62.9598052 C66.2261336,63.7341071 65.7498078,64.2273065 64.7971561,64.4394036 L60.9899407,64.4394036 L59.2921074,64.4394036 C58.8549903,65.2129013 58.2131974,65.8407329 57.3667288,66.3228984 C56.5202601,66.8050639 53.1762691,67.3637079 47.3347557,67.9988305 C46.9491641,68.0202938 46.7563683,67.7463377 46.7563683,67.176962 C46.7563683,66.6075863 46.7563683,65.6950668 46.7563683,64.4394036 L46.7563683,62.9598052 L47.3347557,62.1534138 L47.3347557,60.9450134 L49.6752963,58.5951259 L48.7198639,57.8600475 L45.4565321,58.5951259 L41.2656698,60.9450134 L39.4633935,61.4946859 L36.0808283,61.4946859 L34.3901394,60.9450134 L32.1783921,60.5327276 L34.3901394,58.5951259 L32.1783921,57.8600475 L29.5613191,59.9784948 L28.1318708,61.4946859 L24.1457491,62.1534138 L20.6327325,60.9450134 L20.6327325,59.9784948 L24.1457491,58.5951259 L23.0832842,57.8600475 L19.0141322,58.5951259 L16.0365446,58.5951259 L14.8216732,59.3831006 L11.1012343,58.5951259 L11.1012343,57.8600475 L7.11208295,56.4375107 L11.1012343,54.7109214 C9.53438464,54.4009374 8.20466752,54.2459454 7.11208295,54.2459454 C6.01949838,54.2459454 4.65840947,54.4009374 3.02881621,54.7109214 L9.9475983e-14,53.203597 C0.900532552,52.9729056 1.35079883,52.6597903 1.35079883,52.2642512 C1.35079883,51.8687121 0.900532552,51.1887449 9.9475983e-14,50.2243498 Z" id="路径-4" fill="#040135" opacity="0.553045743" filter="url(#filter-1)"></path>
                <path d="M9.9475983e-14,36.9181305 L7.11208295,38.1242753 L11.1012343,38.1242753 L16.0365446,39.0283717 L17.8750239,40.3702712 C19.0615635,40.9731001 19.9807997,41.2745145 20.6327325,41.2745145 C21.2846654,41.2745145 22.4556709,41.2745145 24.1457491,41.2745145 C23.0538264,41.7314604 23.0538264,41.9599334 24.1457491,41.9599334 C25.2376718,41.9599334 26.566379,42.204727 28.1318708,42.6943144 L36.0808283,40.3702712 L42.8959386,40.3702712 L46.7563683,39.8062224 C49.3175759,37.3904083 51.0076507,36.1825012 51.8265927,36.1825012 C52.6455348,36.1825012 52.2815605,35.3121929 50.7346701,33.5715763 L51.8265927,31.6711168 L56.0970258,31.6711168 L59.2921074,31.6711168 L60.9899407,29.5429095 C64.480736,29.1186025 66.2261336,28.9064491 66.2261336,28.9064491 C66.2261336,28.9064491 66.9487596,28.0146024 68.3940116,26.230909 C71.4489932,25.8283944 72.9764839,25.6271371 72.9764839,25.6271371 C72.9764839,25.6271371 74.5401674,25.1158094 77.6675344,24.093154 L76.2343808,22.0368975 C73.2786972,20.7091281 71.8008554,20.0452434 71.8008554,20.0452434 C71.8008554,20.0452434 71.0636063,20.0452434 69.5891081,20.0452434 L68.3940116,21.0993378 L66.2261336,20.0452434 L63.8006897,21.0993378 L62.7770173,20.0452434 L66.2261336,14.1856814 L71.8008554,14.1856814 L73.8225091,12.0114894 L73.8225091,10.1599883 L77.6675344,5.40142694 L76.2343808,3.15917585 L73.8225091,3.15917585 L78.5751977,1 C79.6857217,1.63546908 80.2409837,1.95320361 80.2409837,1.95320361 C80.2409837,1.95320361 80.2409837,2.58371626 80.2409837,3.84474156 L81.5696943,3.84474156 L82.9624996,4.75196054 L83.881729,6.30971064 L85.9443451,7.0869519 L87.2689206,7.0869519 L89.9963117,7.0869519 L91.2247349,5.40142694 L94.6695115,8.12165386 L94.6695115,10.1599883 C93.8623403,11.3943224 93.4587547,12.0114894 93.4587547,12.0114894 C93.4587547,12.0114894 93.4587547,12.5227944 93.4587547,13.5454046 L93.4587547,14.1856814 L91.2247349,17.2743728 L85.9443451,21.0993378 L87.2689206,22.0368975 L87.2689206,24.093154 L89.1244317,25.6271371 L87.2689206,26.230909 C86.3858703,26.230909 85.9443451,26.230909 85.9443451,26.230909 C85.9443451,26.230909 85.5939704,26.230909 84.8932211,26.230909 L84.8932211,27.1570964 L85.9443451,28.9064491 L85.9443451,31.6711168 L87.2689206,32.3682989 L89.9963117,31.6711168 L91.2247349,34.7705729 L91.2247349,36.1825012 L89.9963117,36.9181305 L84.8932211,38.1242753 C82.6775366,39.018777 81.5696943,39.7674424 81.5696943,40.3702712 C81.5696943,40.9731001 80.2689743,40.5258002 77.6675344,39.0283717 L78.5751977,42.6943144 L78.5751977,44.51079 L80.2409837,46.3177089 L80.2409837,48.8379164 L78.5751977,49.8400803 C77.6415704,49.8400803 76.8612981,49.8400803 76.2343808,49.8400803 C75.6074635,49.8400803 74.5214979,50.25474 72.9764839,51.0840592 L72.9764839,53.4251451 L72.9764839,55.0607919 L71.8008554,55.9910069 C68.0843742,56.3336049 66.2261336,57.1600825 66.2261336,58.4704395 C66.2261336,59.7807966 65.7498078,60.6154418 64.7971561,60.9743753 L60.9899407,60.9743753 L59.2921074,60.9743753 C58.8549903,62.2833715 58.2131974,63.3458557 57.3667288,64.1618281 C56.5202601,64.9778005 53.1762691,65.923198 47.3347557,66.9980208 C46.9491641,67.0343434 46.7563683,66.5707253 46.7563683,65.6071664 C46.7563683,64.6436076 46.7563683,63.0993438 46.7563683,60.9743753 L46.7563683,58.4704395 L47.3347557,57.1057772 L47.3347557,55.0607919 L49.6752963,51.0840592 L48.7198639,49.8400803 L45.4565321,51.0840592 L41.2656698,55.0607919 L39.4633935,55.9910069 L36.0808283,55.9910069 L34.3901394,55.0607919 L32.1783921,54.3630774 L34.3901394,51.0840592 L32.1783921,49.8400803 L29.5613191,53.4251451 L28.1318708,55.9910069 L24.1457491,57.1057772 L20.6327325,55.0607919 L20.6327325,53.4251451 L24.1457491,51.0840592 L23.0832842,49.8400803 L19.0141322,51.0840592 L16.0365446,51.0840592 L14.8216732,52.4175548 L11.1012343,51.0840592 L11.1012343,49.8400803 L7.11208295,47.4327105 L11.1012343,44.51079 C9.53438464,43.9862017 8.20466752,43.7239075 7.11208295,43.7239075 C6.01949838,43.7239075 4.65840947,43.9862017 3.02881621,44.51079 L9.9475983e-14,41.9599334 C0.900532552,41.5695325 1.35079883,41.0396451 1.35079883,40.3702712 C1.35079883,39.7008973 0.900532552,38.5501837 9.9475983e-14,36.9181305 Z" id="路径-4" fill="url(#linearGradient-2)"></path>
                <path d="M9.9475983e-14,35.9181305 L7.11208295,37.1242753 L11.1012343,37.1242753 L16.0365446,38.0283717 L17.8750239,39.3702712 C19.0615635,39.9731001 19.9807997,40.2745145 20.6327325,40.2745145 C21.2846654,40.2745145 22.4556709,40.2745145 24.1457491,40.2745145 C23.0538264,40.7314604 23.0538264,40.9599334 24.1457491,40.9599334 C25.2376718,40.9599334 26.566379,41.204727 28.1318708,41.6943144 L36.0808283,39.3702712 L42.8959386,39.3702712 L46.7563683,38.8062224 C49.3175759,36.3904083 51.0076507,35.1825012 51.8265927,35.1825012 C52.6455348,35.1825012 52.2815605,34.3121929 50.7346701,32.5715763 L51.8265927,30.6711168 L56.0970258,30.6711168 L59.2921074,30.6711168 L60.9899407,28.5429095 C64.480736,28.1186025 66.2261336,27.9064491 66.2261336,27.9064491 C66.2261336,27.9064491 66.9487596,27.0146024 68.3940116,25.230909 C71.4489932,24.8283944 72.9764839,24.6271371 72.9764839,24.6271371 C72.9764839,24.6271371 74.5401674,24.1158094 77.6675344,23.093154 L76.2343808,21.0368975 C73.2786972,19.7091281 71.8008554,19.0452434 71.8008554,19.0452434 C71.8008554,19.0452434 71.0636063,19.0452434 69.5891081,19.0452434 L68.3940116,20.0993378 L66.2261336,19.0452434 L63.8006897,20.0993378 L62.7770173,19.0452434 L66.2261336,13.1856814 L71.8008554,13.1856814 L73.8225091,11.0114894 L73.8225091,9.15998834 L77.6675344,4.40142694 L76.2343808,2.15917585 L73.8225091,2.15917585 L78.5751977,0 C79.6857217,0.635469077 80.2409837,0.953203615 80.2409837,0.953203615 C80.2409837,0.953203615 80.2409837,1.58371626 80.2409837,2.84474156 L81.5696943,2.84474156 L82.9624996,3.75196054 L83.881729,5.30971064 L85.9443451,6.0869519 L87.2689206,6.0869519 L89.9963117,6.0869519 L91.2247349,4.40142694 L94.6695115,7.12165386 L94.6695115,9.15998834 C93.8623403,10.3943224 93.4587547,11.0114894 93.4587547,11.0114894 C93.4587547,11.0114894 93.4587547,11.5227944 93.4587547,12.5454046 L93.4587547,13.1856814 L91.2247349,16.2743728 L85.9443451,20.0993378 L87.2689206,21.0368975 L87.2689206,23.093154 L89.1244317,24.6271371 L87.2689206,25.230909 C86.3858703,25.230909 85.9443451,25.230909 85.9443451,25.230909 C85.9443451,25.230909 85.5939704,25.230909 84.8932211,25.230909 L84.8932211,26.1570964 L85.9443451,27.9064491 L85.9443451,30.6711168 L87.2689206,31.3682989 L89.9963117,30.6711168 L91.2247349,33.7705729 L91.2247349,35.1825012 L89.9963117,35.9181305 L84.8932211,37.1242753 C82.6775366,38.018777 81.5696943,38.7674424 81.5696943,39.3702712 C81.5696943,39.9731001 80.2689743,39.5258002 77.6675344,38.0283717 L78.5751977,41.6943144 L78.5751977,43.51079 L80.2409837,45.3177089 L80.2409837,47.8379164 L78.5751977,48.8400803 C77.6415704,48.8400803 76.8612981,48.8400803 76.2343808,48.8400803 C75.6074635,48.8400803 74.5214979,49.25474 72.9764839,50.0840592 L72.9764839,52.4251451 L72.9764839,54.0607919 L71.8008554,54.9910069 C68.0843742,55.3336049 66.2261336,56.1600825 66.2261336,57.4704395 C66.2261336,58.7807966 65.7498078,59.6154418 64.7971561,59.9743753 L60.9899407,59.9743753 L59.2921074,59.9743753 C58.8549903,61.2833715 58.2131974,62.3458557 57.3667288,63.1618281 C56.5202601,63.9778005 53.1762691,64.923198 47.3347557,65.9980208 C46.9491641,66.0343434 46.7563683,65.5707253 46.7563683,64.6071664 C46.7563683,63.6436076 46.7563683,62.0993438 46.7563683,59.9743753 L46.7563683,57.4704395 L47.3347557,56.1057772 L47.3347557,54.0607919 L49.6752963,50.0840592 L48.7198639,48.8400803 L45.4565321,50.0840592 L41.2656698,54.0607919 L39.4633935,54.9910069 L36.0808283,54.9910069 L34.3901394,54.0607919 L32.1783921,53.3630774 L34.3901394,50.0840592 L32.1783921,48.8400803 L29.5613191,52.4251451 L28.1318708,54.9910069 L24.1457491,56.1057772 L20.6327325,54.0607919 L20.6327325,52.4251451 L24.1457491,50.0840592 L23.0832842,48.8400803 L19.0141322,50.0840592 L16.0365446,50.0840592 L14.8216732,51.4175548 L11.1012343,50.0840592 L11.1012343,48.8400803 L7.11208295,46.4327105 L11.1012343,43.51079 C9.53438464,42.9862017 8.20466752,42.7239075 7.11208295,42.7239075 C6.01949838,42.7239075 4.65840947,42.9862017 3.02881621,43.51079 L9.9475983e-14,40.9599334 C0.900532552,40.5695325 1.35079883,40.0396451 1.35079883,39.3702712 C1.35079883,38.7008973 0.900532552,37.5501837 9.9475983e-14,35.9181305 Z" id="路径-4" fill="url(#linearGradient-3)" opacity="0.9"></path>
            </g>
        </g>
    </g>
</svg>