<?xml version="1.0" encoding="UTF-8"?>
<svg width="112px" height="92px" viewBox="0 0 112 92" version="1.1" xmlns="http://www.w3.org/2000/svg" xmlns:xlink="http://www.w3.org/1999/xlink">
    <title>华东</title>
    <defs>
        <filter x="-50.3%" y="-12.3%" width="200.5%" height="124.6%" filterUnits="objectBoundingBox" id="filter-1">
            <feGaussianBlur stdDeviation="3.37727865" in="SourceGraphic"></feGaussianBlur>
        </filter>
        <linearGradient x1="35.9316056%" y1="60.4494461%" x2="63.7359753%" y2="38.1550048%" id="linearGradient-2">
            <stop stop-color="#9FA1FF" offset="0%"></stop>
            <stop stop-color="#2124B1" offset="100%"></stop>
        </linearGradient>
        <linearGradient x1="39.5832872%" y1="90.4455328%" x2="62.2613495%" y2="30.0851093%" id="linearGradient-3">
            <stop stop-color="#464AF1" offset="0%"></stop>
            <stop stop-color="#2124B1" offset="100%"></stop>
        </linearGradient>
    </defs>
    <g id="数据大屏素材" stroke="none" stroke-width="1" fill="none" fill-rule="evenodd">
        <g id="素材" transform="translate(-169.000000, -168.000000)">
            <g id="华东" transform="translate(172.000000, 168.000000)">
                <path d="M62.3553434,77.4299728 L63.1561217,79.1567246 L63.1561217,81.7194785 L62.3553434,84.46464 L61.9379308,86.8810737 L61.332205,90.9452151 L60.6918189,96.034624 L60.6918189,93.3135169 L59.44441,90.9452151 L59.44441,86.8810737 L60.6918189,81.7194785 L61.332205,78.2933487 L62.3553434,77.4299728 Z M52.5300179,13.6210361 L52.5300179,16.3252531 L53.2374601,17.3632237 L54.1141738,16.3252531 L54.8938211,14.7666077 L56.4243007,13.6210361 L58.3384221,14.7666077 L59.9766899,13.6210361 L59.9766899,16.3252531 L59.1051026,16.3252531 L56.4243007,18.4636427 L56.4243007,20.5256613 L55.5374794,20.5256613 L55.5374794,22.5876799 L54.8938211,24.2897895 L54.1141738,27.7577171 L54.1141738,29.7368242 L56.4243007,31.6265655 L57.4051393,35.8176901 L58.3384221,39.9902703 L59.9766899,42.2050252 L60.5042058,45.7181054 L60.5042058,48.1480509 L59.1051026,51.0091107 L57.4051393,51.760571 L58.3384221,51.760571 L59.9766899,53.2961418 L61.552112,53.2961418 L61.0680755,55.7885587 L60.5042058,57.8366547 L60.5042058,64.1522864 L59.9766899,65.4054475 C59.3956317,68.4531272 58.8495424,69.976967 58.3384221,69.976967 C57.8273017,69.976967 57.5162075,70.6425187 57.4051393,71.973622 L57.4051393,71.973622 L56.4243007,77.8747023 L55.5374794,82.6721679 L54.1141738,83.9704816 L53.2374601,85.6506334 L51.4851216,89.9001058 L50.8545251,85.6506334 L49.2602727,82.6721679 L48.5156055,83.9704816 L47.1075228,83.9704816 L44.7462548,85.6506334 L45.5034085,82.6721679 L45.5034085,81.4502309 L44.7462548,81.4502309 L43.8003069,80.3498119 L44.7462548,77.8747023 L44.7462548,74.4128569 L42.9935534,71.973622 L42.9935534,71.973622 L42.9935534,68.4632451 C42.9935534,68.4632451 43.2624712,67.8998498 43.8003069,66.7730593 L43.8003069,66.7730593 L43.8003069,62.4047722 L44.7462548,60.3834906 C45.6005866,59.3983965 46.0277525,58.5494512 46.0277525,57.8366547 C46.0277525,57.1238581 46.8570369,57.1238581 48.5156055,57.8366547 L48.5156055,57.8366547 L48.5156055,55.7885587 L47.5746835,53.2961418 C47.263243,52.5324351 47.1075228,51.7700913 47.1075228,51.0091107 L47.1075228,51.0091107 L47.1075228,43.8088232 C47.1075228,43.8088232 46.7475994,43.2742239 46.0277525,42.2050252 L46.0277525,42.2050252 L46.0277525,37.1784523 C46.0277525,37.1784523 46.3876759,36.2037701 47.1075228,34.2544057 L47.1075228,34.2544057 L47.5746835,35.8176901 L48.5156055,34.2544057 L49.2602727,31.6265655 L48.5156055,29.7368242 L46.0277525,29.7368242 L46.0277525,27.7577171 L47.1075228,26.5292398 L46.0277525,24.2897895 L46.0277525,20.6893766 C46.7475994,19.205554 47.1075228,18.0968364 47.1075228,17.3632237 C47.1075228,16.629611 47.5768837,15.7640723 48.5156055,14.7666077 L48.5156055,14.7666077 L49.2602727,13.6210361 L52.5300179,13.6210361 Z" id="形状结合" fill="#040135" opacity="0.553045743" filter="url(#filter-1)" transform="translate(53.074838, 54.827830) rotate(70.000000) translate(-53.074838, -54.827830) "></path>
                <path d="M71.7730862,65.1783429 L73.9752266,67.0777699 L73.9752266,69.8967992 L71.7730862,72.9164768 L70.6252016,75.5745538 L68.9594556,80.0451094 L67.1983939,85.6434592 L67.1983939,82.6502414 L63.7680194,80.0451094 L63.7680194,75.5745538 L67.1983939,69.8967992 L68.9594556,66.1280564 L71.7730862,65.1783429 Z M49.7459876,-5.65116279 L49.7459876,-2.68311974 L51.3023605,-1.54388372 L53.2311307,-2.68311974 L54.9463547,-4.3938281 L58.3134098,-5.65116279 L62.5244768,-4.3938281 L66.1286661,-5.65116279 L66.1286661,-2.68311974 L64.211174,-2.68311974 L58.3134098,-0.336106716 L58.3134098,1.92708441 L56.3624029,1.92708441 L56.3624029,4.19027554 L54.9463547,6.0584446 L53.2311307,9.86470659 L53.2311307,12.0368974 L58.3134098,14.1110037 L60.4712548,18.7110184 L62.5244768,23.2906796 L66.1286661,25.7215082 L67.289201,29.5773279 L67.289201,32.2443413 L64.211174,35.3845288 L60.4712548,36.2093023 L62.5244768,36.2093023 L66.1286661,37.894685 L69.5945946,37.894685 L68.5297144,40.6302645 L67.289201,42.8781747 L67.289201,49.8099656 L66.1286661,51.1853864 C64.850338,54.5304006 63.6489416,56.2029077 62.5244768,56.2029077 C61.400012,56.2029077 60.7156047,56.9333913 60.4712548,58.3943584 L60.4712548,58.3943584 L58.3134098,64.8711538 L56.3624029,70.1366648 L53.2311307,71.5616433 L51.3023605,73.4057124 L47.4472159,78.0697674 L46.0599034,73.4057124 L42.5525483,70.1366648 L40.9142804,71.5616433 L37.8164984,71.5616433 L32.6217089,73.4057124 L34.2874471,70.1366648 L34.2874471,68.7955145 L32.6217089,68.7955145 L30.5406235,67.5877375 L32.6217089,64.8711538 L32.6217089,61.0715674 L28.7657658,58.3943584 L28.7657658,58.3943584 L28.7657658,54.5415056 C28.7657658,54.5415056 29.357385,53.923145 30.5406235,52.6864237 L30.5406235,52.6864237 L30.5406235,47.8919623 L32.6217089,45.6734824 C34.5012389,44.5922816 35.4410039,43.6605124 35.4410039,42.8781747 C35.4410039,42.095837 37.2654294,42.095837 40.9142804,42.8781747 L40.9142804,42.8781747 L40.9142804,40.6302645 L38.8442519,37.894685 C38.1590829,37.0564702 37.8164984,36.2197515 37.8164984,35.3845288 L37.8164984,35.3845288 L37.8164984,27.4817743 C37.8164984,27.4817743 37.0246669,26.895019 35.4410039,25.7215082 L35.4410039,25.7215082 L35.4410039,20.2045379 C35.4410039,20.2045379 36.2328354,19.1347648 37.8164984,16.9952185 L37.8164984,16.9952185 L38.8442519,18.7110184 L40.9142804,16.9952185 L42.5525483,14.1110037 L40.9142804,12.0368974 L35.4410039,12.0368974 L35.4410039,9.86470659 L37.8164984,8.51637785 L35.4410039,6.0584446 L35.4410039,2.1067719 C37.0246669,0.478186156 37.8164984,-0.738699049 37.8164984,-1.54388372 C37.8164984,-2.34906838 38.8490924,-3.29904984 40.9142804,-4.3938281 L40.9142804,-4.3938281 L42.5525483,-5.65116279 L49.7459876,-5.65116279 Z" id="形状结合" fill="url(#linearGradient-2)" transform="translate(51.370496, 39.996148) rotate(67.000000) translate(-51.370496, -39.996148) "></path>
                <path d="M71.7730862,64.3178778 L73.9752266,66.2173048 L73.9752266,69.0363341 L71.7730862,72.0560117 L70.6252016,74.7140887 L68.9594556,79.1846443 L67.1983939,84.7829941 L67.1983939,81.7897763 L63.7680194,79.1846443 L63.7680194,74.7140887 L67.1983939,69.0363341 L68.9594556,65.2675913 L71.7730862,64.3178778 Z M49.7459876,-6.51162791 L49.7459876,-3.54358485 L51.3023605,-2.40434883 L53.2311307,-3.54358485 L54.9463547,-5.25429322 L58.3134098,-6.51162791 L62.5244768,-5.25429322 L66.1286661,-6.51162791 L66.1286661,-3.54358485 L64.211174,-3.54358485 L58.3134098,-1.19657183 L58.3134098,1.0666193 L56.3624029,1.0666193 L56.3624029,3.32981043 L54.9463547,5.19797949 L53.2311307,9.00424148 L53.2311307,11.1764323 L58.3134098,13.2505385 L60.4712548,17.8505533 L62.5244768,22.4302145 L66.1286661,24.8610431 L67.289201,28.7168628 L67.289201,31.3838762 L64.211174,34.5240637 L60.4712548,35.3488372 L62.5244768,35.3488372 L66.1286661,37.0342199 L69.5945946,37.0342199 L68.5297144,39.7697994 L67.289201,42.0177096 L67.289201,48.9495005 L66.1286661,50.3249213 C64.850338,53.6699355 63.6489416,55.3424426 62.5244768,55.3424426 C61.400012,55.3424426 60.7156047,56.0729262 60.4712548,57.5338933 L60.4712548,57.5338933 L58.3134098,64.0106887 L56.3624029,69.2761997 L53.2311307,70.7011782 L51.3023605,72.5452472 L47.4472159,77.2093023 L46.0599034,72.5452472 L42.5525483,69.2761997 L40.9142804,70.7011782 L37.8164984,70.7011782 L32.6217089,72.5452472 L34.2874471,69.2761997 L34.2874471,67.9350494 L32.6217089,67.9350494 L30.5406235,66.7272724 L32.6217089,64.0106887 L32.6217089,60.2111023 L28.7657658,57.5338933 L28.7657658,57.5338933 L28.7657658,53.6810405 C28.7657658,53.6810405 29.357385,53.0626799 30.5406235,51.8259586 L30.5406235,51.8259586 L30.5406235,47.0314971 L32.6217089,44.8130173 C34.5012389,43.7318165 35.4410039,42.8000473 35.4410039,42.0177096 C35.4410039,41.2353719 37.2654294,41.2353719 40.9142804,42.0177096 L40.9142804,42.0177096 L40.9142804,39.7697994 L38.8442519,37.0342199 C38.1590829,36.1960051 37.8164984,35.3592864 37.8164984,34.5240637 L37.8164984,34.5240637 L37.8164984,26.6213092 C37.8164984,26.6213092 37.0246669,26.0345538 35.4410039,24.8610431 L35.4410039,24.8610431 L35.4410039,19.3440728 C35.4410039,19.3440728 36.2328354,18.2742997 37.8164984,16.1347534 L37.8164984,16.1347534 L38.8442519,17.8505533 L40.9142804,16.1347534 L42.5525483,13.2505385 L40.9142804,11.1764323 L35.4410039,11.1764323 L35.4410039,9.00424148 L37.8164984,7.65591273 L35.4410039,5.19797949 L35.4410039,1.24630678 C37.0246669,-0.38227896 37.8164984,-1.59916417 37.8164984,-2.40434883 C37.8164984,-3.2095335 38.8490924,-4.15951496 40.9142804,-5.25429322 L40.9142804,-5.25429322 L42.5525483,-6.51162791 L49.7459876,-6.51162791 Z" id="形状结合" fill="url(#linearGradient-3)" opacity="0.9" transform="translate(51.370496, 39.135683) rotate(67.000000) translate(-51.370496, -39.135683) "></path>
            </g>
        </g>
    </g>
</svg>