<?xml version="1.0" encoding="UTF-8"?>
<svg width="108px" height="67px" viewBox="0 0 108 67" version="1.1" xmlns="http://www.w3.org/2000/svg" xmlns:xlink="http://www.w3.org/1999/xlink">
    <title>华南</title>
    <defs>
        <filter x="-11.8%" y="-33.8%" width="123.6%" height="167.5%" filterUnits="objectBoundingBox" id="filter-1">
            <feGaussianBlur stdDeviation="3.37727865" in="SourceGraphic"></feGaussianBlur>
        </filter>
        <linearGradient x1="0%" y1="38.8977015%" x2="74.0624934%" y2="70.6964005%" id="linearGradient-2">
            <stop stop-color="#9FA1FF" offset="0%"></stop>
            <stop stop-color="#2124B1" offset="100%"></stop>
        </linearGradient>
        <linearGradient x1="0%" y1="50%" x2="100%" y2="68.9899946%" id="linearGradient-3">
            <stop stop-color="#464AF1" offset="0%"></stop>
            <stop stop-color="#2124B1" offset="100%"></stop>
        </linearGradient>
    </defs>
    <g id="数据大屏素材" stroke="none" stroke-width="1" fill="none" fill-rule="evenodd">
        <g id="素材" transform="translate(-48.000000, -182.000000)">
            <g id="华南" transform="translate(59.000000, 182.000000)">
                <path d="M40.5271476,36.8684737 C41.4835405,35.4371862 42.3124763,34.881441 43.0139551,35.2012382 C43.715434,35.5210354 45.5175088,35.5210354 48.4201798,35.2012382 L53.0142148,34.3515332 L55.4103138,35.2012382 L57.9641061,35.6100034 L62.463246,35.6100034 C59.4824262,36.623507 59.4824262,35.9461317 62.463246,33.5778774 C65.4440658,31.2096232 67.46105,29.0690294 68.5141986,27.1560961 L72.2332457,26 L78.2283776,26 L81.7506572,26 L86,27.1560961 L86,28.794813 L81.7506572,28.794813 L81.7506572,30.3589431 L81.7506572,32.1936333 C81.0891831,33.3933603 80.4849252,34.1126603 79.9378834,34.3515332 C79.1173206,34.7098425 79.2722228,34.9270219 78.2283776,35.6100034 C77.5324809,36.0653244 76.5514339,36.4848145 75.2852368,36.8684737 L75.2852368,38.5678838 L68.5141986,38.5678838 L68.5141986,40.6394969 L62.463246,40.6394969 L60.3811378,42.6204358 L57.9641061,42.6204358 L55.4103138,42.6204358 L51.0549119,41.7634183 L48.4201798,43.488422 L48.4201798,45.1147077 L40.5271476,46.1187052 L35.8424042,47.3179447 L33.3444325,47.3179447 L33.3444325,49.8729099 L35.8424042,53.4852533 L31.7409859,55.2095257 L26.5050141,56 L24.0586765,55.2095257 L24.0586765,53.4852533 L24.0586765,51.3997465 L29.1243955,51.3997465 L31.7409859,49.8729099 L29.1243955,47.3179447 L29.1243955,46.1187052 L26.5050141,46.1187052 L24.0586765,46.1187052 L19.7618862,47.3179447 L16.8871256,46.1187052 L13.3606595,45.1147077 L13.3606595,43.488422 L5.0386316,41.7381913 L5.18083581,40.9320322 L10.009596,40.060898 L9.37646448,38.5678838 L5.00431636,39.4146639 L2.66822445,38.5678838 L0,38.5678838 L0,37.7286342 L0,36.8684737 L2.66822445,36.8684737 L9.37646448,36.8684737 L13.3606595,35.2012382 L19.7618862,35.6100034 L29.1243955,33.5778774 C30.9357739,34.1726222 32.3424529,34.1726222 33.3444325,33.5778774 C34.3464122,32.9831326 35.6558704,32.9831326 37.2728069,33.5778774 L33.3444325,35.2012382 L35.8424042,36.8684737 L40.5271476,36.8684737 Z" id="Path-18" fill="#040135" opacity="0.553045743" filter="url(#filter-1)"></path>
                <path d="M40.5271476,20.2009701 C41.4835405,17.6723622 42.3124763,16.6905458 43.0139551,17.2555209 C43.715434,17.8204959 45.5175088,17.8204959 48.4201798,17.2555209 L53.0142148,15.7543753 L55.4103138,17.2555209 L57.9641061,17.9776727 L62.463246,17.9776727 C59.4824262,19.7681958 59.4824262,18.5714994 62.463246,14.3875835 C65.4440658,10.2036676 67.46105,6.42195193 68.5141986,3.0424365 L72.2332457,1 L78.2283776,1 L81.7506572,1 L86,3.0424365 L86,5.93750305 L81.7506572,5.93750305 L81.7506572,8.70079949 L81.7506572,11.9420855 C81.0891831,14.0616032 80.4849252,15.3323665 79.9378834,15.7543753 C79.1173206,16.3873885 79.2722228,16.771072 78.2283776,17.9776727 C77.5324809,18.7820732 76.5514339,19.5231723 75.2852368,20.2009701 L75.2852368,23.2032613 L68.5141986,23.2032613 L68.5141986,26.8631112 L62.463246,26.8631112 L60.3811378,30.36277 L57.9641061,30.36277 L55.4103138,30.36277 L51.0549119,28.8487057 L48.4201798,31.8962122 L48.4201798,34.769317 L40.5271476,36.5430459 L35.8424042,38.6617023 L33.3444325,38.6617023 L33.3444325,43.1754741 L35.8424042,49.5572807 L31.7409859,52.6034953 L26.5050141,54 L24.0586765,52.6034953 L24.0586765,49.5572807 L24.0586765,45.8728855 L29.1243955,45.8728855 L31.7409859,43.1754741 L29.1243955,38.6617023 L29.1243955,36.5430459 L26.5050141,36.5430459 L24.0586765,36.5430459 L19.7618862,38.6617023 L16.8871256,36.5430459 L13.3606595,34.769317 L13.3606595,31.8962122 L5.0386316,28.804138 L5.18083581,27.3799236 L10.009596,25.8409198 L9.37646448,23.2032613 L5.00431636,24.6992395 L2.66822445,23.2032613 L0,23.2032613 L0,21.720587 L0,20.2009701 L2.66822445,20.2009701 L9.37646448,20.2009701 L13.3606595,17.2555209 L19.7618862,17.9776727 L29.1243955,14.3875835 C30.9357739,15.4382993 32.3424529,15.4382993 33.3444325,14.3875835 C34.3464122,13.3368677 35.6558704,13.3368677 37.2728069,14.3875835 L33.3444325,17.2555209 L35.8424042,20.2009701 L40.5271476,20.2009701 Z" id="Path-18" fill="url(#linearGradient-2)"></path>
                <path d="M40.5271476,19.2009701 C41.4835405,16.6723622 42.3124763,15.6905458 43.0139551,16.2555209 C43.715434,16.8204959 45.5175088,16.8204959 48.4201798,16.2555209 L53.0142148,14.7543753 L55.4103138,16.2555209 L57.9641061,16.9776727 L62.463246,16.9776727 C59.4824262,18.7681958 59.4824262,17.5714994 62.463246,13.3875835 C65.4440658,9.20366759 67.46105,5.42195193 68.5141986,2.0424365 L72.2332457,0 L78.2283776,0 L81.7506572,0 L86,2.0424365 L86,4.93750305 L81.7506572,4.93750305 L81.7506572,7.70079949 L81.7506572,10.9420855 C81.0891831,13.0616032 80.4849252,14.3323665 79.9378834,14.7543753 C79.1173206,15.3873885 79.2722228,15.771072 78.2283776,16.9776727 C77.5324809,17.7820732 76.5514339,18.5231723 75.2852368,19.2009701 L75.2852368,22.2032613 L68.5141986,22.2032613 L68.5141986,25.8631112 L62.463246,25.8631112 L60.3811378,29.36277 L57.9641061,29.36277 L55.4103138,29.36277 L51.0549119,27.8487057 L48.4201798,30.8962122 L48.4201798,33.769317 L40.5271476,35.5430459 L35.8424042,37.6617023 L33.3444325,37.6617023 L33.3444325,42.1754741 L35.8424042,48.5572807 L31.7409859,51.6034953 L26.5050141,53 L24.0586765,51.6034953 L24.0586765,48.5572807 L24.0586765,44.8728855 L29.1243955,44.8728855 L31.7409859,42.1754741 L29.1243955,37.6617023 L29.1243955,35.5430459 L26.5050141,35.5430459 L24.0586765,35.5430459 L19.7618862,37.6617023 L16.8871256,35.5430459 L13.3606595,33.769317 L13.3606595,30.8962122 L5.00431636,27.8487057 L9.37646448,25.8631112 L9.37646448,22.2032613 L5.00431636,23.6992395 L2.66822445,22.2032613 L0,22.2032613 L0,19.2009701 L2.66822445,19.2009701 L9.37646448,19.2009701 L13.3606595,16.2555209 L19.7618862,16.9776727 L29.1243955,13.3875835 C30.9357739,14.4382993 32.3424529,14.4382993 33.3444325,13.3875835 C34.3464122,12.3368677 35.6558704,12.3368677 37.2728069,13.3875835 L33.3444325,16.2555209 L35.8424042,19.2009701 L40.5271476,19.2009701 Z" id="Path-18" fill="url(#linearGradient-3)" opacity="0.9"></path>
            </g>
        </g>
    </g>
</svg>