<?xml version="1.0" encoding="UTF-8"?>
<svg width="138px" height="118px" viewBox="0 0 138 118" version="1.1" xmlns="http://www.w3.org/2000/svg" xmlns:xlink="http://www.w3.org/1999/xlink">
    <title>西北</title>
    <defs>
        <filter x="-9.8%" y="-24.7%" width="119.7%" height="149.4%" filterUnits="objectBoundingBox" id="filter-1">
            <feGaussianBlur stdDeviation="3.37727865" in="SourceGraphic"></feGaussianBlur>
        </filter>
        <linearGradient x1="27.8212977%" y1="28.5889666%" x2="50%" y2="75.0051395%" id="linearGradient-2">
            <stop stop-color="#9FA1FF" offset="0%"></stop>
            <stop stop-color="#2124B1" offset="100%"></stop>
        </linearGradient>
        <linearGradient x1="19.8045689%" y1="31.3251769%" x2="43.404178%" y2="62.449756%" id="linearGradient-3">
            <stop stop-color="#464AF1" offset="0%"></stop>
            <stop stop-color="#2124B1" offset="100%"></stop>
        </linearGradient>
    </defs>
    <g id="数据大屏素材" stroke="none" stroke-width="1" fill="none" fill-rule="evenodd">
        <g id="素材" transform="translate(-165.000000, -254.000000)">
            <g id="西北" transform="translate(167.000000, 254.000000)">
                <path d="M25.0052785,54.2785885 L26.7539511,53.289476 L29.1231281,53.7840323 L33.3872549,53.289476 L36.7035985,52.8019657 L37.8826574,51.1708983 L39.2482243,50.7123772 L39.2482243,48.8719135 L39.2482243,47.2407034 L37.8826574,46.3030557 L43.9691287,46.7885405 L45.4075454,47.2407034 L45.4075454,45.7923391 L49.5012991,43.1973944 C50.0265834,44.1279742 51.1420124,44.5932641 52.8475861,44.5932641 C54.5531598,44.5932641 55.5620176,44.380921 55.8741594,43.9562347 L56.7954931,42.0212519 L60.2887203,41.3376845 L61.7091407,42.4063243 L63.5782615,43.9562347 L66.9203606,44.5932641 L66.9203606,47.8081365 L65.7748512,49.4805729 L65.7748512,50.7123772 L66.9203606,50.7123772 L75.0134857,52.8019657 L76.975275,54.2785885 L77.7406644,55.7410561 L78.5585806,56.8692164 L82.2727651,57.5909347 L83.0130505,60.2656587 L84.6013506,62.6463759 C87.4500037,61.591984 88.8743302,61.4433272 88.8743302,62.2004056 C88.8743302,62.957484 88.1971629,63.4310402 86.8428282,63.6210744 L89.5305245,65.1673735 L90.30301,66.2178695 L92.7680972,67.0855923 L93.8479498,66.2178695 L95.9446819,66.2178695 L98.9359297,65.7161074 L98.9359297,67.0855923 L97.2601028,67.492536 L97.2601028,68.8248563 L99.7497279,69.2177785 L102.368029,69.2177785 L104.315308,68.8248563 L104.315308,67.0855923 L106.629632,65.7161074 L107.409066,67.0855923 L106.629632,68.398107 L108.478271,68.8248563 L112.295237,69.2177785 L113.168006,67.492536 L116.160836,66.2178695 L118.633423,65.1673735 L116.892506,67.9031555 L116.892506,69.8709033 L116.892506,70.8600168 L116.892506,74.7495188 L116.160836,76.4327908 L118.633423,78.7415841 L118.633423,79.2019673 L115.497073,78.7415841 L114.079786,79.2019673 L116.160836,80.0287991 L114.079786,80.0287991 L114.079786,81.6010677 L114.079786,82.3376845 L111.400364,81.6010677 L108.478271,80.8412135 C107.245845,80.2996039 106.629632,80.0287991 106.629632,80.0287991 C106.629632,80.0287991 105.523574,79.7531885 103.311458,79.2019673 L102.368029,80.0287991 C101.165027,80.5800204 100.29226,80.5800204 99.7497279,80.0287991 C99.2071957,79.4775779 98.3773207,79.2019673 97.2601028,79.2019673 L97.2601028,77.6376256 C96.3831555,78.0239113 95.9446819,78.0239113 95.9446819,77.6376256 C95.9446819,77.2513398 95.5427617,76.8497282 94.7389214,76.4327908 C94.8648421,75.9236619 94.5678516,75.7963797 93.8479498,76.0509441 C93.1280481,76.3055086 92.4457157,76.5811184 91.8009527,76.8777737 C92.3525121,76.9822329 92.3525121,77.2355168 91.8009527,77.6376256 C91.2493934,78.0397343 90.7500792,78.4077205 90.30301,78.7415841 L88.8743302,78.7415841 C87.5199955,79.0485062 86.8428282,79.2019673 86.8428282,79.2019673 C86.8428282,79.2019673 86.5115566,79.2019673 85.8490132,79.2019673 L84.6013506,78.3348199 C83.6281131,78.3765916 82.8519179,78.1441935 82.2727651,77.6376256 C81.6936123,77.1310577 81.1799662,76.7294461 80.7318268,76.4327908 L78.5585806,76.0509441 L78.5585806,76.8777737 L77.7406644,78.3348199 L76.975275,79.2019673 C76.9879213,79.7531885 76.664118,80.0287991 76.0038651,80.0287991 C75.3436122,80.0287991 73.6779965,80.0287991 71.0070182,80.0287991 L70.3653652,80.0287991 L70.3653652,78.7415841 L69.1205565,77.6376256 L64.5007507,76.8777737 C61.6927304,76.326554 60.2887203,76.0509441 60.2887203,76.0509441 C60.2887203,76.0509441 59.1243112,75.6171357 56.7954931,74.7495188 C56.1812706,74.0603173 55.8741594,73.7157165 55.8741594,73.7157165 C55.8741594,73.7157165 55.8741594,72.8926179 55.8741594,72.3582969 C55.8741594,72.0020828 56.1812706,71.3620858 56.7954931,70.4383058 L56.7954931,69.2177785 L55.8741594,67.9031555 L52.8475861,67.492536 L45.4075454,67.0855923 L41.4837691,67.9031555 L36.7035985,67.492536 L36.7035985,67.0855923 C36.0093979,67.0855923 35.2831238,67.0855923 34.5247762,67.0855923 C33.3872549,67.0855923 32.6209775,67.5048176 32.6209775,67.0855923 C32.6209775,66.8061088 31.9362849,66.5168679 30.5668998,66.2178695 L27.7724863,67.492536 L25.0052785,67.9031555 L23.4333421,67.0855923 L23.4333421,64.7809282 L20.9638887,63.6210744 L19.3916421,62.2004056 L19.3916421,61.8376845 L16.4049079,59.0017271 C17.6861279,59.5407711 18.3267378,59.3201137 18.3267378,58.3397547 C18.3267378,57.3593958 17.9946208,56.7408359 17.3303868,56.4840749 L15.6334229,55.7410561 L17.3303868,54.2785885 L19.3916421,53.7840323 L22.2965614,53.289476 L23.4333421,54.2785885 L25.0052785,54.2785885 Z" id="路径-6" fill="#040135" opacity="0.553045743" filter="url(#filter-1)" transform="translate(67.133423, 61.837684) rotate(-27.000000) translate(-67.133423, -61.837684) "></path>
                <path d="M18.3718556,41.9379083 L20.1205283,40.4904267 L22.4897052,41.2141675 L26.753832,40.4904267 L30.0701756,39.776997 L31.2492346,37.3900691 L32.6148015,36.7190625 L32.6148015,34.0257011 L32.6148015,31.6385644 L31.2492346,30.2663969 L37.3357059,30.9768626 L38.7741225,31.6385644 L38.7741225,29.5190067 L42.8678763,25.7215268 C43.3931606,27.0833509 44.5085895,27.764263 46.2141632,27.764263 C47.9197369,27.764263 48.9285947,27.4535169 49.2407366,26.8320248 L50.1620702,24.0003426 L53.6552975,23 L55.0757179,24.5638632 L56.9448386,26.8320248 L60.2869377,27.764263 L60.2869377,32.4689542 L59.1414284,34.9164222 L59.1414284,36.7190625 L60.2869377,36.7190625 L68.3800629,39.776997 L70.3418521,41.9379083 L71.1072415,44.0781049 L71.9251578,45.7290711 L75.6393423,46.7852442 L76.3796277,50.6994746 L77.9679278,54.183451 C80.8165808,52.6404384 82.2409073,52.4228919 82.2409073,53.5308115 C82.2409073,54.638731 81.56374,55.3317402 80.2094054,55.6098389 L82.8971016,57.8727157 L83.6695872,59.4100269 L86.1346743,60.6798651 L87.214527,59.4100269 L89.311259,59.4100269 L92.3025068,58.6757409 L92.3025068,60.6798651 L90.62668,61.2753925 L90.62668,63.2251296 L93.116305,63.8001376 L95.7346065,63.8001376 L97.6818855,63.2251296 L97.6818855,60.6798651 L99.996209,58.6757409 L100.775643,60.6798651 L99.996209,62.6006183 L101.844848,63.2251296 L105.661814,63.8001376 L106.534584,61.2753925 L109.527413,59.4100269 L112,57.8727157 L110.259083,61.876299 L110.259083,64.75593 L110.259083,66.2034133 L110.259083,71.8953673 L109.527413,74.3586922 L112,77.7374141 L112,78.4111456 L108.86365,77.7374141 L107.446363,78.4111456 L109.527413,79.6211434 L107.446363,79.6211434 L107.446363,81.9220242 L107.446363,83 L104.766941,81.9220242 L101.844848,80.8100425 C100.612422,80.0174431 99.996209,79.6211434 99.996209,79.6211434 C99.996209,79.6211434 98.890151,79.2178108 96.6780351,78.4111456 L95.7346065,79.6211434 C94.5316043,80.4278086 93.6588371,80.4278086 93.116305,79.6211434 C92.5737729,78.8144782 91.7438979,78.4111456 90.62668,78.4111456 L90.62668,76.121865 C89.7497327,76.6871612 89.311259,76.6871612 89.311259,76.121865 C89.311259,75.5565688 88.9093389,74.9688446 88.1054985,74.3586922 C88.2314193,73.6136256 87.9344288,73.4273589 87.214527,73.7998922 C86.4946252,74.1724255 85.8122928,74.575757 85.1675299,75.0098867 C85.7190892,75.1627538 85.7190892,75.5334132 85.1675299,76.121865 C84.6159706,76.7103169 84.1166563,77.2488332 83.6695872,77.7374141 L82.2409073,77.7374141 C80.8865727,78.1865684 80.2094054,78.4111456 80.2094054,78.4111456 C80.2094054,78.4111456 79.8781337,78.4111456 79.2155904,78.4111456 L77.9679278,77.1421494 C76.9946903,77.2032787 76.2184951,76.8631839 75.6393423,76.121865 C75.0601894,75.3805462 74.5465433,74.7928219 74.098404,74.3586922 L71.9251578,73.7998922 L71.9251578,75.0098867 L71.1072415,77.1421494 L70.3418521,78.4111456 C70.3544985,79.2178108 70.0306952,79.6211434 69.3704423,79.6211434 C68.7101893,79.6211434 67.0445737,79.6211434 64.3735954,79.6211434 L63.7319423,79.6211434 L63.7319423,77.7374141 L62.4871337,76.121865 L57.8673278,75.0098867 C55.0593076,74.2032237 53.6552975,73.7998922 53.6552975,73.7998922 C53.6552975,73.7998922 52.4908884,73.1650506 50.1620702,71.8953673 C49.5478478,70.8867798 49.2407366,70.382486 49.2407366,70.382486 C49.2407366,70.382486 49.2407366,69.1779514 49.2407366,68.3960182 C49.2407366,67.8747293 49.5478478,66.9381483 50.1620702,65.5862751 L50.1620702,63.8001376 L49.2407366,61.876299 L46.2141632,61.2753925 L38.7741225,60.6798651 L34.8503463,61.876299 L30.0701756,61.2753925 L30.0701756,60.6798651 C29.375975,60.6798651 28.6497009,60.6798651 27.8913534,60.6798651 C26.753832,60.6798651 25.9875546,61.2933655 25.9875546,60.6798651 C25.9875546,60.2708649 25.3028621,59.8475855 23.9334769,59.4100269 L21.1390634,61.2753925 L18.3718556,61.876299 L16.7999192,60.6798651 L16.7999192,57.3071859 L14.3304658,55.6098389 L12.7582193,53.5308115 L12.7582193,53 L9.7714851,48.8498185 C11.052705,49.6386634 11.693315,49.3157501 11.693315,47.8810785 C11.693315,46.4464069 11.361198,45.5411972 10.696964,45.1654495 L9,44.0781049 L10.696964,41.9379083 L12.7582193,41.2141675 L15.6631385,40.4904267 L16.7999192,41.9379083 L18.3718556,41.9379083 Z" id="路径-6" fill="url(#linearGradient-2)" transform="translate(60.500000, 53.000000) rotate(-30.000000) translate(-60.500000, -53.000000) "></path>
                <path d="M18.3718556,40.9379083 L20.1205283,39.4904267 L22.4897052,40.2141675 L26.753832,39.4904267 L30.0701756,38.776997 L31.2492346,36.3900691 L32.6148015,35.7190625 L32.6148015,33.0257011 L32.6148015,30.6385644 L31.2492346,29.2663969 L37.3357059,29.9768626 L38.7741225,30.6385644 L38.7741225,28.5190067 L42.8678763,24.7215268 C43.3931606,26.0833509 44.5085895,26.764263 46.2141632,26.764263 C47.9197369,26.764263 48.9285947,26.4535169 49.2407366,25.8320248 L50.1620702,23.0003426 L53.6552975,22 L55.0757179,23.5638632 L56.9448386,25.8320248 L60.2869377,26.764263 L60.2869377,31.4689542 L59.1414284,33.9164222 L59.1414284,35.7190625 L60.2869377,35.7190625 L68.3800629,38.776997 L70.3418521,40.9379083 L71.1072415,43.0781049 L71.9251578,44.7290711 L75.6393423,45.7852442 L76.3796277,49.6994746 L77.9679278,53.183451 C80.8165808,51.6404384 82.2409073,51.4228919 82.2409073,52.5308115 C82.2409073,53.638731 81.56374,54.3317402 80.2094054,54.6098389 L82.8971016,56.8727157 L83.6695872,58.4100269 L86.1346743,59.6798651 L87.214527,58.4100269 L89.311259,58.4100269 L92.3025068,57.6757409 L92.3025068,59.6798651 L90.62668,60.2753925 L90.62668,62.2251296 L93.116305,62.8001376 L95.7346065,62.8001376 L97.6818855,62.2251296 L97.6818855,59.6798651 L99.996209,57.6757409 L100.775643,59.6798651 L99.996209,61.6006183 L101.844848,62.2251296 L105.661814,62.8001376 L106.534584,60.2753925 L109.527413,58.4100269 L112,56.8727157 L110.259083,60.876299 L110.259083,63.75593 L110.259083,65.2034133 L110.259083,70.8953673 L109.527413,73.3586922 L112,76.7374141 L112,77.4111456 L108.86365,76.7374141 L107.446363,77.4111456 L109.527413,78.6211434 L107.446363,78.6211434 L107.446363,80.9220242 L107.446363,82 L104.766941,80.9220242 L101.844848,79.8100425 C100.612422,79.0174431 99.996209,78.6211434 99.996209,78.6211434 C99.996209,78.6211434 98.890151,78.2178108 96.6780351,77.4111456 L95.7346065,78.6211434 C94.5316043,79.4278086 93.6588371,79.4278086 93.116305,78.6211434 C92.5737729,77.8144782 91.7438979,77.4111456 90.62668,77.4111456 L90.62668,75.121865 C89.7497327,75.6871612 89.311259,75.6871612 89.311259,75.121865 C89.311259,74.5565688 88.9093389,73.9688446 88.1054985,73.3586922 C88.2314193,72.6136256 87.9344288,72.4273589 87.214527,72.7998922 C86.4946252,73.1724255 85.8122928,73.575757 85.1675299,74.0098867 C85.7190892,74.1627538 85.7190892,74.5334132 85.1675299,75.121865 C84.6159706,75.7103169 84.1166563,76.2488332 83.6695872,76.7374141 L82.2409073,76.7374141 C80.8865727,77.1865684 80.2094054,77.4111456 80.2094054,77.4111456 C80.2094054,77.4111456 79.8781337,77.4111456 79.2155904,77.4111456 L77.9679278,76.1421494 C76.9946903,76.2032787 76.2184951,75.8631839 75.6393423,75.121865 C75.0601894,74.3805462 74.5465433,73.7928219 74.098404,73.3586922 L71.9251578,72.7998922 L71.9251578,74.0098867 L71.1072415,76.1421494 L70.3418521,77.4111456 C70.3544985,78.2178108 70.0306952,78.6211434 69.3704423,78.6211434 C68.7101893,78.6211434 67.0445737,78.6211434 64.3735954,78.6211434 L63.7319423,78.6211434 L63.7319423,76.7374141 L62.4871337,75.121865 L57.8673278,74.0098867 C55.0593076,73.2032237 53.6552975,72.7998922 53.6552975,72.7998922 C53.6552975,72.7998922 52.4908884,72.1650506 50.1620702,70.8953673 C49.5478478,69.8867798 49.2407366,69.382486 49.2407366,69.382486 C49.2407366,69.382486 49.2407366,68.1779514 49.2407366,67.3960182 C49.2407366,66.8747293 49.5478478,65.9381483 50.1620702,64.5862751 L50.1620702,62.8001376 L49.2407366,60.876299 L46.2141632,60.2753925 L38.7741225,59.6798651 L34.8503463,60.876299 L30.0701756,60.2753925 L30.0701756,59.6798651 C29.375975,59.6798651 28.6497009,59.6798651 27.8913534,59.6798651 C26.753832,59.6798651 25.9875546,60.2933655 25.9875546,59.6798651 C25.9875546,59.2708649 25.3028621,58.8475855 23.9334769,58.4100269 L21.1390634,60.2753925 L18.3718556,60.876299 L16.7999192,59.6798651 L16.7999192,56.3071859 L14.3304658,54.6098389 L12.7582193,52.5308115 L12.7582193,52 L9.7714851,47.8498185 C11.052705,48.6386634 11.693315,48.3157501 11.693315,46.8810785 C11.693315,45.4464069 11.361198,44.5411972 10.696964,44.1654495 L9,43.0781049 L10.696964,40.9379083 L12.7582193,40.2141675 L15.6631385,39.4904267 L16.7999192,40.9379083 L18.3718556,40.9379083 Z" id="路径-6" fill="url(#linearGradient-3)" opacity="0.9" transform="translate(60.500000, 52.000000) rotate(-30.000000) translate(-60.500000, -52.000000) "></path>
            </g>
        </g>
    </g>
</svg>