<?xml version="1.0" encoding="UTF-8"?>
<svg width="148px" height="99px" viewBox="0 0 148 99" version="1.1" xmlns="http://www.w3.org/2000/svg" xmlns:xlink="http://www.w3.org/1999/xlink">
    <title>西南</title>
    <defs>
        <filter x="-8.7%" y="-21.1%" width="117.3%" height="142.2%" filterUnits="objectBoundingBox" id="filter-1">
            <feGaussianBlur stdDeviation="3.37727865" in="SourceGraphic"></feGaussianBlur>
        </filter>
        <linearGradient x1="27.8212977%" y1="30.5255784%" x2="50%" y2="72.7434435%" id="linearGradient-2">
            <stop stop-color="#9FA1FF" offset="0%"></stop>
            <stop stop-color="#2124B1" offset="100%"></stop>
        </linearGradient>
        <linearGradient x1="19.8045689%" y1="33.0143005%" x2="43.404178%" y2="61.323685%" id="linearGradient-3">
            <stop stop-color="#464AF1" offset="0%"></stop>
            <stop stop-color="#2124B1" offset="100%"></stop>
        </linearGradient>
    </defs>
    <g id="数据大屏素材" stroke="none" stroke-width="1" fill="none" fill-rule="evenodd">
        <g id="素材" transform="translate(-301.000000, -264.000000)">
            <g id="西南" transform="translate(374.213626, 308.054989) rotate(-8.000000) translate(-374.213626, -308.054989) translate(315.213626, 274.054989)">
                <path d="M5.22878968,21.6299766 L3.66384254,23.0168962 L5.22878968,25.1452902 L2.4658291,26.2746635 L1.36980989,25.1452902 L0.582480697,26.2746635 L0.582480697,29.7489354 C2.63672193,29.8913677 3.66384254,30.1355508 3.66384254,30.4814848 C3.66384254,30.8274188 4.18549159,31.6781421 5.22878968,33.0336547 L7.70782128,33.6325252 L9.31494405,33.0336547 L12.6973021,34.3981732 L16.3363015,39.7070716 L18.0299643,38.1882696 L20.8446642,40.9144264 C22.4376031,41.7613074 23.2340726,42.1847479 23.2340726,42.1847479 C23.2340726,42.1847479 25.4989668,43.1356701 25.4989668,43.1356701 C25.4989668,43.1356701 29.2474497,43.727924 29.2474497,43.727924 C29.2474497,43.727924 34.4955845,43.727924 34.4955845,43.727924 C34.4955845,43.727924 34.7916799,43.727924 35.3838707,43.727924 C34.7916799,44.8855416 34.4955845,45.6373573 34.4955845,45.9833711 C34.4955845,46.5023919 36.2794843,44.2984654 38.3876853,44.2984654 C39.7931527,44.2984654 41.9083164,44.8601006 44.7331764,45.9833711 L46.3662355,48.1262681 L50.5299846,49.672522 L52.9554355,48.8877723 L56.8401993,48.1262681 L60.4971177,46.6780016 C62.850934,46.6780016 64.0278422,46.6780016 64.0278422,46.6780016 C64.0278422,46.6780016 64.7798411,47.4145918 66.2838388,48.8877723 C67.4855143,48.8552895 68.0863521,48.6014548 68.0863521,48.1262681 C68.0863521,47.6510814 68.3600147,47.1683259 68.90734,46.6780016 L71.7927736,48.1262681 L71.7927736,49.672522 L73.6962439,50.2142192 L70.8969601,54.6094735 L68.0863521,57.0890151 L67.2063926,58.6551372 L71.7927736,58.6551372 L71.7927736,61.2284327 L74.9688498,63.0411101 L72.5792558,65.0667084 L76.8398034,66.3762332 L76.8398034,67.2709043 L80.5385167,66.3762332 L81.3633491,67.9708042 L82.83706,67.9708042 L82.83706,65.0667084 L86.9945666,64.4685145 L89.0745712,64.4685145 L90.7632428,64.4685145 C90.6286398,64.4685145 90.9631805,64.4685145 91.7668648,64.4685145 C92.5705491,64.4685145 94.019832,63.992713 96.1147136,63.0411101 L97.6721858,63.0411101 L100.130087,62.2441629 L100.130087,61.2284327 L97.6721858,61.2284327 L96.1147136,60.1329903 L96.1147136,58.6551372 L97.6721858,58.6551372 L100.130087,58.6551372 L103.714949,57.0890151 C104.20781,56.1302665 104.87338,55.8905794 105.711658,56.3699537 C106.549937,56.849328 107.548766,57.0890151 108.708146,57.0890151 L111.378761,56.3699537 L114.97294,55.8465318 L114.97294,53.4451634 C114.475942,53.4451634 113.752663,53.4451634 112.803102,53.4451634 C111.853542,53.4451634 112.576821,52.5613744 114.97294,50.7937965 L113.885775,49.672522 L113.885775,48.1262681 L113.885775,46.6780016 L111.378761,44.2984654 L111.378761,42.1847479 L114.97294,42.1847479 L117.582481,40.9144264 L115.81748,39.7070716 L112.803102,38.6962844 C113.633952,39.0349609 113.159172,39.0349609 111.378761,38.6962844 C108.708146,38.1882696 105.711658,36.7402066 105.711658,36.7402066 C105.711658,36.7402066 104.748708,36.524718 102.822809,36.0937406 L101.316638,36.0937406 L97.6721858,36.7402066 L96.1147136,36.0937406 L94.1538037,33.0336547 L91.7668648,33.0336547 L90.7632428,32.2012526 L89.0745712,33.0336547 L89.0745712,33.6325252 C87.6879015,34.1429572 86.9945666,34.3981732 86.9945666,34.3981732 C86.9945666,34.3981732 86.7114544,34.3981732 86.1452301,34.3981732 L84.8127961,36.0937406 L82.83706,36.0937406 L80.5385167,36.0937406 C81.8627795,35.763537 81.577393,35.5984352 79.6823571,35.5984352 C77.7873213,35.5984352 76.2161522,35.1983479 74.9688498,34.3981732 C75.823731,32.5891824 75.0271997,31.684687 72.5792558,31.684687 C70.1313119,31.684687 69.5705467,32.1343429 70.8969601,33.0336547 L70.8969601,34.3981732 L70.8969601,35.5984352 C69.0232215,35.4976614 68.0863521,35.6627632 68.0863521,36.0937406 C68.0863521,36.524718 67.4855143,37.0097878 66.2838388,37.5489501 C63.5777595,37.0097878 62.2247198,36.7402066 62.2247198,36.7402066 C62.2247198,36.7402066 61.1773068,35.9595288 59.0824807,34.3981732 L52.9554355,34.3981732 L46.3662355,32.2012526 L43.8398277,30.4814848 L42.5712281,27.2113613 L43.8398277,25.1452902 C43.8398277,24.4288635 43.8398277,23.8950245 43.8398277,23.5437732 C43.8398277,23.1925218 43.4169611,22.7604057 42.5712281,22.2474249 C43.2536955,21.4679746 42.2264195,21.0782495 39.4893999,21.0782495 C36.7523804,21.0782495 34.5655886,21.0782495 32.9290244,21.0782495 C32.5872673,21.4460676 32.0412299,21.6299766 31.2909122,21.6299766 C30.1654357,21.6299766 25.623481,22.1817037 23.2340726,21.6299766 C21.6411337,21.2621585 20.3201619,21.0782495 19.2711573,21.0782495 L16.3363015,21.0782495 L14.2895178,19.9708042 L12.6973021,19.9708042 L10.6643501,19.9708042 L9.31494405,21.6299766 L5.22878968,21.6299766 Z" id="路径-7" fill="#040135" opacity="0.553045743" filter="url(#filter-1)"></path>
                <path d="M5.50713588,3.23706401 L3.94218874,5.11518428 L5.50713588,7.99738454 L2.7441753,9.52674417 L1.64815609,7.99738454 L0.860826899,9.52674417 L0.860826899,14.2314874 C2.91506813,14.4243645 3.94218874,14.7550291 3.94218874,15.2234814 C3.94218874,15.6919337 4.46383779,16.8439548 5.50713588,18.6795448 L7.98616748,19.4905153 L9.59329025,18.6795448 L12.9756483,20.5273302 L16.6146477,27.7164634 L18.3083105,25.6597524 L21.1230104,29.3514231 C22.7159493,30.4982411 23.5124188,31.0716501 23.5124188,31.0716501 C23.5124188,31.0716501 25.777313,32.3593574 25.777313,32.3593574 C25.777313,32.3593574 29.5257959,33.1613677 29.5257959,33.1613677 C29.5257959,33.1613677 34.7739307,33.1613677 34.7739307,33.1613677 C34.7739307,33.1613677 35.0700261,33.1613677 35.6622169,33.1613677 C35.0700261,34.7289749 34.7739307,35.7470587 34.7739307,36.2156191 C34.7739307,36.9184597 36.5578305,33.9339759 38.6660315,33.9339759 C40.0714989,33.9339759 42.1866626,34.6945236 45.0115226,36.2156191 L46.6445817,39.1174587 L50.8083308,41.2113442 L53.2337817,40.1486624 L57.1185455,39.1174587 L60.7754639,37.1562645 C63.1292802,37.1562645 64.3061884,37.1562645 64.3061884,37.1562645 C64.3061884,37.1562645 65.0581873,38.1537305 66.562185,40.1486624 C67.7638605,40.1046753 68.3646983,39.7609407 68.3646983,39.1174587 C68.3646983,38.4739767 68.6383609,37.8202453 69.1856862,37.1562645 L72.0711198,39.1174587 L72.0711198,41.2113442 L73.9745901,41.9448926 L71.1753063,47.8967995 L68.3646983,51.254512 L67.4847388,53.3753023 L72.0711198,53.3753023 L72.0711198,56.8599733 L75.247196,59.3146406 L72.857602,62.0576383 L77.1181496,63.8309532 L77.1181496,65.042487 L80.8168629,63.8309532 L81.6416953,65.9902681 L83.1154062,65.9902681 L83.1154062,62.0576383 L87.2729128,61.247584 L89.3529174,61.247584 L91.041589,61.247584 C90.906986,61.247584 91.2415267,61.247584 92.045211,61.247584 C92.8488953,61.247584 94.2981782,60.6032696 96.3930598,59.3146406 L97.950532,59.3146406 L100.408433,58.2354413 L100.408433,56.8599733 L97.950532,56.8599733 L96.3930598,55.3765618 L96.3930598,53.3753023 L97.950532,53.3753023 L100.408433,53.3753023 L103.993295,51.254512 C104.486156,49.9562067 105.151726,49.6316303 105.990005,50.280783 C106.828283,50.9299357 107.827112,51.254512 108.986492,51.254512 L111.657108,50.280783 L115.251286,49.5719825 L115.251286,46.3201294 C114.754288,46.3201294 114.031009,46.3201294 113.081449,46.3201294 C112.131888,46.3201294 112.855167,45.1233319 115.251286,42.7297368 L114.164121,41.2113442 L114.164121,39.1174587 L114.164121,37.1562645 L111.657108,33.9339759 L111.657108,31.0716501 L115.251286,31.0716501 L117.860827,29.3514231 L116.095826,27.7164634 L113.081449,26.3476891 C113.912298,26.8063136 113.437518,26.8063136 111.657108,26.3476891 C108.986492,25.6597524 105.990005,23.6988339 105.990005,23.6988339 C105.990005,23.6988339 105.027055,23.4070263 103.101155,22.8234111 L101.594984,22.8234111 L97.950532,23.6988339 L96.3930598,22.8234111 L94.4321499,18.6795448 L92.045211,18.6795448 L91.041589,17.5523336 L89.3529174,18.6795448 L89.3529174,19.4905153 C87.9662477,20.1817253 87.2729128,20.5273302 87.2729128,20.5273302 C87.2729128,20.5273302 86.9898006,20.5273302 86.4235763,20.5273302 L85.0911423,22.8234111 L83.1154062,22.8234111 L80.8168629,22.8234111 C82.1411257,22.3762604 81.8557392,22.1526851 79.9607033,22.1526851 C78.0656675,22.1526851 76.4944984,21.6109002 75.247196,20.5273302 C76.1020772,18.0776552 75.3055459,16.8528176 72.857602,16.8528176 C70.4096581,16.8528176 69.8488929,17.4617267 71.1753063,18.6795448 L71.1753063,20.5273302 L71.1753063,22.1526851 C69.3015677,22.0162205 68.3646983,22.2397959 68.3646983,22.8234111 C68.3646983,23.4070263 67.7638605,24.0638917 66.562185,24.7940074 C63.8561057,24.0638917 62.503066,23.6988339 62.503066,23.6988339 C62.503066,23.6988339 61.455653,22.641666 59.3608269,20.5273302 L53.2337817,20.5273302 L46.6445817,17.5523336 L44.1181739,15.2234814 L42.8495743,10.7951891 L44.1181739,7.99738454 C44.1181739,7.02722337 44.1181739,6.30431636 44.1181739,5.82866353 C44.1181739,5.35301069 43.6953073,4.76785348 42.8495743,4.0731919 C43.5320417,3.01768631 42.5047657,2.48993352 39.7677461,2.48993352 C37.0307266,2.48993352 34.8439348,2.48993352 33.2073706,2.48993352 C32.8656135,2.98802052 32.3195761,3.23706401 31.5692584,3.23706401 C30.4437819,3.23706401 25.9018272,3.9841945 23.5124188,3.23706401 C21.9194799,2.73897702 20.5985081,2.48993352 19.5495035,2.48993352 L16.6146477,2.48993352 L14.567864,0.990268069 L12.9756483,0.990268069 L10.9426963,0.990268069 L9.59329025,3.23706401 L5.50713588,3.23706401 Z" id="路径-7" fill="url(#linearGradient-2)"></path>
                <path d="M5.64630898,2.24679594 L4.08136184,4.12491621 L5.64630898,7.00711647 L2.8833484,8.5364761 L1.78732919,7.00711647 L1,8.5364761 L1,13.2412194 C3.05424123,13.4340964 4.08136184,13.764761 4.08136184,14.2332133 C4.08136184,14.7016656 4.60301089,15.8536867 5.64630898,17.6892767 L8.12534058,18.5002472 L9.73246335,17.6892767 L13.1148214,19.5370622 L16.7538208,26.7261954 L18.4474836,24.6694843 L21.2621835,28.361155 C22.8551225,29.507973 23.6515919,30.081382 23.6515919,30.081382 C23.6515919,30.081382 25.9164861,31.3690893 25.9164861,31.3690893 C25.9164861,31.3690893 29.664969,32.1710997 29.664969,32.1710997 C29.664969,32.1710997 34.9131038,32.1710997 34.9131038,32.1710997 C34.9131038,32.1710997 35.2091992,32.1710997 35.80139,32.1710997 C35.2091992,33.7387068 34.9131038,34.7567906 34.9131038,35.225351 C34.9131038,35.9281916 36.6970036,32.9437078 38.8052046,32.9437078 C40.210672,32.9437078 42.3258357,33.7042555 45.1506957,35.225351 L46.7837548,38.1271906 L50.9475039,40.2210762 L53.3729548,39.1583944 L57.2577186,38.1271906 L60.914637,36.1659964 C63.2684533,36.1659964 64.4453615,36.1659964 64.4453615,36.1659964 C64.4453615,36.1659964 65.1973604,37.1634624 66.7013581,39.1583944 C67.9030336,39.1144072 68.5038714,38.7706726 68.5038714,38.1271906 C68.5038714,37.4837087 68.777534,36.8299773 69.3248593,36.1659964 L72.2102929,38.1271906 L72.2102929,40.2210762 L74.1137632,40.9546245 L71.3144794,46.9065314 L68.5038714,50.2642439 L67.6239119,52.3850342 L72.2102929,52.3850342 L72.2102929,55.8697052 L75.3863691,58.3243726 L72.9967751,61.0673702 L77.2573227,62.8406851 L77.2573227,64.0522189 L80.956036,62.8406851 L81.7808684,65 L83.2545793,65 L83.2545793,61.0673702 L87.4120859,60.257316 L89.4920905,60.257316 L91.1807621,60.257316 C91.0461591,60.257316 91.3806998,60.257316 92.1843841,60.257316 C92.9880684,60.257316 94.4373513,59.6130015 96.5322329,58.3243726 L98.0897051,58.3243726 L100.547606,57.2451733 L100.547606,55.8697052 L98.0897051,55.8697052 L96.5322329,54.3862937 L96.5322329,52.3850342 L98.0897051,52.3850342 L100.547606,52.3850342 L104.132468,50.2642439 C104.625329,48.9659386 105.290899,48.6413622 106.129178,49.2905149 C106.967456,49.9396676 107.966286,50.2642439 109.125665,50.2642439 L111.796281,49.2905149 L115.390459,48.5817144 L115.390459,45.3298614 C114.893462,45.3298614 114.170182,45.3298614 113.220622,45.3298614 C112.271061,45.3298614 112.99434,44.1330638 115.390459,41.7394687 L114.303295,40.2210762 L114.303295,38.1271906 L114.303295,36.1659964 L111.796281,32.9437078 L111.796281,30.081382 L115.390459,30.081382 L118,28.361155 L116.234999,26.7261954 L113.220622,25.3574211 C114.051472,25.8160456 113.576691,25.8160456 111.796281,25.3574211 C109.125665,24.6694843 106.129178,22.7085658 106.129178,22.7085658 C106.129178,22.7085658 105.166228,22.4167582 103.240328,21.833143 L101.734157,21.833143 L98.0897051,22.7085658 L96.5322329,21.833143 L94.571323,17.6892767 L92.1843841,17.6892767 L91.1807621,16.5620656 L89.4920905,17.6892767 L89.4920905,18.5002472 C88.1054208,19.1914572 87.4120859,19.5370622 87.4120859,19.5370622 C87.4120859,19.5370622 87.1289737,19.5370622 86.5627494,19.5370622 L85.2303154,21.833143 L83.2545793,21.833143 L80.956036,21.833143 C82.2802988,21.3859924 81.9949123,21.162417 80.0998764,21.162417 C78.2048406,21.162417 76.6336715,20.6206321 75.3863691,19.5370622 C76.2412503,17.0873871 75.444719,15.8625496 72.9967751,15.8625496 C70.5488312,15.8625496 69.988066,16.4714586 71.3144794,17.6892767 L71.3144794,19.5370622 L71.3144794,21.162417 C69.4407408,21.0259525 68.5038714,21.2495278 68.5038714,21.833143 C68.5038714,22.4167582 67.9030336,23.0736236 66.7013581,23.8037393 C63.9952788,23.0736236 62.6422391,22.7085658 62.6422391,22.7085658 C62.6422391,22.7085658 61.5948261,21.6513979 59.5,19.5370622 L53.3729548,19.5370622 L46.7837548,16.5620656 L44.257347,14.2332133 L42.9887474,9.80492105 L44.257347,7.00711647 C44.257347,6.0369553 44.257347,5.31404829 44.257347,4.83839546 C44.257347,4.36274262 43.8344804,3.77758541 42.9887474,3.08292383 C43.6712148,2.02741824 42.6439388,1.49966545 39.9069192,1.49966545 C37.1698997,1.49966545 34.9831079,1.49966545 33.3465437,1.49966545 C33.0047866,1.99775245 32.4587492,2.24679594 31.7084315,2.24679594 C30.582955,2.24679594 26.0410003,2.99392643 23.6515919,2.24679594 C22.058653,1.74870895 20.7376812,1.49966545 19.6886766,1.49966545 L16.7538208,1.49966545 L14.7070371,-2.27373675e-13 L13.1148214,-2.27373675e-13 L11.0818694,-2.27373675e-13 L9.73246335,2.24679594 L5.64630898,2.24679594 Z" id="路径-7" fill="url(#linearGradient-3)" opacity="0.9"></path>
            </g>
        </g>
    </g>
</svg>