<?xml version="1.0" encoding="UTF-8"?>
<svg width="11px" height="12px" viewBox="0 0 11 12" version="1.1" xmlns="http://www.w3.org/2000/svg" xmlns:xlink="http://www.w3.org/1999/xlink">
    <title>澳大利亚</title>
    <g id="数据大屏素材" stroke="none" stroke-width="1" fill="none" fill-rule="evenodd">
        <g id="素材" transform="translate(-656.000000, -102.000000)" fill-rule="nonzero">
            <g id="澳大利亚" transform="translate(656.000000, 102.929012)">
                <path d="M10.2372265,5.11847829 C10.2372265,7.94532683 7.94547678,10.2369166 5.1184383,10.2369166 C2.29204962,10.2369166 0,7.94532683 0,5.11847829 C0,5.119438 5.1184383,0.00034989461 5.1184383,0 C7.94548678,0 10.2372265,2.29158976 10.2372265,5.11847829" id="Shape" fill="#0052B4"></path>
                <path d="M5.23333989,0 L5.22683989,0 L5.23333989,0 Z M5.10490238,5.20458248 L5.2329888,5.20458248 L5.2329888,5.10458248 C5.19023026,5.13853931 5.14756632,5.17098535 5.10490238,5.20458248 L5.10490238,5.20458248 Z" id="Shape" fill="#F0F0F0"></path>
                <path d="M5.1184383,2.67048564 L5.1184383,0.000149954833 L5.1177885,0.000149954833 C2.29078001,0.000499849443 0,2.29205962 0,5.11863824 L2.67063559,5.11863824 L2.67063559,3.6144813 L4.1742427,5.11863824 L5.10488238,5.11863824 C5.10940102,5.11396965 5.11390967,5.10946101 5.1184383,5.10478241 L5.1184383,4.17429268 L3.6148212,2.67049563 L5.1184383,2.67049563 L5.1184383,2.67048564 Z" id="Shape" fill="#F0F0F0"></path>
                <path d="M2.58966998,0.667528937 C1.78900114,1.12346161 1.12346161,1.78885119 0.667788859,2.58956001 L0.667788859,5.11831834 L2.00313665,5.11831834 L2.00313665,2.00280674 L5.1184383,2.00280674 L5.1184383,0.667528937 L2.58966998,0.667528937 Z" id="Shape" fill="#D80027"></path>
                <polygon id="Shape" fill="#D80027" points="5.1184383 4.48902788 3.300086 2.67063559 2.67063559 2.67063559 5.1184383 5.11831834"></polygon>
                <path d="M3.0869402,6.00864017 L3.36842541,6.59601325 L4.00238446,6.4494374 L3.71831003,7.03520096 L4.22843637,7.43971912 L3.59319771,7.58303595 L3.59514712,8.23410985 L3.0869402,7.82668257 L2.57904318,8.23410985 L2.58099259,7.58303595 L1.94572394,7.43971912 L2.45587028,7.03520096 L2.17210575,6.4494374 L2.8060748,6.59601325 L3.0869402,6.00864017 Z M7.66366167,7.12143499 L7.80391942,7.41504655 L8.12124384,7.34169864 L7.97902668,7.63465041 L8.23406986,7.83700945 L7.91648552,7.9085579 L7.91743523,8.2342698 L7.66366167,8.03046119 L7.40953821,8.2342698 L7.41053791,7.9085579 L7.09289359,7.83700945 L7.34796676,7.63465041 L7.20576959,7.34169864 L7.52305402,7.41504655 L7.66366167,7.12143499 Z M6.35704523,4.00579344 L6.49730298,4.299405 L6.81458741,4.2260271 L6.67241024,4.51886889 L6.92780331,4.72133791 L6.60984908,4.79295634 L6.6111187,5.11863824 L6.35704523,4.91481963 L6.10295176,5.11863824 L6.10391147,4.79295634 L5.78627715,4.72133791 L6.04135032,4.51886889 L5.89914315,4.2260271 L6.21642758,4.299405 L6.35704523,4.00579344 Z M7.66365167,2.22532972 L7.80390942,2.51924119 L8.12124384,2.44554339 L7.97902668,2.73885504 L8.23406986,2.9408642 L7.91648552,3.01244264 L7.91743523,3.33815453 L7.66366167,3.13434592 L7.40953821,3.33815453 L7.41053791,3.01245263 L7.09289359,2.94087419 L7.34796676,2.73885504 L7.20576959,2.44554339 L7.52305402,2.51924119 L7.66365167,2.22532972 Z M8.80484794,3.56062752 L8.94546558,3.85454899 L9.26244011,3.78090117 L9.12053285,4.07416284 L9.37595592,4.276172 L9.05801168,4.34775044 L9.0592813,4.67343234 L8.80484794,4.46965372 L8.55106438,4.67343234 L8.55171418,4.34775044 L8.23407986,4.276172 L8.48916302,4.07416284 L8.34729575,3.78090117 L8.66428028,3.85454899 L8.80484794,3.56062752 Z M7.98872376,5.11846829 L8.09929045,5.45848588 L8.45691274,5.45848588 L8.16766986,5.6685626 L8.27796664,6.00863017 L7.98872376,5.79869341 L7.69948088,6.00863017 L7.81004758,5.6685626 L7.5208047,5.45848588 L7.87842698,5.45848588 L7.98872376,5.11846829 Z" id="Shape" fill="#F0F0F0"></path>
            </g>
        </g>
    </g>
</svg>