<?xml version="1.0" encoding="UTF-8"?>
<svg width="11px" height="12px" viewBox="0 0 11 12" version="1.1" xmlns="http://www.w3.org/2000/svg" xmlns:xlink="http://www.w3.org/1999/xlink">
    <title>巴基斯坦</title>
    <g id="数据大屏素材" stroke="none" stroke-width="1" fill="none" fill-rule="evenodd">
        <g id="素材" transform="translate(-656.000000, -154.000000)">
            <g id="巴基斯坦" transform="translate(656.000000, 154.858025)">
                <circle id="Oval-2" fill="#FFFFFF" cx="5.12345679" cy="5.12345679" r="5.12345679"></circle>
                <path d="M5.12345679,-4.97379915e-14 C7.95306384,-4.97379915e-14 10.2469136,2.29384974 10.2469136,5.12345679 C10.2469136,7.95306384 7.95306384,10.2469136 5.12345679,10.2469136 C3.78589616,10.2469136 2.56804894,9.73435954 1.65561164,8.89494796 L1.65561164,1.35196562 C2.56804894,0.512554043 3.78589616,-4.97379915e-14 5.12345679,-4.97379915e-14 Z M4.99274402,2.889582 C4.69179638,2.98989429 4.3908595,3.16544349 4.16515954,3.41621883 C3.33757506,4.24380331 3.33757506,5.59803539 4.16515954,6.42561987 C4.99274402,7.25320435 6.34696533,7.25320435 7.17454981,6.42561987 C7.27487288,6.32530758 7.35009901,6.22499529 7.42533593,6.124683 C6.62282683,6.67640599 5.54447118,6.57608292 4.8422702,5.87389689 C4.06484725,5.09647394 4.06484725,3.79239261 4.8422702,3.01496967 C4.89243173,2.96480813 4.94259327,2.9146466 4.99274402,2.889582 Z M6.37205149,3.39115423 L6.42220224,3.8676403 L5.9958777,4.04317873 L6.44727762,4.14349102 L6.49743916,4.61997709 L6.72314989,4.21872793 L7.17454981,4.31904022 L6.87361294,3.96794181 L7.12439905,3.56669265 L6.69806374,3.74223108 L6.37205149,3.39115423 Z" id="Combined-Shape" fill="#0C3F22"></path>
            </g>
        </g>
    </g>
</svg>