<?xml version="1.0" encoding="UTF-8"?>
<svg width="10px" height="10px" viewBox="0 0 10 10" version="1.1" xmlns="http://www.w3.org/2000/svg" xmlns:xlink="http://www.w3.org/1999/xlink">
    <title>中国</title>
    <g id="数据大屏素材" stroke="none" stroke-width="1" fill="none" fill-rule="evenodd">
        <g id="素材" transform="translate(-625.000000, -149.000000)" fill-rule="nonzero">
            <g id="中国" transform="translate(625.000000, 149.000000)">
                <path d="M0.148291925,3.8117236 C0.622241484,1.85430175 2.23085728,0.37655781 4.22137463,0.070013918 C6.21189198,-0.236529974 8.19058032,0.688761527 9.23149657,2.41289083 C10.2724128,4.13702014 10.1696605,6.31894908 8.97132329,7.93762648 C7.77298613,9.55630388 5.716099,10.2915503 3.76319876,9.79930124 C2.48872356,9.48651485 1.39117588,8.67927726 0.712922554,7.55584734 C0.0346692244,6.43241743 -0.168495668,5.08521014 0.148291925,3.8117236" id="路径" fill="#E72D14"></path>
                <path d="M5.26009317,4.83656832 L5.0302795,5.11607143 L4.69487578,4.99805901 L4.88742236,5.30240683 L4.6576087,5.58190994 L5.00543478,5.49495342 L5.20419255,5.79930124 L5.20419255,5.4390528 L5.55822981,5.34588509 L5.22282609,5.21545031 L5.26009317,4.83656832 Z M6.60170807,4.07880435 L6.24145963,4.07880435 L6.12965839,3.75582298 L6.01785714,4.10364907 L5.6576087,4.10364907 L5.94953416,4.31482919 L5.83773292,4.66265528 L6.12965839,4.44526398 L6.42158385,4.66265528 L6.30978261,4.31482919 L6.60170807,4.07880435 Z M6.01164596,2.7496118 L6.06754658,3.13470497 L6.23524845,2.8117236 L6.59549689,2.86762422 L6.33462733,2.61296584 L6.50232919,2.28998447 L6.19177019,2.42663043 L5.9371118,2.17197205 L5.99301242,2.5322205 L5.67003106,2.69371118 L6.01164596,2.7496118 Z M5.26630435,1.09122671 L5.03649068,1.37072981 L4.69487578,1.23408385 L4.89363354,1.54464286 L4.6576087,1.81793478 L5.01164596,1.73097826 L5.20419255,2.03532609 L5.20419255,1.67507764 L5.57065217,1.58812112 L5.23524845,1.45147516 L5.26630435,1.09122671 Z M2.73835404,2.6875 L2.39673913,1.63781056 L2.05512422,2.6875 L0.955745342,2.6875 L1.8439441,3.33346273 L1.50232919,4.37694099 L2.39673913,3.75582298 L3.28493789,4.37694099 L2.94332298,3.33346273 L3.83773292,2.71234472 L2.73835404,2.6875 Z" id="形状" fill="#FFD700"></path>
            </g>
        </g>
    </g>
</svg>