<?xml version="1.0" encoding="UTF-8"?>
<svg width="10px" height="11px" viewBox="0 0 10 11" version="1.1" xmlns="http://www.w3.org/2000/svg" xmlns:xlink="http://www.w3.org/1999/xlink">
    <title>德国</title>
    <g id="数据大屏素材" stroke="none" stroke-width="1" fill="none" fill-rule="evenodd">
        <g id="素材" transform="translate(-625.000000, -112.000000)" fill-rule="nonzero">
            <g id="德国" transform="translate(625.000000, 112.663580)">
                <path d="M8.99344011,2.96288346 L0.321671921,2.96288346 C0.997394117,1.22852982 2.68106859,0.000967831271 4.65755601,0.000967831271 C6.62841242,0.000967831271 8.31771791,1.22852982 8.99344011,2.96288346 Z" id="Shape" fill="#000000"></path>
                <path d="M9.06101233,6.1444088 C8.4359693,7.98012077 6.70161566,9.29777905 4.65755601,9.29777905 C3.02456071,9.29777905 1.58865104,8.45875732 0.760891348,7.18614719 C0.546912653,6.85954812 0.377982104,6.51042499 0.254099701,6.1444088 L9.06101233,6.1444088 Z" id="Shape" fill="#FFCE00"></path>
                <path d="M9.30877713,4.64655793 C9.30877713,5.17024263 9.22431186,5.67140326 9.06101233,6.1444088 L0.254099701,6.1444088 C0.0908001701,5.66014123 0.00633489559,5.1589806 0.00633489559,4.64655793 C0.00633489559,4.04966999 0.118955262,3.48093714 0.321671921,2.96288346 L8.98780909,2.96288346 C9.19615677,3.48656816 9.30877713,4.05530101 9.30877713,4.64655793 L9.30877713,4.64655793 Z" id="Shape" fill="#DD0000"></path>
            </g>
        </g>
    </g>
</svg>