<?xml version="1.0" encoding="UTF-8"?>
<svg width="11px" height="12px" viewBox="0 0 11 12" version="1.1" xmlns="http://www.w3.org/2000/svg" xmlns:xlink="http://www.w3.org/1999/xlink">
    <title>俄罗斯</title>
    <g id="数据大屏素材" stroke="none" stroke-width="1" fill="none" fill-rule="evenodd">
        <g id="素材" transform="translate(-656.000000, -119.000000)" fill-rule="nonzero">
            <g id="俄罗斯" transform="translate(656.000000, 119.324074)">
                <path d="M5.12173057,0 C7.95004933,0 10.24313,2.29273939 10.24313,5.12140941 C10.24313,7.94971814 7.95004933,10.2427988 5.12173057,10.2427988 C2.29305051,10.2427988 0,7.94971814 0,5.12140941 C0,2.29273939 2.29305051,0 5.12173057,0" id="Shape" fill="#F0F0F0"></path>
                <path d="M9.9246627,6.90273648 C10.1305143,6.34778733 10.24313,5.7479866 10.24313,5.12140941 C10.24313,4.49481215 10.1305042,3.89500139 9.9246627,3.34005224 L0.31877837,3.34005224 C0.112926809,3.89501143 0,4.49481215 0,5.12140941 C0,5.7479866 0.112926809,6.34778733 0.31877837,6.90273648 L5.12137931,7.34801054 L9.9246627,6.90273648 Z" id="Shape" fill="#0A4FA2"></path>
                <path d="M5.12173057,10.2428088 C7.32346211,10.2428088 9.20096565,8.85316272 9.9246627,6.90273648 L0.31877837,6.90273648 C1.04214423,8.85316272 2.91932661,10.2428088 5.12173057,10.2428088" id="Shape" fill="#CB1428"></path>
            </g>
        </g>
    </g>
</svg>