<?xml version="1.0" encoding="UTF-8"?>
<svg width="11px" height="12px" viewBox="0 0 11 12" version="1.1" xmlns="http://www.w3.org/2000/svg" xmlns:xlink="http://www.w3.org/1999/xlink">
    <title>法国</title>
    <g id="数据大屏素材" stroke="none" stroke-width="1" fill="none" fill-rule="evenodd">
        <g id="素材" transform="translate(-656.000000, -135.000000)" fill-rule="nonzero">
            <g id="法国" transform="translate(656.000000, 135.719136)">
                <path d="M0,5.12345679 C0,7.95306384 2.29384974,10.2469136 5.12345679,10.2469136 C7.95306384,10.2469136 10.2469136,7.95306384 10.2469136,5.12345679 C10.2469136,2.29384974 7.95306384,0 5.12345679,0 C2.29384974,0 0,2.29384974 0,5.12345679 Z" id="Shape" fill="#F0F0F0"></path>
                <path d="M10.2469136,5.12345679 C10.2469136,2.92055049 8.85653549,1.04258343 6.90551915,0.31867501 L6.90551915,9.92825858 C8.85653549,9.20433015 10.2469136,7.32636309 10.2469136,5.12345679 Z" id="Shape" fill="#D80027"></path>
                <path d="M0,5.12345679 C0,7.32636309 1.3903981,9.20433015 3.34139443,9.92823857 L3.34139443,0.31867501 C1.3903981,1.04258343 0,2.92055049 0,5.12345679 Z" id="Shape" fill="#0052B4"></path>
            </g>
        </g>
    </g>
</svg>