<?xml version="1.0" encoding="UTF-8"?>
<svg width="10px" height="11px" viewBox="0 0 10 11" version="1.1" xmlns="http://www.w3.org/2000/svg" xmlns:xlink="http://www.w3.org/1999/xlink">
    <title>加拿大</title>
    <g id="数据大屏素材" stroke="none" stroke-width="1" fill="none" fill-rule="evenodd">
        <g id="素材" transform="translate(-624.000000, -83.000000)" fill-rule="nonzero">
            <g id="加拿大" transform="translate(624.000000, 83.716049)">
                <path d="M4.65768799,0.00214029426 C2.09601056,0.00214029426 0.00871405521,2.08943679 0.00871405521,4.65112442 C0.00871405521,7.21281205 2.09601056,9.30010855 4.65768799,9.30010855 C7.21936543,9.30010855 9.30666193,7.21281205 9.30666193,4.65112442 C9.30666193,2.08943679 7.26680862,0.00214029426 4.65768799,0.00214029426" id="Shape" fill="#FAFAFA"></path>
                <path d="M6.93473687,0.602238038 L6.93473687,8.76168186 C8.35790006,7.95521898 9.30666193,6.43718979 9.30666193,4.68196504 C9.35410512,2.92674029 8.35790006,1.40870092 6.93473687,0.602238038 M6.41291274,3.97038854 C5.79621243,4.06526473 5.74877943,4.16014092 5.74877943,3.73319298 C5.55901686,3.92294535 5.32183149,4.3024501 5.17951212,4.39733648 C5.08462574,4.49221267 5.03719274,4.39733648 5.08462574,4.34989329 C5.08462574,4.3024501 5.41670768,3.63831679 5.41670768,3.30624504 C5.08463593,3.54344061 4.94231655,3.40113142 4.6102448,2.64210154 C4.32561624,3.35368823 4.13586387,3.49599742 3.80379212,3.30624504 C3.8512353,3.68574979 4.13586387,4.3024501 4.13586387,4.34989329 C4.13586387,4.39733648 4.13586387,4.49221267 4.04097749,4.39733648 C3.8986683,4.3024501 3.66148293,3.87551236 3.47172036,3.73319298 C3.51916355,4.16013073 3.42428737,4.06526473 2.80758705,3.97038854 C2.85502005,4.44476948 3.04477243,4.63452185 2.66526768,4.72939804 C3.56659655,5.53586092 3.61403974,5.58329392 3.28197818,5.96280886 C3.99354449,5.86792248 4.42049243,5.6781701 4.42049243,5.6781701 C4.46793562,5.6781701 4.46793562,5.72561329 4.46793562,5.72561329 L4.46793562,6.81669454 L4.75256418,6.81669454 L4.75256418,5.72561329 C4.75256418,5.6781701 4.75256418,5.63072691 4.80000737,5.6781701 C4.80000737,5.6781701 5.17951212,5.86792248 5.9385318,5.96280886 C5.60646005,5.63073711 5.65389305,5.53586092 6.55523212,4.72939804 C6.22316037,4.63452185 6.36547974,4.44476948 6.41291274,3.97038854 M2.38063912,0.602238038 L2.38063912,8.76167166 C0.957475926,7.95521898 0.00871405521,6.43718979 0.00871405521,4.68196504 C0.00871405521,2.92674029 0.957475926,1.40870092 2.38063912,0.602238038" id="Shape" fill="#EB0000"></path>
            </g>
        </g>
    </g>
</svg>