<?xml version="1.0" encoding="UTF-8"?>
<svg width="10px" height="10px" viewBox="0 0 10 10" version="1.1" xmlns="http://www.w3.org/2000/svg" xmlns:xlink="http://www.w3.org/1999/xlink">
    <title>美国</title>
    <g id="数据大屏素材" stroke="none" stroke-width="1" fill="none" fill-rule="evenodd">
        <g id="素材" transform="translate(-625.000000, -54.000000)" fill-rule="nonzero">
            <g id="美国" transform="translate(625.000000, 54.000000)">
                <path d="M0.138867263,3.56947031 C0.582695057,1.736452 2.08907561,0.352625757 3.95308605,0.0655641982 C5.81709649,-0.221497361 7.67002972,0.644987434 8.64479075,2.25954006 C9.61955178,3.8740927 9.52332983,5.9173496 8.40115273,7.4331523 C7.27897563,8.948955 5.35281353,9.63747298 3.52402945,9.17650872 C2.33055326,8.8836014 1.30275999,8.12766762 0.667612912,7.07563706 C0.0324658291,6.02360649 -0.157786961,4.76202069 0.138867263,3.56947031" id="Shape" fill="#F7F8F8"></path>
                <path d="M8.92167638,2.93547946 L5.33293915,2.93547946 L5.33293915,3.62763461 L9.14851715,3.62763461 C9.09052701,3.39150857 9.01469555,3.1601254 8.92167638,2.93547946 M8.00268046,1.49882128 L5.33293915,1.49882128 L5.33293915,2.20842572 L8.5552413,2.20842572 C8.39439897,1.95460404 8.20934789,1.71695948 8.00268046,1.49882128 M1.29052038,7.89689414 L7.98523117,7.89689414 C8.19973343,7.67804152 8.39437878,7.44057419 8.56687416,7.1872897 L0.732143111,7.1872897 C0.900851034,7.44338477 1.09578456,7.68120368 1.3137861,7.89689414 M5.74590567,0.184308122 C5.61212778,0.149409543 5.47253346,0.120327393 5.33293915,0.0970616736 L5.33293915,0.78921683 L7.1534817,0.78921683 C6.72141999,0.515465264 6.24517964,0.318671729 5.74590567,0.207573841 M9.2357636,4.36050478 L5.33293915,4.36050478 L5.33293915,5.07010922 L9.25321289,5.07010922 C9.27354379,4.83401128 9.27354379,4.59660272 9.25321289,4.36050478 M0.359891599,6.46605239 L8.91004352,6.46605239 C9.00278987,6.24785205 9.07673329,6.02213004 9.13106786,5.79134653 L9.13106786,5.75644795 L0.127234404,5.75644795 C0.183678485,5.99938947 0.261535251,6.2368526 0.359891599,6.46605239 M3.52402945,9.17650872 C3.79187456,9.25444842 4.06645551,9.30702776 4.34414607,9.33355233 L4.92578906,9.33355233 C5.70152376,9.28723045 6.45245368,9.04292792 7.10695026,8.62394788 L2.151352,8.62394788 C2.57415041,8.89135039 3.03782642,9.08782328 3.52402945,9.20559087" id="Shape" fill="#E72D14"></path>
                <path d="M4.97813692,4.78510416 L4.87925762,4.715307 L4.78037831,4.78510416 L4.81527689,4.66877556 L4.71639758,4.5989784 L4.83854261,4.5989784 L4.87925762,4.47683337 L4.91997263,4.5989784 L5.04211765,4.5989784 L4.94323835,4.66877556 L4.97813692,4.78510416 Z M4.48955681,1.05095617 L4.52445539,1.19055049 L4.42557609,1.1149369 L4.32669678,1.19055049 L4.36159536,1.06840546 L4.26271605,0.998608305 L4.38486108,0.998608305 L4.42557609,0.876463278 L4.4662911,0.998608305 L4.58843612,0.998608305 L4.48955681,1.05095617 Z M4.48955681,2.12117927 L4.52445539,2.23750787 L4.42557609,2.16189428 L4.32669678,2.23750787 L4.36159536,2.12117927 L4.26271605,2.04556568 L4.38486108,2.04556568 L4.42557609,1.92923709 L4.4662911,2.04556568 L4.58843612,2.04556568 L4.48955681,2.12117927 Z M4.48955681,3.16232022 L4.53027182,3.28446525 L4.42557609,3.20885166 L4.32669678,3.28446525 L4.36741179,3.16232022 L4.26271605,3.09252306 L4.39067751,3.09252306 L4.42557609,2.97619446 L4.4662911,3.09252306 L4.57680326,3.09252306 L4.48955681,3.16232022 Z M4.48955681,4.3256062 L4.39067751,4.25580904 L4.2917982,4.3256062 L4.32669678,4.2092776 L4.24526676,4.09876543 L4.36741179,4.09876543 L4.4081268,3.98243683 L4.44302538,4.09876543 L4.57098683,4.09876543 L4.4662911,4.17437902 L4.48955681,4.3256062 Z M4.01260956,1.56861843 L4.05332457,1.68494703 L3.95444527,1.61514987 L3.84974953,1.68494703 L3.89046454,1.56861843 L3.79158523,1.49882128 L3.91373026,1.49882128 L3.95444527,1.37667625 L3.98934384,1.49882128 L4.1173053,1.49882128 L4.01260956,1.56861843 Z M4.01260956,2.60394295 L4.05332457,2.72027155 L3.95444527,2.65047439 L3.84974953,2.72027155 L3.89046454,2.60394295 L3.79158523,2.52832936 L3.91373026,2.52832936 L3.95444527,2.41200077 L3.98934384,2.52832936 L4.1173053,2.52832936 L4.01260956,2.60394295 Z M4.01260956,3.66253319 L4.05332457,3.77886179 L3.95444527,3.7032482 L3.84974953,3.77886179 L3.89046454,3.66253319 L3.79158523,3.5869196 L3.91373026,3.5869196 L3.95444527,3.470591 L3.98934384,3.5869196 L4.1173053,3.5869196 L4.01260956,3.66253319 Z M4.05332457,4.78510416 L3.95444527,4.715307 L3.84974953,4.78510416 L3.89046454,4.66877556 L3.79158523,4.5989784 L3.91373026,4.5989784 L3.95444527,4.47683337 L3.98934384,4.5989784 L4.1173053,4.5989784 L4.01260956,4.68040842 L4.05332457,4.78510416 Z M3.55892803,1.05095617 L3.59964304,1.19055049 L3.50076373,1.1149369 L3.396068,1.19055049 L3.43678301,1.06840546 L3.3379037,0.998608305 L3.47168159,0.998608305 L3.51239659,0.876463278 L3.54729517,0.998608305 L3.67525663,0.998608305 L3.55892803,1.05095617 Z M3.55892803,2.12117927 L3.59964304,2.23750787 L3.50076373,2.16189428 L3.396068,2.23750787 L3.43678301,2.12117927 L3.3379037,2.04556568 L3.47168159,2.04556568 L3.51239659,1.92923709 L3.54729517,2.04556568 L3.67525663,2.04556568 L3.55892803,2.12117927 Z M3.55892803,3.16232022 L3.59382661,3.28446525 L3.47168159,3.20885166 L3.37280228,3.28446525 L3.40770086,3.16232022 L3.30882155,3.09252306 L3.47168159,3.09252306 L3.47168159,2.97619446 L3.51239659,3.09252306 L3.63454162,3.09252306 L3.55892803,3.16232022 Z M3.55892803,4.3256062 L3.47168159,4.24417618 L3.36698585,4.31397334 L3.40770086,4.19764474 L3.32045441,4.09876543 L3.47168159,4.09876543 L3.47168159,4.00570255 L3.50658016,4.12203115 L3.62872519,4.12203115 L3.52984588,4.19764474 L3.55892803,4.3256062 Z M3.06453149,0.544926775 L3.1052465,0.667071802 L3.02381648,0.608907503 L2.92493718,0.684521092 L2.96565219,0.562376064 L2.8900386,0.463496756 L3.01218362,0.463496756 L3.0470822,0.347168159 L3.08779721,0.463496756 L3.20994224,0.463496756 L3.06453149,0.544926775 Z M3.06453149,1.58025129 L3.1052465,1.69657989 L3.00055077,1.62678273 L2.90167146,1.69657989 L2.94238647,1.58025129 L2.8900386,1.49882128 L3.01218362,1.49882128 L3.0470822,1.37667625 L3.08779721,1.49882128 L3.20994224,1.49882128 L3.06453149,1.58025129 Z M3.06453149,2.61557581 L3.1052465,2.73190441 L3.00055077,2.66210725 L2.90167146,2.73190441 L2.94238647,2.61557581 L2.8900386,2.52832936 L3.01218362,2.52832936 L3.0470822,2.41200077 L3.08779721,2.52832936 L3.20994224,2.52832936 L3.06453149,2.61557581 Z M3.06453149,3.67416605 L3.1052465,3.79049465 L3.00055077,3.71488106 L2.90167146,3.79049465 L2.94238647,3.67416605 L2.8900386,3.5869196 L3.01218362,3.5869196 L3.0470822,3.470591 L3.08779721,3.5869196 L3.20994224,3.5869196 L3.06453149,3.67416605 Z M3.1052465,4.79673702 L3.00055077,4.72693986 L2.90167146,4.79673702 L2.94238647,4.68040842 L2.8900386,4.5989784 L3.01218362,4.5989784 L3.0470822,4.47683337 L3.08779721,4.5989784 L3.20994224,4.5989784 L3.08779721,4.68040842 L3.1052465,4.79673702 Z M2.63411568,1.01605759 L2.67483069,1.13238619 L2.57013495,1.06258903 L2.47125565,1.13238619 L2.51197066,1.01605759 L2.40727492,0.940444006 L2.53523637,0.940444006 L2.57013495,0.824115409 L2.61084996,0.940444006 L2.73299499,0.940444006 L2.63411568,1.01605759 Z M2.63411568,2.08046426 L2.67483069,2.19679286 L2.57013495,2.1269957 L2.47125565,2.19679286 L2.51197066,2.08046426 L2.40727492,2.0106671 L2.53523637,2.0106671 L2.57013495,1.89433851 L2.61084996,2.0106671 L2.73299499,2.0106671 L2.63411568,2.08046426 Z M2.63411568,3.12742164 L2.67483069,3.24375024 L2.57595138,3.17395308 L2.47125565,3.24375024 L2.51197066,3.12742164 L2.40145849,3.05180805 L2.52360351,3.05180805 L2.56431852,2.93547946 L2.5992171,3.05180805 L2.72717856,3.05180805 L2.63411568,3.12742164 Z M2.63411568,4.29070762 L2.53523637,4.21509403 L2.43635707,4.29070762 L2.47707208,4.17437902 L2.38982563,4.09876543 L2.51778708,4.09876543 L2.55268566,3.98243683 L2.59340067,4.09876543 L2.7155457,4.09876543 L2.61666639,4.17437902 L2.63411568,4.29070762 Z M2.16298486,1.56861843 L2.19788344,1.68494703 L2.09900413,1.61514987 L2.00012483,1.68494703 L2.04083983,1.56861843 L1.9361441,1.49882128 L2.06410555,1.49882128 L2.09900413,1.37667625 L2.13971914,1.49882128 L2.26186417,1.49882128 L2.16298486,1.56861843 Z M2.16298486,2.60394295 L2.19788344,2.72027155 L2.09900413,2.65047439 L2.00012483,2.72027155 L2.04083983,2.60394295 L1.9361441,2.52832936 L2.06410555,2.52832936 L2.09900413,2.41200077 L2.13971914,2.52832936 L2.26186417,2.52832936 L2.16298486,2.60394295 Z M2.16298486,3.66253319 L2.19788344,3.77886179 L2.09900413,3.7032482 L2.00012483,3.77886179 L2.04083983,3.66253319 L1.9361441,3.5869196 L2.06410555,3.5869196 L2.09900413,3.470591 L2.13971914,3.5869196 L2.26186417,3.5869196 L2.16298486,3.66253319 Z M2.19788344,4.78510416 L2.09900413,4.715307 L2.00012483,4.78510416 L2.04083983,4.66877556 L1.9361441,4.5989784 L2.06410555,4.5989784 L2.09900413,4.47683337 L2.13971914,4.5989784 L2.26186417,4.5989784 L2.16298486,4.68040842 L2.19788344,4.78510416 Z M1.72675262,2.07464783 L1.7616512,2.19097643 L1.66277189,2.11536284 L1.56389258,2.19097643 L1.59879116,2.07464783 L1.49991186,1.99903424 L1.61042402,1.99903424 L1.6453226,1.88270565 L1.68603761,1.99903424 L1.80818264,1.99903424 L1.72675262,2.07464783 Z M1.72675262,3.11578878 L1.76746763,3.23211738 L1.66858832,3.16232022 L1.56389258,3.23211738 L1.60460759,3.11578878 L1.50572829,3.04599162 L1.62787331,3.04599162 L1.63950617,2.93547946 L1.67440475,3.05762448 L1.79654978,3.05762448 L1.72675262,3.11578878 Z M1.72675262,4.27907476 L1.62787331,4.2092776 L1.52899401,4.27907476 L1.56389258,4.16274616 L1.46501328,4.09876543 L1.5871583,4.09876543 L1.62787331,3.98243683 L1.66858832,4.09876543 L1.79073335,4.09876543 L1.69185404,4.17437902 L1.72675262,4.27907476 Z M3.91373026,0.463496756 L3.95444527,0.347168159 L3.98934384,0.463496756 L4.1173053,0.463496756 L4.01260956,0.533293915 L4.05332457,0.655438942 L3.95444527,0.608907503 L3.84974953,0.684521092 L3.89046454,0.562376064 L3.79158523,0.492578906 L3.91373026,0.463496756 Z M4.83854261,3.5869196 L4.87925762,3.470591 L4.91997263,3.5869196 L5.04211765,3.5869196 L4.94323835,3.66253319 L4.97813692,3.77886179 L4.87925762,3.7032482 L4.78037831,3.77886179 L4.81527689,3.66253319 L4.71639758,3.5869196 L4.83854261,3.5869196 Z M4.83854261,2.52832936 L4.87925762,2.41200077 L4.91997263,2.52832936 L5.04211765,2.52832936 L4.94323835,2.60394295 L4.97813692,2.72027155 L4.87925762,2.65047439 L4.78037831,2.72027155 L4.81527689,2.60394295 L4.71639758,2.52832936 L4.83854261,2.52832936 Z M4.83854261,1.49882128 L4.87925762,1.37667625 L4.91997263,1.49882128 L5.04211765,1.49882128 L4.94323835,1.56861843 L4.97813692,1.68494703 L4.87925762,1.61514987 L4.78037831,1.68494703 L4.81527689,1.56861843 L4.71639758,1.49882128 L4.83854261,1.49882128 Z M4.83854261,0.463496756 L4.87925762,0.347168159 L4.91997263,0.463496756 L5.04211765,0.463496756 L4.94323835,0.533293915 L4.97813692,0.655438942 L4.87925762,0.608907503 L4.78037831,0.684521092 L4.81527689,0.562376064 L4.71639758,0.492578906 L4.83854261,0.463496756 Z M1.23817251,2.60394295 L1.27307109,2.72027155 L1.17419178,2.65047439 L1.07531247,2.72027155 L1.11021105,2.60394295 L1.01133175,2.52832936 L1.14510963,2.52832936 L1.18582464,2.41200077 L1.22072322,2.52832936 L1.34868468,2.52832936 L1.23817251,2.60394295 Z M1.23817251,3.66253319 L1.27307109,3.77886179 L1.17419178,3.7032482 L1.07531247,3.77886179 L1.11021105,3.66253319 L1.01133175,3.5869196 L1.14510963,3.5869196 L1.18582464,3.470591 L1.22072322,3.5869196 L1.34868468,3.5869196 L1.23817251,3.66253319 Z M1.27307109,4.78510416 L1.17419178,4.715307 L1.07531247,4.78510416 L1.11021105,4.66877556 L1.01133175,4.5989784 L1.14510963,4.5989784 L1.18582464,4.47683337 L1.22072322,4.5989784 L1.34868468,4.5989784 L1.23817251,4.68040842 L1.27307109,4.78510416 Z M0.772858121,3.09833949 L0.8077567,3.21466809 L0.708877392,3.14487093 L0.609998084,3.21466809 L0.644896663,3.09833949 L0.563466645,3.02854233 L0.691428102,3.02854233 L0.708877392,2.93547946 L0.749592401,3.05762448 L0.871737428,3.05762448 L0.772858121,3.09833949 Z M0.80194027,4.26162547 L0.703060962,4.18601188 L0.598365224,4.26162547 L0.639080233,4.14529687 L0.563466645,4.05805042 L0.685611672,4.05805042 L0.726326681,3.94172183 L0.761225261,4.05805042 L0.883370288,4.05805042 L0.78449098,4.13366401 L0.80194027,4.26162547 Z M0.348258739,4.79673702 L0.249379431,4.72693986 L0.144683693,4.79673702 L0.185398702,4.68040842 L0.0865193945,4.61061126 L0.208664422,4.61061126 L0.249379431,4.48846623 L0.28427801,4.61061126 L0.406423038,4.61061126 L0.30754373,4.68040842 L0.348258739,4.79673702 Z M5.33293915,0.0970616736 L4.90252334,0.0272645151 L4.05332457,0.079612384 C3.20141247,0.188193691 2.3961689,0.530422209 1.72675262,1.06840546 L1.72675262,1.12075333 L1.72675262,1.09167118 C1.57037844,1.215144 1.42447153,1.35132379 1.29052038,1.49882128 L1.36031754,1.49882128 L1.26143823,1.56861843 L1.29633681,1.68494703 L1.1974575,1.61514987 L1.14510963,1.64423202 C1.05204675,1.74892776 0.964800307,1.86525636 0.877553858,1.98158496 L0.81357313,2.0688314 L0.81357313,2.15026142 L0.755408831,2.11536284 C0.466880426,2.56051416 0.258237715,3.05259602 0.138867263,3.56947031 L0.214480852,3.56947031 L0.255195861,3.45314172 L0.29009444,3.56947031 L0.412239468,3.56947031 L0.31336016,3.6450839 L0.354075169,3.7614125 L0.255195861,3.68579891 L0.150500123,3.7614125 L0.191215132,3.6450839 L0.133050834,3.59855246 C0.0188131876,4.06831897 -0.0185083647,4.55349916 0.0225386658,5.03521064 L5.33293915,5.03521064 L5.33293915,0.0970616736 Z" id="Shape" fill="#073470"></path>
            </g>
        </g>
    </g>
</svg>