<?xml version="1.0" encoding="UTF-8"?>
<svg width="11px" height="12px" viewBox="0 0 11 12" version="1.1" xmlns="http://www.w3.org/2000/svg" xmlns:xlink="http://www.w3.org/1999/xlink">
    <title>日本国旗</title>
    <g id="数据大屏素材" stroke="none" stroke-width="1" fill="none" fill-rule="evenodd">
        <g id="素材" transform="translate(-656.000000, -86.000000)" fill-rule="nonzero">
            <g id="日本国旗" transform="translate(656.000000, 86.533951)">
                <path d="M10.2469136,5.12345679 C10.2469136,2.30267721 7.96726314,0.0149674019 5.15108892,0 L5.096976,0 C2.27965044,0.0149674019 0,2.30267721 0,5.12345679 C0,7.94423637 2.27965044,10.2319462 5.09582466,10.2469136 L5.14993758,10.2469136 C7.96726314,10.2319462 10.2469136,7.94423637 10.2469136,5.12345679 Z M2.08392287,5.12345679 C2.08392287,3.44365377 3.4448051,2.08277154 5.12460813,2.08277154 C6.80325981,2.08277154 8.16414204,3.44365377 8.16414204,5.12345679 C8.16414204,6.80210848 6.80325981,8.16299071 5.12460813,8.16299071 C3.4448051,8.16299071 2.08392287,6.80210848 2.08392287,5.12345679 Z" id="Shape" fill="#FFFFFF"></path>
                <path d="M8.16299071,5.12345679 C8.16299071,3.44365377 6.80210848,2.08277154 5.12345679,2.08277154 C3.4448051,2.08392287 2.08392287,3.4448051 2.08392287,5.12345679 C2.08392287,6.80210848 3.4448051,8.16299071 5.12460813,8.16299071 C6.80210848,8.16299071 8.16299071,6.80210848 8.16299071,5.12345679 Z" id="Shape" fill="#EB0000"></path>
            </g>
        </g>
    </g>
</svg>