<?xml version="1.0" encoding="UTF-8"?>
<svg width="11px" height="12px" viewBox="0 0 11 12" version="1.1" xmlns="http://www.w3.org/2000/svg" xmlns:xlink="http://www.w3.org/1999/xlink">
    <title>西班牙</title>
    <g id="数据大屏素材" stroke="none" stroke-width="1" fill="none" fill-rule="evenodd">
        <g id="素材" transform="translate(-656.000000, -70.000000)" fill-rule="nonzero">
            <g id="西班牙" transform="translate(656.000000, 70.138889)">
                <path d="M0.730609533,7.73802801 C0.669725406,7.69667276 0.652494049,7.62544981 0.619180092,7.5668632 C0.444569008,7.25784753 0.313610696,6.929303 0.211371312,6.58927089 C0.0470990422,6.04590876 -0.0160825998,5.48991031 0.00344627138,4.92357305 C0.0298676853,4.19296352 0.209073797,3.50026297 0.53187455,2.84547141 C0.615733821,2.67430659 0.709931905,2.50888557 0.816766318,2.35150584 C0.859270332,2.32393567 0.907518131,2.33197697 0.954617173,2.33197697 L9.29229641,2.33197697 C9.33709794,2.33197697 9.38189946,2.32508443 9.42325472,2.35035708 C9.5817832,2.57551348 9.70584897,2.82019875 9.81612966,3.07292532 C10.1676493,3.87705531 10.3020539,4.71679677 10.2239384,5.59100094 C10.1871782,6.00455351 10.1044677,6.40891602 9.96661684,6.8006422 C9.85863367,7.10736035 9.72767536,7.40373969 9.56110557,7.68288767 C9.54846925,7.7035653 9.54042795,7.72883796 9.51400653,7.73802801" id="Shape" fill="#FDC200"></path>
                <path d="M9.45771743,7.74262304 C9.47954382,7.74262304 9.50251896,7.74032553 9.52434535,7.74032553 C9.51975032,7.81154847 9.46690749,7.85979627 9.43129602,7.91378785 C8.96260311,8.63290982 8.35376183,9.20154459 7.60247467,9.61509716 C7.07749266,9.90458396 6.5191967,10.0952776 5.92528927,10.1860295 C5.25326635,10.2894176 4.58583845,10.2652937 3.92645186,10.1067652 C3.25442894,9.94593921 2.63984388,9.65645242 2.08384543,9.24289985 C1.58413608,8.8718513 1.16598848,8.42383602 0.825956375,7.90230028 C0.792642418,7.85175497 0.748989647,7.80465593 0.742097105,7.74032553 L9.45771743,7.74262304 Z M0.853526546,2.31359686 C1.12693074,1.89315175 1.45892155,1.52440071 1.84260643,1.20159996 C2.22858883,0.877650446 2.65248021,0.615733821 3.11542933,0.418147595 C3.51634557,0.246982782 3.93104689,0.127512041 4.36297957,0.0643303992 C4.77078835,0.00459502851 5.18319216,-0.00804129989 5.59329846,0.0275701711 C6.18605713,0.0792642418 6.75354315,0.230900183 7.29231025,0.481329237 C7.90574655,0.767369761 8.44221613,1.15909594 8.89942147,1.65765654 C9.09011515,1.86558158 9.26932126,2.08384543 9.41751093,2.32508443 C9.38189946,2.34920833 9.34054421,2.33886951 9.30148646,2.33886951 C6.89828655,2.34001827 4.49393788,2.33886951 2.09073797,2.33886951 C1.70590433,2.33886951 1.32221945,2.33886951 0.937385816,2.33772076 C0.908666888,2.34001827 0.869609146,2.35724963 0.853526546,2.31359686 L0.853526546,2.31359686 Z" id="Shape" fill="#C40B1E"></path>
                <path d="M4.96263079,5.87359519 C4.94539944,5.76331451 4.96722582,5.65418258 4.97411836,5.54505066 C4.97526712,5.53700936 4.97641588,5.52896806 4.97871339,5.52092676 C5.00053978,5.4795715 5.03615125,5.4474063 5.06372142,5.40949731 C5.13953939,5.35435697 5.21880363,5.30725793 5.31759674,5.31185296 C5.3348281,5.31300172 5.34976194,5.3026629 5.36584454,5.29691912 C5.53011681,5.34057189 5.62776117,5.44625754 5.65992637,5.61282733 C5.66567015,5.64384377 5.66911643,5.67830648 5.70587665,5.69209157 C5.87589271,5.70702541 6.04705752,5.6966866 6.21707358,5.69783535 C6.40776726,5.69898411 6.37560206,5.71162044 6.37675082,5.85406632 C6.37789957,5.99306594 6.37100703,6.13091679 6.37904833,6.2699164 C6.38938714,6.45831257 6.3583707,6.63292366 6.24349499,6.78685711 C6.24004872,6.79030338 6.23545369,6.79145214 6.23085866,6.79145214 C6.15389193,6.83855118 6.07922272,6.88794774 5.99191718,6.9132204 L5.99306594,6.91207164 C5.92299175,6.94883187 5.84717378,6.92815424 5.77365332,6.93160051 C5.74378564,6.93274927 5.71391795,6.93160051 5.68519903,6.93160051 C5.58870343,6.93849305 5.52552178,6.87416265 5.4554476,6.82361734 C5.44625754,6.8167248 5.439365,6.8086835 5.4313237,6.8006422 C5.4071998,6.76503073 5.37848087,6.73516304 5.35205946,6.70184908 C5.32219177,6.6558988 5.14068815,6.82131983 5.11311798,6.77422078 C5.09244035,6.67657643 5.10048165,6.51575043 5.0935891,6.41695732 C5.09129159,6.38708963 5.08325029,6.02982616 5.07865526,6.00110724" id="Shape" fill="#AA1619"></path>
                <path d="M5.67715773,5.70702541 C5.64614128,5.69324033 5.65418258,5.66337264 5.64729004,5.63809998 C5.61742236,5.50599291 5.57147207,5.38652217 5.42213364,5.34861319 C5.40030726,5.3428694 5.39571223,5.3026629 5.36354703,5.32219177 C5.31415047,5.31989426 5.28543155,5.30036539 5.28543155,5.2463738 C5.28543155,5.02925871 5.28313403,4.81214361 5.2865803,4.59502851 C5.2865803,4.58239218 5.29002657,4.57090461 5.2946216,4.55941704 C5.3187455,4.51691303 5.358952,4.51002048 5.40260477,4.50887173 C5.70128163,4.50083043 6.00110724,4.52150806 6.29978409,4.51461551 C6.36526325,4.51346676 6.3744533,4.55137574 6.37789957,4.60536733 C6.38708963,4.80295355 6.38134585,5.00053978 6.38594087,5.198126 C6.41351104,5.29117533 6.4066185,5.3830759 6.37789957,5.47382771 L6.37789957,5.47267896 C6.39742844,5.53930687 6.37100703,5.60478603 6.37560206,5.67026518 C6.37789957,5.70128163 6.35722195,5.71162044 6.32735426,5.71047168 C6.11023916,5.70817417 5.89312407,5.71851298 5.67715773,5.70702541 L5.67715773,5.70702541 Z" id="Shape" fill="#DADADA"></path>
                <path d="M5.96894204,4.34919449 C5.94366938,4.37216963 6.00455351,4.41811991 6.01144605,4.44224381 C6.03671871,4.5284006 5.89886785,4.48934286 5.85521508,4.50657421 C5.84257875,4.51116924 6.11483419,4.4962354 6.10219786,4.50887173 C6.24119748,4.50887173 6.13666058,4.50083043 6.27566019,4.50083043 C6.3905359,4.50083043 6.3905359,4.50083043 6.3905359,4.61915241 L6.39398217,5.198126 C6.38823839,5.20386979 6.3824946,5.20386979 6.37675082,5.198126 C6.37330455,5.00053978 6.366412,4.80295355 6.366412,4.60536733 C6.366412,4.54563195 6.34573437,4.5284006 6.28944527,4.5284006 C5.99076842,4.52954936 4.76619332,4.53069811 4.57205337,4.5284006 C4.42730997,4.47096274 4.59043348,4.31013674 4.55367325,4.34919449 L5.96894204,4.34919449 L5.96894204,4.34919449 Z" id="Shape" fill="#9F8604"></path>
                <path d="M5.20846482,3.34977578 C5.22454742,3.34518076 5.24063002,3.34518076 5.25786137,3.34632951 C5.30610917,3.34288324 5.34976194,3.36470963 5.39571223,3.37504844 C5.45200133,3.35551957 5.50829043,3.34173448 5.5680258,3.33484194 C5.68519903,3.3199081 5.76561202,3.39457731 5.85866135,3.44167635 C5.87014892,3.44742014 5.86900017,3.46809777 5.89197531,3.46235398 C6.01833859,3.43018878 6.13895809,3.44742014 6.2538338,3.50715551 C6.366412,3.56574212 6.43418867,3.68291535 6.42499862,3.78170846 C6.42614737,3.90922051 6.1814621,4.24006256 5.97009079,4.35034324 L4.55367325,4.35034324 C4.4479876,4.33770691 3.98044345,3.75643581 4.11140176,3.56344461" id="Shape" fill="#9F8604"></path>
                <path d="M4.10106295,3.57493218 C4.2067486,3.34632951 4.61800365,3.4485689 4.65016885,3.45086641 C4.69382162,3.45431268 4.73402812,3.38883353 4.76274705,3.35437081 C4.76274705,3.35437081 4.87762276,3.27740409 4.94769695,3.32335437 C5.02810995,3.35781708 5.12805182,3.38768477 5.20846482,3.34977578" id="Shape" fill="#9F8604"></path>
                <path d="M6.73171677,5.40949731 C6.71448541,5.40260477 6.7041466,5.37618336 6.68117146,5.38537342 C6.60650224,5.41638986 6.52608924,5.40490229 6.44797376,5.41983613 C6.41006477,5.42672867 6.39168466,5.44510879 6.37675082,5.47382771 C6.36870952,5.38192714 6.36756076,5.29002657 6.37675082,5.19697725 L6.39398217,5.19697725 C6.49622156,5.19123346 6.59846094,5.18434092 6.70070033,5.17859713 C6.7121879,5.17285335 6.72252671,5.16710956 6.7363118,5.16481205 C6.76962575,5.16136578 6.80293971,5.16251453 6.83510491,5.16825832 C6.91207164,5.19238222 6.99593091,5.16136578 7.07174888,5.19697725 C7.12574046,5.25326635 7.20500471,5.26360516 7.26703759,5.30610917 C7.31873166,5.34057189 7.33940929,5.37618336 7.31528539,5.43591873 C7.30609533,5.45659636 7.3015003,5.47842274 7.29575652,5.49910037 C7.26588883,5.60248851 7.20270719,5.66337264 7.09012899,5.66107513" id="Shape" fill="#AB2C17"></path>
                <path d="M7.08208769,5.84832254 C7.10276532,5.85636384 7.12459171,5.86325638 7.14412058,5.87129768 C7.32332669,5.94826441 7.3015003,5.99191718 7.26129381,6.15504069 C7.24865748,6.205586 7.18202956,6.21247855 7.17054199,6.26647013 C7.16939323,6.27336268 7.14871561,6.2618751 7.14297182,6.25038753 C7.12688922,6.21937109 7.11195538,6.18490838 7.13378176,6.15159442 C7.16709572,6.09875159 7.14182306,6.07233018 7.09472402,6.05280131 C7.08783148,6.05624758 7.08093894,6.05739634 7.07404639,6.05739634 C7.03039362,6.04246249 6.98674085,6.02752865 6.94193932,6.01374356 C6.88335271,5.98961966 6.82591485,5.96319825 6.76617948,5.94022311 C6.72712174,5.93333057 6.72137795,5.88852904 6.69036151,5.87129768 C6.67542767,5.86210762 6.66049383,5.85406632 6.64670874,5.84372751 C6.55825444,5.7770996 6.53298179,5.66337264 6.5915684,5.57147207 C6.60650224,5.54849693 6.63292366,5.5278193 6.66508886,5.52667054 C6.69151027,5.52667054 6.71333666,5.51748048 6.73171677,5.49910037" id="Shape" fill="#AB1719"></path>
                <path d="M3.97355091,5.81960361 C3.92760062,5.84143 3.72312185,5.98387588 3.67487405,6.00110724 C3.63237004,6.02293362 3.585271,6.03327244 3.54276698,6.05395006 C3.52668438,6.06199136 3.50945303,6.05739634 3.49222167,6.05624758 C3.4485689,6.07922272 3.45316393,6.11483419 3.46694901,6.15159442 C3.47958534,6.18605713 3.48647788,6.22281736 3.44971765,6.24464375 C3.41065991,6.26876765 3.33254443,6.11023916 3.30842053,6.09185905 C3.22685877,6.02867741 3.37389968,5.87244644 3.46694901,5.82419864 C3.58756851,5.73919061 3.84718762,5.52552178 3.87590655,5.50484416" id="Shape" fill="#AA1819"></path>
                <path d="M3.87016276,5.4876128 C3.92300559,5.49795161 4.01260865,5.54964568 4.02064995,5.61052981 C4.03098876,5.68749654 4.06545148,5.77135581 3.96665836,5.82419864" id="Shape" fill="#AA1819"></path>
                <path d="M4.2228312,5.37273709 C3.88624536,5.26705143 3.61054365,5.66222388 3.53013065,5.66222388 C3.42214748,5.64614128 3.22456126,5.4956541 3.24294137,5.38996844 C3.25328019,5.33253059 3.46350274,5.23603499 3.5128993,5.21305985 C3.53127941,5.18548968 4.16079832,5.14758069 4.2228312,5.19467973" id="Shape" fill="#A9231A"></path>
                <path d="M3.98159221,6.75928694 C3.96780712,6.7765183 3.94942701,6.78111333 3.92874938,6.78111333 C3.77481592,6.7845596 3.62203122,6.7845596 3.46809777,6.78111333 C3.44742014,6.77996457 3.42904003,6.7765183 3.41525494,6.75928694 C3.424445,6.66738637 3.48188285,6.59386591 3.50715551,6.50770913 C3.51634557,6.49966783 3.52783314,6.49047777 3.53932071,6.49277529 C3.65304767,6.51460167 3.76677462,6.49162653 3.88050158,6.49277529 C3.89888169,6.50885789 3.91036926,6.55251066 3.91036926,6.55251066" id="Shape" fill="#B9A303"></path>
                <path d="M4.34000443,6.76158445 C4.36297957,6.73860931 4.35264076,6.70989038 4.35264076,6.68461773 C4.35378951,6.40776726 4.35264076,6.13091679 4.35264076,5.85521508 C4.35264076,5.83568621 4.351492,5.81500858 4.35378951,5.79547971 C4.35723579,5.76561202 4.36412833,5.73229807 4.39629353,5.72425677 C4.43650003,5.71391795 4.41926867,5.75871948 4.43764878,5.77250457 C4.44339257,5.7770996 4.45143387,5.7770996 4.45832641,5.77939711 C4.4801528,5.8012235 4.47785528,5.82994242 4.47785528,5.85636384 C4.47900404,6.15618945 4.47900404,6.45601506 4.47670653,6.75584067 C4.47670653,6.7926009 4.49393788,6.85808005 4.41237613,6.83625367 L4.34000443,6.76158445 L4.34000443,6.76158445 Z" id="Shape" fill="#A31518"></path>
                <path d="M5.45659636,6.80408847 C5.5278193,6.83395615 5.56917456,6.92011294 5.65992637,6.91092288 C5.71162044,6.93274927 5.76790954,6.92241045 5.81960361,6.93734429 C5.84372751,6.94423684 5.88278525,6.95227814 5.83683497,6.98559209 C5.7529757,6.99133588 5.67715773,7.02924487 5.59559597,7.04417871 C5.34746443,7.09587278 5.10277916,7.07979018 4.86039141,7.01316227 L4.86154016,7.01316227 C4.84201129,6.99707967 4.81558988,7.00282345 4.79376349,6.99363339 C4.76963959,6.98329458 4.7455157,6.96950949 4.75585451,6.93504678 C4.76734208,6.92470797 4.86728395,6.929303 4.88221779,6.92815424 C4.91438299,6.92585672 5.02121741,6.87990644 5.05223385,6.87071638 C5.06601893,6.86727011 5.26015889,6.72941925 5.30610917,6.61109727" id="Shape" fill="#CECECB"></path>
                <path d="M7.07289764,6.04935504 L7.09472402,6.05165255 C7.09587278,6.21937109 7.07634391,6.38708963 7.10621159,6.55365941 C7.11195538,6.58237834 7.12344295,6.60305597 7.13837679,6.62603111 C7.13148425,6.66738637 7.09587278,6.66279134 7.06830261,6.6639401 C6.95457565,6.66738637 6.8408487,6.66853513 6.72712174,6.66279134 C6.69725406,6.66164258 6.65245253,6.66738637 6.66049383,6.61109727 C6.70989038,6.57089077 6.69840281,6.50885789 6.70070033,6.46061009 C6.70874163,6.2779577 6.7041466,6.09415656 6.7041466,5.91035542 C6.7041466,5.89657034 6.69495654,5.88278525 6.69036151,5.86900017 C6.72712174,5.86785141 6.73171677,5.91150418 6.76158445,5.91954548 C6.75469191,6.07233018 6.75813818,6.22626363 6.75813818,6.37904833 C6.75813818,6.4629076 6.76503073,6.46750263 6.84544372,6.46980014 C6.88220395,6.4709489 6.91896418,6.46865139 6.95687317,6.4709489 C7.05336876,6.46520512 7.05451752,6.46520512 7.05451752,6.36870952 C7.05566628,6.29059403 7.05451752,6.21247855 7.05451752,6.13321431 C7.05566628,6.10449538 7.05222001,6.07462769 7.07289764,6.04935504 Z" id="Shape" fill="#A8920A"></path>
                <path d="M4.25357272,5.7208105 C4.33173462,5.70702541 4.3522361,5.73804185 4.35095476,5.80581852 C4.34711073,6.06199136 4.34839207,6.31931296 4.34967341,6.5754858 C4.34967341,6.63062614 4.34711073,6.68232021 4.31892119,6.73171677 C4.2651048,6.70644411 4.25741674,6.65475004 4.2381966,6.61109727 C4.24460332,6.60305597 4.25101003,6.59386591 4.24844735,6.5835271 C4.1959123,6.31701545 4.24332198,6.04935504 4.22794586,5.78169462 C4.22794586,5.75871948 4.23435258,5.73804185 4.25357272,5.7208105 L4.25357272,5.7208105 Z" id="Shape" fill="#B8A100"></path>
                <path d="M3.53357693,4.52725184 C3.54046947,4.46292144 3.46350274,4.4479876 3.45316393,4.39399601 C3.48762664,4.37216963 3.53242817,4.39744229 3.56574212,4.36987211 C3.66453524,4.38135969 3.65075015,4.30094669 3.66798151,4.24580634 L3.66798151,4.24465759 C3.69555168,4.22857499 3.70818801,4.24465759 3.71737807,4.26763273 C3.74724575,4.34459946 3.74724575,4.34459946 3.80468361,4.28601284 L3.87590655,4.29405414 C3.85867519,4.33655816 3.84948514,4.37446714 3.91266678,4.38595471 C3.92185683,4.38710347 3.92760062,4.39744229 3.92185683,4.40892986 L3.87705531,4.46981398 C3.82880751,4.5444832 3.90577423,4.52725184 3.93449316,4.54678071 L3.93564192,4.57320213 C3.92760062,4.58813597 3.91611305,4.59502851 3.89888169,4.59158224 C3.79089852,4.57090461 3.68176659,4.5846897 3.57263467,4.58009467 C3.54161823,4.57894591 3.50945303,4.58009467 3.48647788,4.55482201 C3.49796545,4.52954936 3.52323811,4.54218568 3.53357693,4.52725184 L3.53357693,4.52725184 Z" id="Shape" fill="#6D5703"></path>
                <path d="M6.88335271,5.76446327 C6.74320434,5.71391795 6.74320434,5.71391795 6.7363118,5.57262083 C6.73516304,5.54849693 6.73286553,5.52437303 6.73171677,5.49910037 C6.73171677,5.46923269 6.73286553,5.439365 6.73286553,5.40834856 C6.75009688,5.38767093 6.76617948,5.3669933 6.79489841,5.39226596 C6.82706361,5.40605104 6.85808005,5.41638986 6.89369152,5.41409234 C6.94423684,5.41179483 6.97295577,5.439365 6.97755079,5.4876128 C6.98444334,5.56343077 6.98444334,5.6403975 6.97755079,5.71621547 C6.97180701,5.78169462 6.93274927,5.78399214 6.88335271,5.76446327 Z" id="Shape" fill="#D9D8D8"></path>
                <path d="M6.73516304,5.17974589 L6.70070033,5.17859713 C6.70644411,5.07406023 6.7202292,4.96837458 6.71563417,4.86383768 C6.71333666,4.80180479 6.71563417,4.73287937 6.67427891,4.67773902 C6.6800227,4.63983004 6.7121879,4.64212755 6.73746055,4.6409788 C6.8408487,4.63638377 6.94423684,4.63638377 7.04762498,4.64212755 C7.07519515,4.64327631 7.11884792,4.63983004 7.10621159,4.69267287 C7.07404639,4.71449925 7.10276532,4.7374744 7.10276532,4.76044954 C7.10276532,4.78801971 7.09702154,4.81788739 7.07864142,4.84201129 C7.00282345,4.83282124 6.92815424,4.82937497 6.85233627,4.83396999 C6.76273321,4.83971378 6.75813818,4.84316005 6.75698943,4.93391186 C6.75584067,4.99020096 6.75813818,5.04763882 6.75584067,5.10392792 C6.75584067,5.13034933 6.75698943,5.15906826 6.73516304,5.17974589 Z" id="Shape" fill="#A38F09"></path>
                <path d="M7.10736035,4.69267287 C7.10621159,4.67199524 7.09472402,4.66280518 7.07404639,4.66280518 C6.94998062,4.66280518 6.8247661,4.66280518 6.70070033,4.66395394 C6.69265903,4.66395394 6.68461773,4.673144 6.67657643,4.67773902 C6.62947738,4.65591264 6.6237336,4.61455738 6.63636993,4.57320213 C6.65130377,4.5203593 6.69955157,4.52954936 6.73975807,4.5284006 C6.78570835,4.50542546 6.82936112,4.53529314 6.87646017,4.53069811 C6.94653435,4.52380557 7.01545978,4.5203593 7.07749266,4.48245031 C7.08093894,4.49853291 7.07749266,4.51576427 7.09702154,4.52610308 C7.17169075,4.56975585 7.17513702,4.6329375 7.10736035,4.69267287 Z" id="Shape" fill="#C1A900"></path>
                <path d="M6.66049383,6.61224603 C6.66279134,6.6317749 6.67427891,6.64211371 6.69495654,6.64211371 C6.83395615,6.64211371 6.97410452,6.64211371 7.11310414,6.64096496 C7.12114544,6.64096496 7.12918674,6.6317749 7.13722804,6.62717987 C7.16250069,6.66853513 7.14412058,6.72367547 7.18202956,6.76158445 C7.16824448,6.77766705 7.14871561,6.78226208 7.12803798,6.78341084 C6.97984831,6.78685711 6.83050988,6.78800587 6.68232021,6.78226208 C6.66164258,6.78111333 6.64211371,6.77766705 6.62947738,6.7604357 C6.64211371,6.71103914 6.60535349,6.65130377 6.66049383,6.61224603 Z" id="Shape" fill="#C1AB01"></path>
                <path d="M3.91381553,4.63753253 C3.89313791,4.69611914 3.90462548,4.81673864 3.87705531,4.87417649 C3.82306372,4.83282124 3.75988208,4.83282124 3.69555168,4.83167248 C3.63696507,4.83052372 3.57608094,4.84890384 3.52208935,4.81444112 C3.47843658,4.78342468 3.51060178,4.67544151 3.48762664,4.63868128" id="Shape" fill="#A48F08"></path>
                <path d="M3.51404805,5.21305985 L3.5209406,4.81329237 C3.62203122,4.81214361 3.72197309,4.81214361 3.82306372,4.80869734 C3.87475779,4.80639982 3.85982395,4.85120135 3.87705531,4.87302774 C3.87705531,4.90634169 3.87590655,4.94080441 3.87590655,4.97411836 C3.86327022,5.01891989 3.86901401,5.06487018 3.87360904,5.11082046 C3.87590655,5.13494436 3.88165033,5.15906826 3.86441898,5.18089465 L3.51404805,5.21305985 Z" id="Shape" fill="#B7B2AB"></path>
                <path d="M3.90807175,4.69267287 C3.90462548,4.66740021 3.88854288,4.66165642 3.86556774,4.66165642 L3.53127941,4.66165642 C3.50830427,4.66165642 3.49222167,4.66740021 3.4887754,4.69267287 C3.4405276,4.6651027 3.4164037,4.6248962 3.43363506,4.56975585 C3.4485689,4.52150806 3.49337043,4.52725184 3.53242817,4.52610308 L3.50141173,4.5525245 C3.64845264,4.56630958 3.79319604,4.54218568 3.93564192,4.57090461 C3.95861706,4.62030117 3.94483198,4.65935891 3.90807175,4.69267287 L3.90807175,4.69267287 Z" id="Shape" fill="#BDA600"></path>
                <path d="M6.88335271,5.76446327 C6.93964181,5.77250457 6.96376571,5.75182694 6.95917068,5.69094281 C6.95457565,5.63005868 6.95687317,5.5680258 6.95802192,5.50599291 C6.95917068,5.4474063 6.93619554,5.41753861 6.87531141,5.42098489 C6.84544372,5.42213364 6.81557604,5.41868737 6.79489841,5.39341472 L7.00512097,5.4152411 C7.01431102,5.41064607 7.02350108,5.41294359 7.03154238,5.41868737 C7.11080662,5.48531529 7.06830261,5.58066213 7.09127775,5.66107513 C7.07519515,5.72195925 7.07864142,5.7851409 7.08208769,5.84717378 C7.00856724,5.83683497 6.94998062,5.79088468 6.88335271,5.76446327 Z" id="Shape" fill="#BEB7B1"></path>
                <path d="M6.85463378,4.81329237 C6.91092288,4.81329237 6.96836074,4.81329237 7.02464984,4.81099485 C7.04992249,4.80984609 7.06830261,4.81788739 7.07864142,4.84086254 L7.07289764,5.19582849 C6.99363339,5.20731606 6.91436915,5.20042352 6.83740242,5.18319216 C6.93504678,5.1579195 6.94768311,5.08669656 6.93849305,5.00168853 C6.93619554,4.97986215 6.93619554,4.95688701 6.93849305,4.93506062 C6.94193932,4.88681282 6.93504678,4.84660632 6.87646017,4.83741627 C6.86267508,4.83741627 6.85348502,4.82822621 6.85463378,4.81329237 Z" id="Shape" fill="#C3C3C0"></path>
                <path d="M6.5835271,6.94538559 C6.55021314,6.88335271 6.55710569,6.86612135 6.61454354,6.84314621 C6.68576648,6.81442728 6.75584067,6.81212977 6.83050988,6.83510491 C6.88450147,6.85233627 6.94308808,6.85003875 6.99707967,6.82821237 C7.07289764,6.79834468 7.17973205,6.82936112 7.21993855,6.88565022 C7.23027736,6.90173282 7.22912861,6.91896418 7.22568233,6.93619554" id="Shape" fill="#1C5DA4"></path>
                <path d="M7.07519515,4.48245031 C6.97525328,4.58928473 6.85578254,4.55367325 6.73860931,4.5284006 C6.7363118,4.49049161 6.71678293,4.46292144 6.688064,4.44109506 C6.79145214,4.37676466 6.90632785,4.38135969 7.02120357,4.39514477 C7.04877374,4.39859104 7.07634391,4.41467364 7.09357526,4.44109506 L7.07519515,4.48245031 Z" id="Shape" fill="#685303"></path>
                <path d="M7.22453358,6.97777974 C7.23027736,7.03544091 7.22797985,7.07606582 7.15905442,7.04199331 C7.09587278,7.01054177 7.02809611,7.01709417 6.96376571,7.04199331 C6.92470797,7.05640861 6.88679898,7.06558197 6.84889,7.04723524 C6.77422078,7.01185225 6.69955157,7.01185225 6.62488236,7.04330379 C6.59616343,7.05509812 6.57089077,7.06296101 6.56399823,7.01578369 C6.56514699,6.99743696 6.56055196,6.97646926 6.57778331,6.96467493 C6.66279134,6.92929194 6.75009688,6.91618713 6.83740242,6.95025964 C6.8890965,6.96991686 6.94193932,6.95943301 6.99018712,6.94239675 C7.07519515,6.91356617 7.14986436,6.93584435 7.22453358,6.97777974 Z" id="Shape" fill="#27639F"></path>
                <path d="M4.00686486,6.77307203 C4.04132758,6.85118751 4.03558379,6.94423684 4.02984,7.04073244 C3.96091458,7.01660854 3.82765875,7.00167469 3.75758457,7.03039362 C3.71622931,7.04762498 3.67717157,7.04188119 3.63466755,7.02924487 C3.56344461,7.00741848 3.47039528,7.00282345 3.39687483,7.02924487 C3.3199081,7.03958368 3.37504844,6.79030338 3.37275093,6.7604357" id="Shape" fill="#2C6498"></path>
                <path d="M6.83625367,4.41007861 C6.7845596,4.41007861 6.74320434,4.45717766 6.688064,4.44109506 C6.67427891,4.43650003 6.6639401,4.4238637 6.66049383,4.41007861 C6.65704756,4.34919449 6.69151027,4.3032442 6.75354315,4.3112855 C6.85578254,4.32392183 6.95687317,4.30669047 7.05796379,4.32162431 C7.09012899,4.32621934 7.12459171,4.33196313 7.13837679,4.36642584 C7.15331063,4.40663234 7.11425289,4.42041743 7.09357526,4.44224381 L7.09242651,4.44109506 L6.83625367,4.41007861 L6.83625367,4.41007861 Z" id="Shape" fill="#7E2F0E"></path>
                <path d="M7.09357526,4.44224381 C7.14641809,4.36527709 7.13607928,4.34000443 7.04073244,4.33770691 C6.99822842,4.33655816 6.94883187,4.30554172 6.91092288,4.35264076 C6.8730139,4.31817804 6.8247661,4.34000443 6.78111333,4.32966561 C6.72252671,4.31473177 6.67313016,4.35034324 6.66049383,4.41007861 C6.63636993,4.34574821 6.6558988,4.31013674 6.71333666,4.28831036 C6.76962575,4.26763273 6.83855118,4.2791203 6.8810552,4.2228312 C6.89024525,4.21019487 6.90862537,4.21134363 6.9212617,4.22512872 C6.96261695,4.27222776 7.02005481,4.28486409 7.07749266,4.29060787 C7.11655041,4.29405414 7.14641809,4.30554172 7.14986436,4.34919449 C7.15331063,4.3916985 7.15445939,4.43535127 7.09357526,4.44224381 L7.09357526,4.44224381 Z" id="Shape" fill="#986C02"></path>
                <path d="M6.57433704,6.97065825 L6.56399823,7.00512097 C6.5594032,6.93045175 6.55365941,6.8569313 6.56629574,6.78341084 C6.57089077,6.78570835 6.57663456,6.78915463 6.58008083,6.78800587 C6.72597298,6.74779937 6.87186514,6.82706361 7.01890605,6.78111333 C7.08898024,6.75928694 7.16135193,6.77881581 7.22338482,6.82131983 C7.23027736,6.84314621 7.22797985,6.8649726 7.21878979,6.88565022 C7.13837679,6.85808005 7.06600509,6.80179095 6.97180701,6.85922881 C6.92700548,6.88565022 6.86382384,6.87990644 6.81327853,6.85348502 C6.73171677,6.80983225 6.65934507,6.85118751 6.58697337,6.8730139 C6.55710569,6.88220395 6.56399823,6.91666667 6.58582461,6.93849305 C6.59501467,6.95457565 6.58008083,6.96146819 6.57433704,6.97065825 L6.57433704,6.97065825 Z" id="Shape" fill="#AFB2B6"></path>
                <path d="M4.03328628,7.02528139 C4.00341859,7.0336342 3.97584842,7.02319318 3.94712949,7.01066396 C3.88509661,6.98560552 3.82076621,6.9730763 3.76103084,7.02736959 C3.73346067,7.05033983 3.70474174,7.05869264 3.67487405,7.04407522 C3.59216354,6.99813474 3.50830427,6.9751645 3.42329624,7.031546 C3.4083624,7.04198701 3.38883353,7.02945779 3.37275093,7.02736959 L3.37275093,6.97098809 C3.46924653,6.89581277 3.56459337,6.8582251 3.66223772,6.96472348 C3.68406411,6.98769372 3.71393179,6.98769372 3.73346067,6.96472348 C3.82306372,6.86657792 3.91151802,6.89372456 4.00112108,6.95845887 C4.01605492,6.96889989 4.02409622,6.95219426 4.03213752,6.93966504 C4.03328628,6.96681169 4.03328628,6.99604654 4.03328628,7.02528139 L4.03328628,7.02528139 Z" id="Shape" fill="#A4B2C1"></path>
                <path d="M5.44625754,3.35437081 C5.43591873,3.35437081 5.40605104,3.37504844 5.39571223,3.37504844 C5.37273709,3.37389968 5.36584454,3.35551957 5.3428694,3.35437081 C5.33597686,3.35322206 5.30381166,3.35666833 5.29806787,3.35437081 C5.28313403,3.34862703 5.19927476,3.35437081 5.18663843,3.34288324 C5.18319216,3.33713946 5.19582849,3.26706527 5.19467973,3.26017273 C5.20042352,3.2314538 5.24867132,3.20962742 5.23143996,3.18665227 C5.25326635,3.16252837 5.23718375,3.14070199 5.22684493,3.1188756 C5.2061673,3.07407407 5.2142086,3.03731385 5.25901013,3.01204119 C5.28772906,2.99595859 5.31300172,2.98791729 5.3348281,3.02352876 C5.35665449,3.05914023 5.4071998,3.08785916 5.34631567,3.13266069 C5.32448929,3.14874329 5.34057189,3.16827216 5.35205946,3.18435476 C5.3509107,3.20503239 5.33138183,3.22800753 5.35435697,3.24638764 C5.36929082,3.25787521 5.38192714,3.24294137 5.39341472,3.23490007 C5.41294359,3.27740409 5.3911172,3.32335437 5.44625754,3.35437081 L5.44625754,3.35437081 Z" id="Shape" fill="#B79401"></path>
                <path d="M7.22338482,6.92403676 C7.19466589,6.91505041 7.16594696,6.92104131 7.13722804,6.88210044 C7.09357526,6.82219142 7.04762498,6.83117777 7.00167469,6.88210044 C6.94423684,6.94800037 6.87990644,6.95099582 6.82131983,6.89408225 C6.7523944,6.83117777 6.68691524,6.81320506 6.62258484,6.91205496 C6.58122959,6.97495943 6.56514699,6.93601857 6.56629574,6.82219142 C6.58122959,6.76228239 6.607651,6.76827329 6.63062614,6.75928694 L7.18317832,6.76228239 C7.22108731,6.7742642 7.24061618,6.81620051 7.22338482,6.92403676 L7.22338482,6.92403676 Z" id="Shape" fill="#1F5E9B"></path>
                <path d="M3.37160217,6.84690381 C3.46809777,6.80833484 3.56229585,6.76295959 3.66108897,6.84463505 C3.70129547,6.87639772 3.75298954,6.85824762 3.79893982,6.82421618 C3.83570005,6.79925979 3.87590655,6.7743034 3.91496429,6.80379732 C3.94138571,6.82421618 3.98618723,6.84463505 3.97584842,6.90589164 C3.96206333,6.98529833 3.93219565,6.9081604 3.91036926,6.89454782 C3.88394785,6.87639772 3.85408016,6.86278515 3.82995626,6.88547277 C3.74379948,6.96714823 3.66223772,6.95353565 3.57493218,6.88774154 C3.53932071,6.86051638 3.49337043,6.85597886 3.45431268,6.91269793 C3.43018878,6.94899813 3.4003211,6.95580442 3.36930466,6.9444606 L3.37160217,6.84690381 L3.37160217,6.84690381 Z" id="Shape" fill="#ABB4BE"></path>
                <path d="M6.57433704,7.10264179 C6.57893207,7.07131566 6.58237834,7.03998952 6.58697337,7.00518271 C6.6558988,6.89380089 6.72597298,6.88335885 6.8006422,6.94601112 C6.85463378,6.99125998 6.90977412,7.03998952 6.96606322,6.95993384 C7.05451752,6.83810999 7.13952555,6.95297248 7.22568233,6.99822134 L7.22683109,7.10264179 C7.00856724,7.04695088 6.79145214,7.03998952 6.57433704,7.10264179 L6.57433704,7.10264179 Z" id="Shape" fill="#A8B7C6"></path>
                <path d="M3.95454959,5.29921663 C3.87199015,5.25671262 3.93168698,5.23488623 3.96852119,5.20731606 C3.97614206,5.20157227 3.98122264,5.19123346 3.98757337,5.18319216 L4.03837918,5.18434092 C4.02059715,5.23948126 4.0472702,5.2946216 4.03964932,5.3509107" id="Shape" fill="#B7610D"></path>
                <path d="M3.88852943,5.4071998 C3.90229464,5.43821624 3.88547049,5.47382771 3.90841252,5.5036954 L3.90841252,5.50484416 C3.90382411,5.55768698 3.88241155,5.61052981 3.90076518,5.6645214 C3.91147146,5.69553784 3.88241155,5.70128163 3.85029271,5.7047279 C3.80134972,5.70587665 3.7875845,5.67945524 3.78452556,5.65188507 C3.77687822,5.58525716 3.77381928,5.51862924 3.78605503,5.45315009 C3.79523184,5.41294359 3.82276228,5.3830759 3.88852943,5.4071998 Z" id="Shape" fill="#CFCBC8"></path>
                <path d="M3.66798151,4.24580634 C3.66913027,4.25729392 3.66798151,4.26993024 3.67027902,4.28141782 C3.68521287,4.36642584 3.65879145,4.39284726 3.56689088,4.37906217 C3.53932071,4.35838454 3.52208935,4.32966561 3.50256048,4.3032442 C3.54621325,4.25384764 3.61858495,4.28141782 3.66798151,4.24580634 L3.66798151,4.24580634 Z M3.80468361,4.28601284 C3.79319604,4.3193268 3.79204728,4.3675746 3.74265072,4.3595333 C3.70474174,4.35378951 3.69210541,4.31817804 3.70359298,4.2791203 C3.71163428,4.25040137 3.68865914,4.24810386 3.66913027,4.24465759 C3.66798151,4.22168244 3.66568399,4.19640979 3.69555168,4.19181476 C3.71508055,4.18836849 3.72541937,4.20789736 3.72886564,4.22512872 C3.73575818,4.26878149 3.79089852,4.25155013 3.80468361,4.28601284 L3.80468361,4.28601284 Z" id="Shape" fill="#945409"></path>
                <path d="M3.45359382,4.44438344 C3.43852978,4.37113396 3.45735983,4.32468307 3.50631794,4.3032442 C3.55527606,4.31217706 3.56657409,4.36577424 3.57661678,4.421158 L3.45359382,4.44438344 L3.45359382,4.44438344 Z" id="Shape" fill="#9E2D11"></path>
                <path d="M3.93906905,4.42214056 C3.92947468,4.41706783 3.92125094,4.40819056 3.91028594,4.40692238 C3.88013221,4.40311783 3.84449599,4.40819056 3.83490162,4.3688769 C3.82393662,4.32829507 3.8568316,4.31307688 3.88424408,4.29405414 C3.94043967,4.32322234 3.99115277,4.35365872 3.93906905,4.42214056 L3.93906905,4.42214056 Z" id="Shape" fill="#9D400E"></path>
                <path d="M5.41916249,3.25434997 C5.41763896,3.28156833 5.42068602,3.31198885 5.38259775,3.31358994 C5.35365067,3.31358994 5.33079771,3.30238237 5.32318005,3.27196185 C5.3155624,3.23353592 5.31403887,3.19511 5.36279185,3.18550352 C5.38107422,3.20791864 5.40088012,3.23033376 5.41916249,3.25434997 L5.41916249,3.25434997 Z M5.23529115,3.1871046 C5.30636088,3.19190784 5.28890516,3.24154132 5.26770892,3.29437697 C5.23529115,3.3247975 5.20786073,3.3167921 5.18666449,3.27516401 C5.18292398,3.2271316 5.21160124,3.20951972 5.23529115,3.1871046 Z" id="Shape" fill="#7C7F43"></path>
                <path d="M3.98765149,4.63623189 C3.94007863,4.63374805 3.8943355,4.62878035 3.84493292,4.6262965 C3.84310319,4.55674871 3.86323017,4.50955557 3.89616522,4.46981398 C3.86871934,4.58655491 3.95471643,4.58407106 3.98765149,4.63623189 Z" id="Shape" fill="#BDA600"></path>
                <path d="M5.76790954,6.24119748 C5.73344683,6.19984222 5.70243038,6.16078448 5.64384377,6.14470188 C5.57836461,6.12632176 5.5841084,6.04820628 5.56228201,5.99651221 C5.55538947,5.98042961 5.58295964,5.96434701 5.59904224,5.97813209 C5.64958755,6.02063611 5.74378564,6.01833859 5.74263688,6.11713171 C5.74263688,6.14699939 5.77250457,6.1814621 5.79892598,6.17227205 C5.82764491,6.16193323 5.82075237,6.11713171 5.80466977,6.09530532 C5.77250457,6.05050379 5.75642197,6.01259481 5.7931822,5.96090074 C5.8092648,5.93792559 5.7851409,5.91380169 5.76790954,5.89771909 C5.74723191,5.87933898 5.73229807,5.89771909 5.71736423,5.91035542 C5.68979405,5.93447932 5.65303383,5.94252062 5.63120744,5.91839672 C5.60938106,5.89312407 5.63005868,5.85406632 5.64499253,5.82879367 C5.6645214,5.79662847 5.6966866,5.82764491 5.71966174,5.82649615 C5.79777722,5.82075237 5.87589271,5.83453745 5.95400819,5.82419864 C5.96779328,5.82190112 5.98157836,5.81041355 5.99536345,5.81041355 C6.06428888,5.81156231 6.12747052,5.85636384 6.205586,5.8173061 C6.24004872,5.80007474 6.27451143,5.85866135 6.24349499,5.90690915 C6.2136273,5.95285944 6.21132979,5.99306594 6.24809002,6.03442119 C6.26072635,6.04820628 6.26302386,6.06773515 6.25728008,6.08381775 C6.22051985,6.19409843 6.25613132,6.30552787 6.24923878,6.4146598 C6.24464375,6.49622156 6.205586,6.58122959 6.16193323,6.65245253 C6.13895809,6.69036151 6.07692521,6.70644411 6.05969385,6.7604357 C6.05854509,6.76503073 6.05280131,6.77077451 6.04935504,6.77077451 C5.95975198,6.77996457 5.87704147,6.83969994 5.78169462,6.81098101 C5.77939711,6.80983225 5.7770996,6.80753474 5.77480208,6.80753474 C5.65073631,6.8247661 5.59100094,6.71793168 5.50484416,6.66508886 C5.49220783,6.65819631 5.47382771,6.64326247 5.47497647,6.63522117 C5.48646404,6.5433206 5.42787743,6.46635387 5.42902619,6.37215579 C5.43017494,6.2940403 5.45085257,6.21247855 5.4313237,6.13666058 C5.42213364,6.10104911 5.41983613,6.08381775 5.45085257,6.08381775 C5.48876156,6.08266899 5.49795161,6.01259481 5.53356308,6.04590876 C5.56572828,6.07692521 5.51518297,6.10449538 5.50484416,6.13551182 C5.4956541,6.16537951 5.49105907,6.19984222 5.51288546,6.22741239 C5.52896806,6.24694126 5.5599845,6.25153629 5.57376958,6.24119748 L5.76790954,6.24119748 L5.76790954,6.24119748 Z" id="Shape" fill="#C29C04"></path>
                <path d="M5.1900847,5.94826441 C5.0855478,5.88738028 5.04189503,5.79088468 5.04649006,5.67486021 C5.05108509,5.56343077 5.09244035,5.47038144 5.20157227,5.41753861 C5.30610917,5.3669933 5.44396003,5.41868737 5.50139789,5.53126557 C5.58066213,5.68634778 5.52667054,5.87589271 5.38652217,5.94711565 C5.31989426,5.97468582 5.25556386,5.98157836 5.1900847,5.94826441 L5.1900847,5.94826441 Z" id="Shape" fill="#0359B7"></path>
                <path d="M4.91782926,5.59904224 C4.72483807,5.59904224 4.40663234,5.6082323 4.41007861,5.55309196 C4.41467364,5.50943919 4.43650003,4.78572219 4.51116924,4.68003654 C4.55137574,4.6168549 4.97411836,4.62834247 5.02696119,4.69267287 C5.05797763,4.73058185 5.20042352,5.2222499 5.03615125,5.39341472" id="Shape" fill="#6D5F03"></path>
                <path d="M5.07865526,6.8408487 C5.05568012,6.87875768 5.01087859,6.87875768 4.97641588,6.89828655 C4.93965565,6.89139401 4.94884571,6.86267508 4.94884571,6.83969994 L4.94884571,5.92643802 C4.94884571,5.90231412 4.94195316,5.87359519 4.97986215,5.87014892 C5.07406023,5.99191718 5.05453136,6.13551182 5.05453136,6.27451143 C5.05453136,6.44222997 5.05453136,6.60994851 5.05568012,6.77766705 C5.05453136,6.80179095 5.05108509,6.82706361 5.07865526,6.8408487 L5.07865526,6.8408487 Z" id="Shape" fill="#C2AB00"></path>
                <path d="M5.22154888,6.68691524 C5.20044339,6.65704756 5.18857156,6.62603111 5.18857156,6.58927089 C5.18857156,6.446825 5.18461428,6.30323036 5.18461428,6.16078448 C5.18461428,6.13321431 5.16746607,6.09300781 5.23078253,6.09300781 C5.28486534,6.09300781 5.30860901,6.11598295 5.30728992,6.16078448 C5.30333264,6.27106516 5.31652357,6.3824946 5.30069445,6.49277529 C5.29673718,6.51689919 5.30333264,6.54102309 5.30597083,6.56514699 C5.32311903,6.62143608 5.29014171,6.65934507 5.24529255,6.69380778 C5.23737799,6.69495654 5.22814434,6.69265903 5.22154888,6.68691524 Z" id="Shape" fill="#BBA501"></path>
                <path d="M5.99076842,4.97756463 C5.98157836,4.96837458 5.97928085,4.95803576 5.97698334,4.94539944 C5.97468582,4.88106904 5.95745446,4.81673864 5.98272712,4.75470575 C6.01029729,4.73287937 6.04476001,4.72024304 6.06773515,4.69152411 C6.08841278,4.72483807 6.11023916,4.73977191 6.15044566,4.71105298 C6.17227205,4.69611914 6.21018103,4.67659027 6.23200742,4.70186292 C6.25613132,4.7294331 6.24923878,4.76963959 6.22281736,4.79606101 C6.12517301,4.89140785 6.14585063,4.99479599 6.18835465,5.10622543 C6.20903228,5.16021702 6.18261086,5.21076233 6.12861928,5.24063002 C6.04246249,5.28772906 6.04246249,5.28887782 6.09645408,5.36814206 C6.12057798,5.40260477 6.10564413,5.42787743 6.08266899,5.45315009 C6.04935504,5.41638986 6.03212368,5.37043957 6.00799978,5.32908432 C5.97698334,5.27624149 6.02982616,5.25326635 6.05854509,5.2222499 C6.00225599,5.20501855 6.00225599,5.20501855 5.99766096,5.16251453" id="Shape" fill="#B57E96"></path>
                <path d="M5.99191718,5.16825832 C6.01029729,5.2222499 6.07003266,5.1820434 6.10334662,5.21650612 C6.08037148,5.23258872 6.05624758,5.24292753 6.03786746,5.2624564 C6.01029729,5.29002657 6.00455351,5.30955544 6.03442119,5.34172064 C6.06199136,5.37158833 6.08266899,5.41064607 6.08152023,5.45429884 L6.07692521,5.55424071 C6.02752865,5.5680258 5.99880972,5.52092676 5.95745446,5.5117367 C5.93447932,5.4554476 5.99421469,5.4634889 6.01604108,5.43706749 C5.99076842,5.40605104 5.90690915,5.46578641 5.91724797,5.37848087 C5.90346288,5.35665449 5.90690915,5.33138183 5.91035542,5.30840669 C5.92758678,5.20731606 5.92643802,5.20501855 5.8253474,5.19697725 L5.81156231,5.15562199 C5.7931822,5.12690306 5.76790954,5.09703538 5.80007474,5.06257266 C5.83913248,5.02006865 5.88738028,5.02466368 5.93677684,5.03730001 C5.97813209,5.07176272 5.99536345,5.11541549 5.99191718,5.16825832 L5.99191718,5.16825832 Z" id="Shape" fill="#E173A5"></path>
                <path d="M5.99076842,4.75355699 L5.99076842,4.94539944 C5.92758678,5.03270498 5.89312407,5.04074628 5.79777722,4.98215966 C5.77480208,4.96837458 5.75067818,4.95573825 5.72655428,4.94425068 C5.70128163,4.93161435 5.68749654,4.91438299 5.71047168,4.88681282 C5.7368931,4.88221779 5.7690583,4.89255661 5.78169462,4.85694514 C5.79662847,4.81673864 5.82879367,4.78687095 5.84487627,4.74436694 C5.85636384,4.7133505 5.92184299,4.71679677 5.96434701,4.71105298 C5.98272712,4.72024304 5.99995848,4.72828434 5.99076842,4.75355699 L5.99076842,4.75355699 Z" id="Shape" fill="#E56FA5"></path>
                <path d="M5.61971987,4.97526712 L5.6162736,4.97641588 C5.57376958,4.98215966 5.54619941,4.96148204 5.52667054,4.92472181 C5.52092676,4.91438299 5.51518297,4.89600288 5.50829043,4.89485412 C5.44625754,4.88796158 5.43591873,4.87302774 5.45200133,4.80295355 C5.46234014,4.75585451 5.4474063,4.73173061 5.50714167,4.74666445 C5.52092676,4.75011072 5.53011681,4.74092067 5.53930687,4.73173061 C5.55309196,4.71794552 5.56457953,4.69611914 5.58755467,4.71449925 C5.60248851,4.72598682 5.60593478,4.74666445 5.59559597,4.76159829 C5.57147207,4.80180479 5.6082323,4.82363118 5.61857111,4.85349887" id="Shape" fill="#AA7489"></path>
                <path d="M5.89886785,5.31529923 C5.87819022,5.31989426 5.87474395,5.3348281 5.87244644,5.35435697 C5.85866135,5.46463766 5.85866135,5.46463766 5.7529757,5.43591873 C5.72770304,5.4313237 5.70357914,5.42098489 5.69209157,5.39800974 C5.67830648,5.37043957 5.66796767,5.33597686 5.72310801,5.34746443 C5.77595084,5.3750346 5.78284338,5.34401816 5.7770996,5.3026629 C5.77250457,5.27394397 5.75642197,5.23948126 5.78973592,5.22339866 C5.82304988,5.2061673 5.86325638,5.20272103 5.89771909,5.21880363 C5.95860322,5.2463738 5.90690915,5.28313403 5.89886785,5.31529923 L5.89886785,5.31529923 Z" id="Shape" fill="#E173A5"></path>
                <path d="M5.95975198,4.72254055 C5.92643802,4.7213918 5.90346288,4.76849084 5.86440514,4.74321818 C5.85751259,4.73862315 5.84947129,4.74666445 5.85176881,4.75470575 C5.87244644,4.81903615 5.81500858,4.83052372 5.78169462,4.85924265 C5.76676078,4.82592869 5.73114931,4.82248242 5.70587665,4.80525107 C5.68979405,4.79376349 5.67371145,4.77997841 5.67945524,4.75700327 C5.68519903,4.73632564 5.7047279,4.74092067 5.72195925,4.73632564 C5.79892598,4.71909428 5.88163649,4.70645795 5.90116537,4.6088136 C5.92069424,4.64557382 5.94252062,4.68233405 5.95975198,4.72254055 L5.95975198,4.72254055 Z" id="Shape" fill="#A96571"></path>
                <path d="M5.60248851,5.13839063 C5.59789348,5.15562199 5.59329846,5.17170459 5.58870343,5.18778719 C5.57951337,5.21995239 5.57032331,5.22110115 5.53815811,5.20272103 C5.47727399,5.16710956 5.48072026,5.11311798 5.4795715,5.05912639 C5.47842274,5.02925871 5.50599291,5.03385373 5.52437303,5.03500249 C5.55653823,5.03730001 5.58755467,5.04304379 5.61971987,5.04763882 C5.62890993,5.06831645 5.61512484,5.07980402 5.60133976,5.08784532 C5.56917456,5.10852295 5.58755467,5.12230803 5.60248851,5.13839063 L5.60248851,5.13839063 Z" id="Shape" fill="#A67C8D"></path>
                <path d="M5.72620033,5.34631567 C5.68350378,5.35780324 5.69061988,5.37962963 5.71671221,5.40030726 C5.73094439,5.41179483 5.75585072,5.40949731 5.75585072,5.43476997 C5.71434018,5.50829043 5.72501432,5.49450534 5.66096949,5.44855506 C5.59455264,5.40030726 5.64910934,5.36124952 5.64436528,5.3187455 C5.64199325,5.3026629 5.66571356,5.30151414 5.68113175,5.30036539 C5.71434018,5.30151414 5.73094439,5.31415047 5.72620033,5.34631567 L5.72620033,5.34631567 Z" id="Shape" fill="#AC6986"></path>
                <path d="M5.60248851,5.14861976 C5.58295964,5.14487257 5.55309196,5.1611104 5.54734817,5.12738568 C5.54160438,5.09740815 5.56572828,5.0886647 5.58755467,5.08241938 C5.60248851,5.07867219 5.61167857,5.06618156 5.61742236,5.04994373 L5.63005868,5.03620403 C5.66796767,5.05743811 5.70357914,4.99748306 5.74263688,5.03245684 C5.75182694,5.04120028 5.77480208,5.03245684 5.77365332,5.05618905 C5.77250457,5.07367594 5.75642197,5.07992126 5.74148812,5.08241938 C5.69438908,5.09116283 5.64958755,5.10365347 5.6162736,5.1436235 L5.60248851,5.14861976 L5.60248851,5.14861976 Z" id="Shape" fill="#DB6D9F"></path>
                <path d="M5.61971987,4.97526712 C5.57951337,4.94425068 5.57836461,4.88451531 5.53356308,4.85694514 C5.52092676,4.85005259 5.51518297,4.83971378 5.52437303,4.82707745 C5.53471184,4.81329237 5.54619941,4.82018491 5.55538947,4.82937497 C5.57376958,4.84890384 5.59444721,4.85924265 5.62086863,4.85464762 C5.63120744,4.87073022 5.66222388,4.85120135 5.6645214,4.87992028 C5.6645214,4.89140785 5.66222388,4.90519294 5.66681891,4.91553175 C5.67486021,4.93391186 5.70357914,4.94425068 5.68634778,4.97067209 C5.66567015,5.00168853 5.64154625,4.97296961 5.61971987,4.97526712 L5.61971987,4.97526712 Z" id="Shape" fill="#DD6DA0"></path>
                <path d="M5.95645247,5.51457297 C6.01264224,5.47724529 6.03535725,5.57056448 6.08078727,5.57735134 C6.08078727,5.61128559 6.07361411,5.65879354 6.04731252,5.63843299 C6.01144671,5.61128559 5.93493299,5.62994943 5.95645247,5.51457297 L5.95645247,5.51457297 Z" id="Shape" fill="#8B5765"></path>
                <path d="M5.07750651,4.03673255 C5.07176272,4.03098876 5.06946521,4.01720368 5.05797763,4.02064995 C5.05108509,4.02294746 5.05453136,4.03328628 5.05338261,4.04017882 C5.01202735,4.12403809 4.94310192,4.13897193 4.85924265,4.08268283 C4.83282124,4.02524498 4.87647401,4.01490616 4.91438299,3.99997232 C4.93735814,3.98848475 4.95688701,3.97355091 4.95918452,3.94483198 C4.94999446,3.91036926 4.92242429,3.91381553 4.89600288,3.91266678 C4.87877152,3.91151802 4.85579638,3.91955932 4.85694514,3.88854288 C4.85005259,3.84489011 4.79720977,3.82421248 4.81099485,3.76447711 C4.82018491,3.72656812 4.82937497,3.69440292 4.85694514,3.66798151 C4.94769695,3.60365111 5.05453136,3.60020484 5.15906826,3.59101478 C5.2142086,3.59446105 5.2061673,3.63007252 5.19467973,3.66453524 C5.18319216,3.69899795 5.18089465,3.72427061 5.21880363,3.74379948 C5.28083652,3.77596468 5.19467973,3.81042739 5.21765487,3.84374135 C5.21535736,3.88509661 5.17859713,3.86901401 5.1579195,3.88050158 C5.12920058,3.89428666 5.08784532,3.90117921 5.11311798,3.94942701 C5.15102696,3.97929469 5.19467973,3.97355091 5.2383325,3.97355091 C5.2704977,3.99307978 5.26130765,4.02409622 5.26015889,4.05166639 L5.2463738,4.06774899 L5.07750651,4.03673255 L5.07750651,4.03673255 Z" id="Shape" fill="#A91718"></path>
                <path d="M5.41064607,3.88854288 C5.34401816,3.85867519 5.33138183,3.80698112 5.37962963,3.74724575 C5.39686099,3.72541937 5.3991585,3.70129547 5.39571223,3.67717157 C5.38881969,3.61858495 5.41638986,3.60020484 5.46923269,3.60709738 C5.5519432,3.59675857 5.63120744,3.60020484 5.69553784,3.66453524 C5.70587665,3.68980789 5.74033937,3.67142778 5.75182694,3.69440292 C5.78628965,3.84144384 5.78628965,3.84144384 5.64958755,3.91726181 C5.60708354,3.94023695 5.600191,3.96436085 5.64729004,3.99078226 C5.65418258,3.99307978 5.66107513,3.99652605 5.66681891,3.99882356 C5.70013287,4.01260865 5.76331451,3.99422853 5.7368931,4.06774899 C5.70817417,4.13093063 5.65188507,4.11255052 5.60248851,4.110253 C5.5599845,4.10795549 5.55079444,4.07234402 5.54505066,4.03673255 C5.54160438,4.02869125 5.5439019,4.01490616 5.53356308,4.0137574 C5.52552178,4.0137574 5.52322427,4.02754249 5.51633173,4.03443503 C5.51288546,4.06774899 5.47842274,4.08153408 5.46808393,4.110253 L5.46923269,4.10910425 C5.40605104,4.11714555 5.36239827,4.09072413 5.33367934,4.03558379 C5.32219177,4.01145989 5.32334053,3.99078226 5.3509107,3.97814593 C5.36010076,3.97469966 5.36929082,3.97355091 5.37962963,3.97240215 C5.40834856,3.96895588 5.44625754,3.97355091 5.45774511,3.94253446 C5.46923269,3.91381553 5.41868737,3.91611305 5.41064607,3.88854288 L5.41064607,3.88854288 Z" id="Shape" fill="#AA1819"></path>
                <path d="M4.2952029,3.87475779 C4.28945912,3.83914632 4.29864917,3.79664231 4.33655816,3.77136965 C4.36872336,3.72197309 4.4158224,3.71048552 4.47096274,3.72197309 C4.50083043,3.72771688 4.5284006,3.72082434 4.55711953,3.71508055 C4.62719371,3.70129547 4.69267287,3.70359298 4.72598682,3.78285722 C4.73173061,3.78745225 4.74206942,3.79434479 4.74092067,3.79779106 C4.72254055,3.85293141 4.73058185,3.91611305 4.68348281,3.96091458 C4.65016885,4.00341859 4.6651027,4.02409622 4.71449925,4.02639373 C4.73173061,4.02754249 4.74896197,4.0217987 4.76619332,4.02869125 C4.80180479,4.05511266 4.80295355,4.08268283 4.77193711,4.11369927 C4.7133505,4.17688092 4.69841665,4.17688092 4.59158224,4.10106295 C4.56975585,4.12518685 4.59043348,4.1745834 4.54678071,4.18377346 C4.51806178,4.190666 4.49393788,4.17802967 4.47326026,4.1585008 L4.4640702,4.12863312 C4.36183081,4.11484803 4.34115319,4.07119526 4.31013674,3.98388972 L4.2952029,3.87475779 L4.2952029,3.87475779 Z" id="Shape" fill="#AA1719"></path>
                <path d="M5.97813209,4.1263356 C5.90231412,4.17343465 5.86555389,4.17113713 5.81156231,4.11255052 C5.79892598,4.03098876 5.79892598,4.02869125 5.87244644,4.04936888 C5.89657034,4.05626142 5.90690915,4.03903006 5.92414051,4.03213752 C5.92988429,4.02869125 5.93562808,4.02524498 5.94137187,4.02294746 C5.97698334,4.00456735 5.95285944,3.97929469 5.93792559,3.97355091 C5.87359519,3.94598073 5.86210762,3.88394785 5.83683497,3.83110502 C5.83453745,3.82421248 5.83453745,3.81731994 5.83453745,3.81042739 C5.83683497,3.79893982 5.84602502,3.79319604 5.85521508,3.78745225 C5.88393401,3.71508055 5.94137187,3.70244422 6.00914854,3.71737807 C6.03786746,3.72312185 6.06658639,3.72886564 6.09530532,3.72427061 C6.16078448,3.71508055 6.21822233,3.72656812 6.25498256,3.78860101 C6.3020816,3.82650999 6.28140397,3.88509661 6.29863533,3.93334441 C6.30323036,3.94598073 6.19524719,4.01835243 6.17801583,4.01605492 C6.16078448,4.0137574 6.14355312,4.00916238 6.12747052,4.01031113 C6.10219786,4.01145989 6.07577645,4.01605492 6.06773515,4.04477385 C6.06084261,4.07119526 6.08956153,4.08153408 6.09990035,4.09991419 C6.11138792,4.11944306 6.15733821,4.10795549 6.14585063,4.13667442 C6.13551182,4.16309583 6.10794165,4.18951725 6.07118142,4.18836849 C6.04590876,4.18836849 6.01489232,4.19985606 6.00340475,4.16194707 C5.99995848,4.1504595 5.99306594,4.14012069 5.98732215,4.12863312 C5.98732215,4.12403809 5.98617339,4.11714555 5.98387588,4.11714555 C5.97813209,4.11484803 5.98042961,4.12174057 5.97813209,4.1263356 L5.97813209,4.1263356 Z" id="Shape" fill="#A91718"></path>
                <path d="M5.7368931,4.37676466 C5.81845485,4.38021093 5.83453745,4.42041743 5.7208105,4.44454133 C5.6323562,4.44454133 5.3026629,4.46751647 5.3026629,4.46751647 C5.12920058,4.46751647 4.84086254,4.44683884 4.82248242,4.44224381 C4.72713558,4.4158224 4.71105298,4.38595471 4.87877152,4.35264076 C4.95573825,4.34919449 5.11886176,4.3273681 5.3026629,4.3273681 L5.7368931,4.37676466 Z" id="Shape" fill="#931B14"></path>
                <path d="M4.76963959,3.59905608 C4.76274705,3.54046947 4.80639982,3.46694901 4.86613519,3.44742014 C4.95688701,3.41870121 5.04993633,3.41755246 5.14298566,3.43823008 C5.18089465,3.44627138 5.19697725,3.46694901 5.20272103,3.50141173 C5.20961357,3.54161823 5.20157227,3.57378342 5.16021702,3.58871727 L4.76963959,3.59905608 L4.76963959,3.59905608 Z" id="Shape" fill="#FAC100"></path>
                <path d="M5.6966866,3.66568399 C5.6243149,3.63466755 5.54619941,3.6254775 5.47038144,3.60824614 C5.45889387,3.57263467 5.40145602,3.5933123 5.39571223,3.54621325 C5.38881969,3.48647788 5.38077839,3.44167635 5.46693517,3.42674251 C5.58066213,3.40606488 5.68175275,3.41065991 5.76790954,3.49451918 C5.80581852,3.53127941 5.82879367,3.57608094 5.80696728,3.62892377 C5.78628965,3.67832032 5.73574434,3.66223772 5.6966866,3.66568399 Z M6.25613132,3.78630349 C6.20788352,3.75184078 6.15274318,3.73575818 6.09645408,3.72197309 C6.06199136,3.70359298 6.02293362,3.69440292 5.98272712,3.69555168 C5.91954548,3.69899795 5.90461164,3.65189891 5.92069424,3.61398992 C5.93562808,3.57952721 5.92758678,3.50370924 6.00799978,3.52323811 C6.07462769,3.53817195 6.14125561,3.54851077 6.20673476,3.57263467 C6.27566019,3.59790732 6.3020816,3.64845264 6.31701545,3.70818801 C6.32850302,3.75298954 6.3101229,3.78745225 6.25613132,3.78630349 L6.25613132,3.78630349 Z M4.47096274,3.72197309 C4.42730997,3.74035321 4.37676466,3.74035321 4.33655816,3.77136965 C4.31473177,3.77022089 4.28486409,3.79893982 4.27222776,3.76447711 C4.25959143,3.73001439 4.2549964,3.69095665 4.28141782,3.65879145 C4.33081437,3.59905608 4.38595471,3.54736201 4.47096274,3.5450645 C4.49278913,3.54391574 4.51461551,3.53587444 4.53529314,3.53242817 C4.64787134,3.51175054 4.67659027,3.5450645 4.65246637,3.66223772 C4.64557382,3.69784919 4.62144993,3.69440292 4.59732603,3.69555168 C4.55367325,3.69555168 4.50772297,3.68865914 4.47096274,3.72197309 Z" id="Shape" fill="#F9BF00"></path>
                <path d="M5.3958734,3.68366993 C5.38598892,3.71255216 5.39191961,3.74896889 5.31482065,3.74896889 C5.25353686,3.74896889 5.24167548,3.72762115 5.24958306,3.69622742 C5.25749065,3.66106644 5.26342134,3.62088247 5.33656651,3.62088247 C5.3938965,3.62213822 5.3938965,3.6547877 5.3958734,3.68366993 Z" id="Shape" fill="#B0AA83"></path>
                <path d="M5.38537342,4.24040272 C5.37273709,4.31736902 5.21765487,4.31736902 5.20731606,4.24170723 C5.2302912,4.13212809 5.37043957,4.1621319 5.38537342,4.24040272 Z" id="Shape" fill="#A71817"></path>
                <path d="M5.58870343,4.34541188 C5.56917456,4.26489249 5.5599845,4.28553849 5.58870343,4.2318589 C5.63465371,4.2174067 5.69783535,4.2050191 5.7208105,4.29792609 L5.70702541,4.33921808 C5.66796767,4.37844548 5.62890993,4.38876848 5.58870343,4.34541188 Z" id="Shape" fill="#218957"></path>
                <path d="M5.14530626,4.20886505 C5.07829088,4.16326354 4.98550036,4.12222219 5.0473607,4.02645904 C5.06282579,3.99909814 5.12468614,3.97629738 5.15561631,3.98541768 C5.28449204,4.01733874 5.27933701,4.10398159 5.24840683,4.1951846 L5.14530626,4.20886505 L5.14530626,4.20886505 Z" id="Shape" fill="#B87875"></path>
                <path d="M5.5396686,4.17259223 C5.51251924,4.10255917 5.47858253,4.03252611 5.60754201,3.97723686 C5.62790403,3.96986495 5.69577743,3.97355091 5.71613946,3.98829471 C5.8247369,4.05095586 5.80437488,4.11730297 5.70935211,4.17627818 L5.5396686,4.17259223 Z" id="Shape" fill="#B6827C"></path>
                <path d="M5.39091614,3.79629963 C5.30004839,3.79083519 5.27165222,3.7307263 5.27165222,3.65968852 C5.26597299,3.63236629 5.27733146,3.59957962 5.30004839,3.58318629 C5.32276533,3.56132851 5.3511615,3.55039962 5.37955767,3.55039962 C5.45338772,3.54493518 5.52721776,3.56132851 5.52153853,3.65422407 C5.51585929,3.71979741 5.46474618,3.7799063 5.39091614,3.79629963 Z" id="Shape" fill="#B0AA83"></path>
                <path d="M6.04000554,4.3032872 C5.95519075,4.22113151 5.91604546,4.13897583 6.0661024,4.07615089 C6.09872347,4.06165283 6.18353826,4.08098358 6.20311091,4.10514701 C6.30097413,4.20663345 6.14439297,4.23562958 6.09219926,4.29845452 C6.07915083,4.29845452 6.05957818,4.29845452 6.04000554,4.3032872 L6.04000554,4.3032872 Z" id="Shape" fill="#A36F6F"></path>
                <path d="M6.85463378,4.81329237 C6.95802192,4.81558988 6.97065825,4.87877152 6.95917068,4.96263079 C6.95457565,4.99364723 6.95802192,5.02696119 6.95802192,5.05912639 C6.95802192,5.17170459 6.94998062,5.17974589 6.83740242,5.18434092 L6.7363118,5.17974589 C6.7363118,5.0935891 6.73516304,5.00743232 6.73516304,4.92012678 C6.73516304,4.80295355 6.73516304,4.80295355 6.85463378,4.81329237 L6.85463378,4.81329237 Z" id="Shape" fill="#DADADA"></path>
                <path d="M7.03039362,5.41868737 L7.00397221,5.4152411 C6.99822842,5.39800974 6.99133588,5.38192714 6.97180701,5.37848087 C6.8971378,5.36814206 6.93389802,5.32104302 6.94193932,5.28543155 C6.95457565,5.23488623 6.98903837,5.24752256 7.02235232,5.26130765 C7.04992249,5.27164646 7.06945136,5.28313403 7.05336876,5.32104302 C7.04073244,5.3509107 7.03843492,5.38652217 7.03039362,5.41868737 L7.03039362,5.41868737 Z" id="Shape" fill="#C19405"></path>
                <path d="M7.22096428,5.38881969 C7.21976033,5.40834856 7.21976033,5.42902619 7.21494454,5.4474063 C7.2113327,5.45889387 7.20290507,5.46808393 7.19206954,5.47497647 C7.18604981,5.47842274 7.16678665,5.46923269 7.16678665,5.46693517 C7.1679906,5.41753861 7.08853009,5.41638986 7.09936561,5.3750346 C7.10779324,5.34057189 7.15474718,5.31989426 7.19327349,5.32448929 C7.22578007,5.32793556 7.23300375,5.358952 7.22096428,5.38881969 L7.22096428,5.38881969 Z" id="Shape" fill="#C08E05"></path>
                <path d="M6.5674445,5.36010076 C6.51575043,5.34057189 6.49047777,5.29921663 6.4709489,5.25326635 C6.46635387,5.24407629 6.47209766,5.23373747 6.48358523,5.2302912 C6.50081659,5.22454742 6.52034546,5.22684493 6.53068427,5.24177877 C6.55251066,5.27394397 6.57203953,5.29921663 6.60420473,5.25096883 C6.60879976,5.24292753 6.62488236,5.24407629 6.62717987,5.25556386 C6.63407241,5.28083652 6.61913857,5.3026629 6.60994851,5.32448929 C6.60190721,5.3428694 6.58812213,5.36010076 6.5674445,5.36010076 Z" id="Shape" fill="#BF8207"></path>
                <path d="M6.96545253,5.23525796 C6.94041736,5.27029462 6.89805016,5.28916051 6.90190172,5.32554473 C6.90382751,5.34306306 6.89805016,5.36327651 6.86531187,5.36058139 C6.8402767,5.35788626 6.83064779,5.34036793 6.82487045,5.32150204 C6.80368684,5.24738604 6.83642514,5.22447746 6.96545253,5.23525796 L6.96545253,5.23525796 Z" id="Shape" fill="#C08D06"></path>
                <path d="M6.78521326,5.23143996 C6.95962281,5.2776887 6.99987117,5.31552858 6.87241804,5.35617142 C6.85900192,5.36037585 6.7785052,5.36037585 6.76508908,5.35757289 C6.62421982,5.31833154 6.65776012,5.28049166 6.78521326,5.23143996 L6.78521326,5.23143996 Z" id="Shape" fill="#C08A06"></path>
                <path d="M6.95687317,6.49162653 C6.90058407,6.49392404 6.84314621,6.4950728 6.78570835,6.49737032 C6.75354315,6.49851907 6.73401428,6.48932902 6.73401428,6.45142003 C6.73516304,6.28714776 6.73401428,6.12402425 6.73401428,5.96090074 C6.73401428,5.94137187 6.74320434,5.92873554 6.7604357,5.92069424 C6.8247661,5.94022311 6.88679898,5.96319825 6.94308808,5.99880972" id="Shape" fill="#DADADA"></path>
                <path d="M7.07634391,6.38479212 C7.07749266,6.50196534 7.07634391,6.50196534 6.95687317,6.49162653 C6.95112938,6.32735426 6.97065825,6.16308199 6.94423684,5.99880972 C6.98903837,6.00914854 7.03613741,6.01718984 7.07289764,6.04935504 L7.07634391,6.38479212 Z" id="Shape" fill="#C2C0BE"></path>
                <path d="M3.75758457,6.49162653 C3.53587444,6.50196534 3.53587444,6.50196534 3.53472568,6.28255273 C3.53472568,6.20443725 3.53242817,6.12517301 3.53242817,6.04705752 C3.5691884,6.00685102 3.62892377,6.01604108 3.67027902,5.98617339 C3.76792338,5.97009079 3.78055971,5.97928085 3.78170846,6.07347893 C3.78400598,6.18490838 3.78285722,6.29633782 3.78170846,6.40776726 C3.78170846,6.4387837 3.78055971,6.46865139 3.75758457,6.49162653 Z" id="Shape" fill="#D9D9D9"></path>
                <path d="M3.63811382,5.80581852 C3.53242817,5.8333887 3.53013065,5.83109118 3.53127941,5.71851298 C3.53242817,5.65533134 3.53127941,5.59100094 3.53127941,5.5278193 C3.53127941,5.46463766 3.55425455,5.4232824 3.62317998,5.42098489 C3.78055971,5.40260477 3.78170846,5.40375353 3.77941095,5.56113326 C3.77826219,5.6243149 3.79779106,5.68979405 3.75758457,5.74838067 C3.71737807,5.76676078 3.67717157,5.78628965 3.63811382,5.80581852 L3.63811382,5.80581852 Z" id="Shape" fill="#D8D6D6"></path>
                <path d="M3.75758457,6.49162653 C3.75758457,6.35147816 3.75413829,6.21247855 3.76103084,6.07233018 C3.76447711,5.99880972 3.73805569,5.97468582 3.67027902,5.98617339 C3.71852682,5.96434701 3.76447711,5.93562808 3.81731994,5.92643802 C3.84029508,5.94711565 3.83914632,5.97468582 3.84029508,6.00110724 L3.84029508,6.4146598 C3.84029508,6.44222997 3.84029508,6.46980014 3.81961745,6.49047777 C3.79779106,6.49162653 3.77711344,6.49162653 3.75758457,6.49162653 L3.75758457,6.49162653 Z" id="Shape" fill="#ADACAC"></path>
                <path d="M4.97986215,4.38574699 C4.94195316,4.38321412 4.91323424,4.41107565 4.86728395,4.3249582 C4.89830039,4.20591348 4.95688701,4.20591348 4.99479599,4.23884075 C5.01202735,4.26416941 4.98905221,4.35535259 4.97986215,4.38574699 L4.97986215,4.38574699 Z" id="Shape" fill="#1A895C"></path>
                <path d="M3.6093949,5.198126 C3.56574212,5.20042352 3.54851077,5.17974589 3.54965952,5.13494436 C3.55195704,5.04878758 3.55195704,4.96263079 3.54965952,4.87647401 C3.54851077,4.83856502 3.56459337,4.82707745 3.6013536,4.82477994 C3.75873332,4.81558988 3.75873332,4.81444112 3.75873332,4.97067209 C3.75873332,4.99824226 3.75528705,5.02581243 3.75988208,5.05223385 C3.76907214,5.11656425 3.74839451,5.16136578 3.68521287,5.18434092 C3.66108897,5.20157227 3.63466755,5.19927476 3.6093949,5.198126 Z" id="Shape" fill="#D9D9D9"></path>
                <path d="M3.50724889,5.26705143 C3.52795363,5.26590267 3.54635784,5.27394397 3.55786047,5.29117533 C3.57166363,5.31185296 3.560161,5.32793556 3.54405731,5.3428694 C3.53715573,5.34861319 3.52910389,5.35550573 3.52335258,5.36354703 C3.51069968,5.38192714 3.53255468,5.43362121 3.48654415,5.41753861 C3.44398441,5.40260477 3.43708283,5.34861319 3.43593257,5.30955544 C3.43593257,5.27279522 3.47964257,5.27624149 3.50724889,5.26705143 Z" id="Shape" fill="#C08D06"></path>
                <path d="M3.87131152,5.21076233 C3.88969163,5.26130765 3.85752644,5.29921663 3.83455129,5.33712562 C3.82191496,5.35780324 3.80008858,5.36929082 3.77941095,5.34516692 C3.75643581,5.31759674 3.72427061,5.28428279 3.73690694,5.24867132 C3.75069202,5.21076233 3.77366716,5.24177877 3.79434479,5.2544151 C3.84603886,5.2865803 3.83455129,5.21076233 3.87131152,5.21076233 L3.87131152,5.21076233 Z" id="Shape" fill="#B8710E"></path>
                <path d="M3.72254198,5.37273709 C3.69319031,5.38192714 3.66650696,5.3830759 3.64249196,5.37388584 C3.58912527,5.35320822 3.59312777,5.31185296 3.59579611,5.27164646 C3.59713027,5.25786137 3.59312777,5.23488623 3.61314028,5.23488623 C3.66250446,5.23258872 3.64782862,5.278539 3.66784113,5.29921663 C3.69052197,5.31989426 3.70519781,5.34631567 3.72254198,5.37273709 L3.72254198,5.37273709 Z" id="Shape" fill="#BD7C09"></path>
                <path d="M4.23431877,4.57320213 C4.24006256,4.5364419 4.26878149,4.5444832 4.29175663,4.5444832 C4.59962354,4.5444832 4.90749045,4.54563195 5.2142086,4.54333444 C5.26360516,4.54333444 5.27739025,4.5605658 5.27739025,4.60766484 C5.27509273,4.81903615 5.27624149,5.02925871 5.27739025,5.24063002 C5.27739025,5.27624149 5.27164646,5.29691912 5.22914245,5.30725793 C5.16825832,5.32334053 5.11082046,5.35320822 5.05108509,5.37733212 C5.01317611,5.37962963 4.99134972,5.37043957 4.99249848,5.32448929 C4.99594475,5.22799369 4.99134972,5.1337956 5.01777113,5.03844876 C5.03155622,4.98905221 5.04649006,4.92931684 4.97986215,4.88796158 C4.94769695,4.86843271 5.01202735,4.83167248 4.99364723,4.79720977 C4.97296961,4.76734208 4.94080441,4.77423462 4.91208548,4.77078835 C4.87532525,4.76619332 4.84660632,4.76159829 4.85005259,4.70990422 C4.85349887,4.64787134 4.80180479,4.64327631 4.75585451,4.6409788 C4.70990422,4.63868128 4.68003654,4.65821015 4.68692908,4.71220174 C4.69037535,4.7294331 4.68233405,4.74781321 4.66854897,4.75815202 C4.62604495,4.78112717 4.57320213,4.74781321 4.53299563,4.78227592 C4.53184687,4.80639982 4.5284006,4.83167248 4.53988817,4.85464762 C4.5525245,4.88106904 4.53873941,4.88911034 4.51691303,4.90404418 C4.47096274,4.93506062 4.45373138,4.99020096 4.48934286,5.03155622 C4.53529314,5.0855478 4.53069811,5.14413442 4.53069811,5.20501855 C4.53069811,5.26130765 4.52954936,5.3187455 4.52954936,5.3750346 C4.42730997,5.36124952 4.46292144,5.43821624 4.4560289,5.48646404 C4.4479876,5.54505066 4.47670653,5.55883574 4.52954936,5.55538947 C4.57894591,5.5519432 4.62834247,5.55424071 4.67773902,5.55424071 C4.74321818,5.58525716 4.81329237,5.56113326 4.88106904,5.56917456 C4.90863921,5.57262083 4.94310192,5.55883574 4.94654819,5.60593478 C4.94999446,5.64729004 4.93276311,5.67371145 4.89485412,5.68290151 C4.85464762,5.69324033 4.81329237,5.70243038 4.77078835,5.70243038 C4.61915241,5.70128163 4.46866523,5.70013287 4.31702929,5.70357914 C4.25269889,5.7047279 4.22857499,5.68519903 4.2308725,5.61857111 C4.23431877,5.4876128 4.23202126,5.35665449 4.23202126,5.22454742 C4.23431877,5.00972983 4.23431877,4.79146598 4.23431877,4.57320213 L4.23431877,4.57320213 Z" id="Shape" fill="#AB1519"></path>
                <path d="M4.5839449,6.55480817 L4.57549964,5.72310801 C4.69936343,5.73344683 4.70358606,5.7368931 4.70358606,5.8333887 L4.70358606,6.8730139 C4.70358606,6.8971378 4.69232572,6.90977412 4.66135977,6.91092288 C4.62476365,6.91207164 4.6135033,6.8971378 4.6135033,6.86956762 C4.6135033,6.78570835 4.61491085,6.70070033 4.61209576,6.61684106 C4.61209576,6.59386591 4.62898628,6.56399823 4.5839449,6.55480817 Z" id="Shape" fill="#9E1717"></path>
                <path d="M4.95051003,6.91092288 L4.9161957,6.92700548 C4.82381096,6.93619554 4.82249118,6.93619554 4.82249118,6.86152632 L4.82249118,5.80581852 C4.82249118,5.77595084 4.81985162,5.74608315 4.84756704,5.72195925 C4.91355613,5.71162044 4.93599242,5.73229807 4.93599242,5.7931822 C4.93335286,6.12747052 4.93467264,6.46061009 4.93467264,6.79489841 C4.93335286,6.83395615 4.93731221,6.87186514 4.95051003,6.91092288 L4.95051003,6.91092288 Z" id="Shape" fill="#9F2115"></path>
                <path d="M4.55735949,6.87990644 C4.50733546,6.86267508 4.48589658,6.83969994 4.48589658,6.79834468 C4.48946973,6.46980014 4.48768316,6.14125561 4.48768316,5.81156231 C4.48768316,5.79892598 4.48768316,5.78628965 4.48946973,5.77480208 C4.49304287,5.7529757 4.50912203,5.73574434 4.54664005,5.73804185 C4.58237151,5.74033937 4.58058494,5.761017 4.58058494,5.77824835 C4.58058494,5.83798372 4.57522522,5.89771909 4.58237151,5.95630571 C4.60202381,6.12287549 4.58058494,6.29059403 4.58058494,6.45716382 C4.58058494,6.49162653 4.58058494,6.52608924 4.62703582,6.55251066 C4.62703582,6.64670874 4.62524925,6.73975807 4.62524925,6.83395615 C4.62703582,6.8649726 4.62167611,6.8890965 4.55735949,6.87990644 L4.55735949,6.87990644 Z" id="Shape" fill="#C4AD00"></path>
                <path d="M4.6892266,5.54160438 C4.69037535,5.52437303 4.69037535,5.50714167 4.69382162,5.48991031 C4.69956541,5.4554476 4.67544151,5.40260477 4.73517688,5.39686099 C4.80639982,5.38996844 4.83167248,5.41983613 4.83396999,5.49795161 C4.83396999,5.51288546 4.83626751,5.5278193 4.83856502,5.54160438 C4.78801971,5.56228201 4.73862315,5.56572828 4.6892266,5.54160438 L4.6892266,5.54160438 Z" id="Shape" fill="#133DC3"></path>
                <path d="M4.71295324,6.92355921 C4.71295324,6.54791563 4.7110841,6.17112329 4.7110841,5.79547971 C4.7110841,5.76216575 4.70547668,5.73000055 4.78771882,5.73229807 C4.86435353,5.73344683 4.85500783,5.76446327 4.85500783,5.79433095 C4.85500783,6.17571832 4.85313869,6.55595693 4.85313869,6.93734429 L4.78584968,6.94423684 L4.71295324,6.92355921 Z" id="Shape" fill="#C3B000"></path>
                <path d="M5.33712562,6.90632785 C5.36354703,6.97065825 5.39456347,6.91896418 5.42443116,6.90977412 C5.45889387,6.91092288 5.49450534,6.90862537 5.5278193,6.91436915 C5.56113326,6.9212617 5.56687704,6.94308808 5.53815811,6.96606322 C5.51633173,6.98329458 5.49105907,6.99593091 5.4634889,6.99593091 C5.4071998,6.99593091 5.34516692,6.96950949 5.30496042,7.03843492 C5.29806787,7.04992249 5.28083652,6.99937718 5.27394397,6.98559209 C5.26705143,6.97640204 5.21191109,7.01660854 5.1337956,7.01545978 C5.10048165,7.00626972 5.06487018,6.94423684 5.12805182,6.91896418 C5.16021702,6.91666667 5.29347285,6.94193932 5.28887782,6.90977412 C5.30496042,6.89828655 5.32104302,6.89598904 5.33712562,6.90632785 L5.33712562,6.90632785 Z" id="Shape" fill="#2A6355"></path>
                <path d="M5.24892377,3.49592528 C5.22125333,3.28554792 5.28678857,3.32921114 5.32319704,3.29348669 C5.3290224,3.29745607 5.33484775,3.29745607 5.34067311,3.29745607 C5.3814506,3.41653759 5.38727595,3.50386404 5.31300267,3.50386404 C5.29115759,3.50386404 5.26931251,3.49989466 5.24892377,3.49592528 L5.24892377,3.49592528 Z" id="Shape" fill="#1F63A5"></path>
                <path d="M4.46292144,3.96114309 C4.46981398,3.96114309 4.47785528,3.95976582 4.48474783,3.95976582 C4.512318,3.96252037 4.55711953,3.95012491 4.55711953,3.99282038 C4.55826828,4.03138403 4.54678071,4.08785224 4.49278913,4.08785224 C4.46062393,4.08785224 4.43305376,4.07545678 4.42156619,4.03689313 C4.41007861,3.99419765 4.44913636,3.98593401 4.46292144,3.96114309 L4.46292144,3.96114309 Z" id="Shape" fill="#A68503"></path>
                <path d="M5.81385982,6.41810607 C5.81271107,6.44108122 5.81500858,6.4629076 5.80007474,6.48243647 C5.77020705,6.52264297 5.77135581,6.56399823 5.80007474,6.60535349 C5.81385982,6.62488236 5.81385982,6.64670874 5.81385982,6.66968388 C5.81385982,6.69151027 5.81615734,6.71678293 5.78973592,6.72597298 C5.76790954,6.73516304 5.7449344,6.73171677 5.73000055,6.71103914 C5.70932293,6.68346897 5.67830648,6.67427891 5.6484388,6.6639401 C5.6243149,6.65475004 5.5921497,6.6558988 5.59100094,6.61798981 C5.58870343,6.57778331 5.59904224,6.5352793 5.63465371,6.52264297 C5.69783535,6.50081659 5.74148812,6.4709489 5.75412445,6.40202347 C5.75642197,6.38708963 5.7770996,6.3583707 5.80237225,6.366412 C5.82304988,6.3744533 5.8092648,6.40202347 5.81385982,6.41810607 L5.81385982,6.41810607 Z" id="Shape" fill="#AD1E17"></path>
                <path d="M5.88508277,6.366412 C5.93792559,6.38938714 5.89886785,6.46061009 5.94022311,6.48473399 C5.98042961,6.50770913 6.03212368,6.50885789 6.06428888,6.54676687 C6.10104911,6.58927089 6.08496651,6.64900626 6.03097492,6.6639401 C5.99766096,6.67313016 5.96549576,6.68691524 5.93792559,6.70644411 C5.88738028,6.74090683 5.84257875,6.72137795 5.86210762,6.67083264 C5.90231412,6.56859326 5.86555389,6.46980014 5.87704147,6.37100703 C5.87589271,6.36985827 5.87933898,6.36870952 5.88508277,6.366412 L5.88508277,6.366412 Z" id="Shape" fill="#AD1D17"></path>
                <path d="M5.89771909,6.2297099 C5.92184299,6.19524719 5.94941317,6.16537951 5.99191718,6.15044566 C6.03556995,6.13551182 6.07118142,6.10909041 6.06888391,6.05509882 C6.06773515,6.03097492 6.08726402,6.01604108 6.10219786,5.99880972 C6.11713171,5.98157836 6.12976803,5.94596689 6.15733821,5.96319825 C6.1814621,5.97813209 6.15044566,6.00110724 6.14699939,6.02178486 C6.14010685,6.06314012 6.12976803,6.10449538 6.16652826,6.13895809 C6.1895034,6.16078448 6.17801583,6.18490838 6.16423075,6.205586 C6.15044566,6.22741239 6.12402425,6.2538338 6.10564413,6.23889996 C6.03442119,6.18261086 5.97009079,6.23430493 5.90231412,6.24004872 L5.89771909,6.23545369 L5.89771909,6.2297099 L5.89771909,6.2297099 Z" id="Shape" fill="#AD1F17"></path>
                <path d="M6.10449538,5.90576039 C6.08152023,5.95515695 6.05854509,6.00110724 6.00455351,6.01833859 C5.95860322,6.03327244 5.92873554,6.05739634 5.92758678,6.11253668 C5.92643802,6.13895809 5.90920667,6.17112329 5.87589271,6.15733821 C5.84947129,6.14699939 5.85176881,6.11368543 5.86670265,6.09300781 C5.89657034,6.04935504 5.88967779,6.00685102 5.87474395,5.95975198 C5.85981011,5.91495045 5.89771909,5.88048774 5.93562808,5.90461164 C5.99421469,5.94137187 6.04476001,5.92873554 6.10449538,5.90576039 Z" id="Shape" fill="#AE2117"></path>
                <path d="M5.57951337,6.3020816 C5.64269501,6.31931296 5.70587665,6.31701545 5.76790954,6.29978409 L5.76676078,6.29863533 C5.7529757,6.32850302 5.73000055,6.35492443 5.70243038,6.366412 C5.64384377,6.3905359 5.60248851,6.42040359 5.59559597,6.49047777 C5.59329846,6.5111554 5.56687704,6.54102309 5.53471184,6.52953551 C5.50484416,6.51804794 5.5117367,6.48932902 5.51862924,6.46520512 C5.52667054,6.43648619 5.54045563,6.40891602 5.51748048,6.3824946 L5.57951337,6.3020816 L5.57951337,6.3020816 Z" id="Shape" fill="#AD2017"></path>
                <path d="M6.16997453,6.3503294 C6.13321431,6.3985772 6.13321431,6.4548663 6.15159442,6.51460167 C6.15504069,6.52608924 6.14125561,6.5352793 6.12747052,6.53642806 C6.09875159,6.53757681 6.07233018,6.52034546 6.07233018,6.49737032 C6.07118142,6.41695732 6.02523114,6.38019709 5.95745446,6.35722195 C5.94022311,6.35147816 5.91609921,6.33539556 5.92528927,6.31471793 C5.93562808,6.28829652 5.95860322,6.3101229 5.97583458,6.31356917 C6.01604108,6.31931296 6.05280131,6.3101229 6.09185905,6.3020816 C6.12632176,6.2940403 6.16308199,6.29748657 6.16997453,6.3503294 L6.16997453,6.3503294 Z" id="Shape" fill="#AE2217"></path>
                <path d="M5.89771909,6.22986966 C5.89886785,6.23333526 5.90001661,6.23680086 5.90116537,6.24142166 C5.89197531,6.33730329 5.86210762,6.3511657 5.76676078,6.30033688 L5.76790954,6.30149208 L5.76790954,6.24142166 L5.76676078,6.24257686 C5.80811604,6.20214485 5.84947129,6.18019604 5.89771909,6.22986966 L5.89771909,6.22986966 Z" id="Shape" fill="#368F53"></path>
                <path d="M4.65996029,5.11196922 C4.6780621,5.1418369 4.69874987,5.16825832 4.70004286,5.20501855 C4.70262883,5.2544151 4.68323404,5.278539 4.62763564,5.27624149 C4.53971259,5.26015889 4.58367412,5.19927476 4.57979516,5.1579195 C4.5759162,5.10852295 4.61987773,5.1096717 4.65996029,5.11196922 L4.65996029,5.11196922 Z" id="Shape" fill="#183B9F"></path>
                <path d="M4.91342526,5.27624149 L4.84964035,5.27164646 C4.8483115,5.24292753 4.84432494,5.21305985 4.84432494,5.18434092 C4.84299609,5.15217572 4.85229805,5.12460555 4.89747903,5.12230803 C4.93734461,5.12001052 4.96923707,5.14068815 4.97056592,5.17055583 C4.97322362,5.20961357 4.98119674,5.26015889 4.91342526,5.27624149 L4.91342526,5.27624149 Z" id="Shape" fill="#0C34AB"></path>
                <path d="M4.95727019,5.02674454 C4.89609121,5.02674454 4.88023,4.99849702 4.87796411,4.97307424 C4.87569822,4.94482672 4.87569822,4.90528018 4.93234542,4.89963068 C4.99579029,4.8925688 5.02524683,4.92505345 5.03431038,4.96177523 C5.04563982,4.99849702 5.00485384,5.01403316 4.95727019,5.02674454 Z" id="Shape" fill="#9F8D00"></path>
                <path d="M4.62290849,4.89140785 C4.71794984,4.90212734 4.77166886,4.92203497 4.78406556,4.95419346 C4.79646226,4.98328922 4.80472672,5.01697906 4.69315645,5.02157313 C4.5981151,5.0261672 4.57745394,4.99860279 4.57745394,4.97103837 C4.57745394,4.94500532 4.56505724,4.91437819 4.62290849,4.89140785 Z" id="Shape" fill="#A18F00"></path>
                <path d="M4.83430423,4.92931684 C4.90519378,4.92931684 4.95717945,4.94920387 4.95717945,4.99892147 C4.95717945,5.05526808 4.9335496,5.12155821 4.8390302,5.12155821 C4.76341468,5.12155821 4.73978483,5.05858259 4.73033289,5.0121795 C4.71615498,4.9624619 4.75868871,4.93263134 4.83430423,4.92931684 Z" id="Shape" fill="#AD9900"></path>
                <path d="M5.41638986,5.52667054 C5.42787743,5.5358606 5.439365,5.54275314 5.44510879,5.5519432 C5.46119139,5.5841084 5.49680286,5.63005868 5.48646404,5.64729004 C5.46923269,5.67715773 5.44625754,5.70243038 5.439365,5.73804185 C5.43821624,5.74378564 5.41753861,5.75067818 5.4071998,5.74838067 C5.34861319,5.73574434 5.35205946,5.67371145 5.34401816,5.63809998 C5.3348281,5.60248851 5.37733212,5.55768698 5.41638986,5.52667054 L5.41638986,5.52667054 Z" id="Shape" fill="#918D1A"></path>
                <path d="M5.30840669,5.71851298 C5.33827437,5.73804185 5.34401816,5.78169462 5.36124952,5.81041355 C5.38652217,5.85406632 5.3348281,5.89542158 5.31300172,5.93562808 C5.30381166,5.95400819 5.26360516,5.94137187 5.25901013,5.92069424 C5.24982007,5.87933898 5.19353097,5.8333887 5.25556386,5.79203344 C5.27394397,5.77939711 5.27394397,5.76446327 5.27624149,5.74838067 C5.278539,5.73459558 5.28198527,5.7208105 5.30840669,5.71851298 L5.30840669,5.71851298 Z" id="Shape" fill="#898314"></path>
                <path d="M5.26015889,5.4876128 C5.26015889,5.57262083 5.25901013,5.69094281 5.19467973,5.68634778 C5.16251453,5.68405027 5.16710956,5.64729004 5.15332448,5.63580247 C5.07176272,5.56687704 5.21995239,5.42443116 5.26015889,5.4876128" id="Shape" fill="#657234"></path>
                <path d="M5.41409234,6.87186514 C5.39226596,6.90058407 5.29117533,6.8971378 5.22569617,6.8890965 C5.18778719,6.88450147 5.17859713,6.80293971 5.21535736,6.79030338 C5.30496042,6.76158445 5.30496042,6.76158445 5.40605104,6.77307203 C5.41868737,6.81442728 5.43706749,6.8328074 5.41409234,6.87186514 L5.41409234,6.87186514 Z" id="Shape" fill="#D6B37C"></path>
                <path d="M5.28758485,6.88335271 C5.26896175,6.84199745 5.26896175,6.8006422 5.31152883,6.76158445 C5.37005857,6.75469191 5.38070034,6.77881581 5.4099652,6.79030338 C5.47647627,6.82821237 5.43923007,6.86727011 5.42060697,6.90632785 L5.31152883,6.90862537 L5.28758485,6.88335271 Z" id="Shape" fill="#822C24"></path>
                <path d="M5.94711565,5.04993633 C5.97238831,5.03155622 5.97353706,4.99824226 5.99076842,4.97411836 C6.04246249,4.95803576 6.04246249,4.92012678 6.03097492,4.87992028 C6.02293362,4.85349887 6.01604108,4.82707745 6.02867741,4.80065604 C6.04016498,4.77653214 6.06199136,4.76044954 6.08956153,4.76849084 C6.12057798,4.77768089 6.10909041,4.80180479 6.10449538,4.82363118 C6.08956153,4.89715164 6.09530532,4.96952333 6.10909041,5.04419255 C6.13206555,5.1740021 6.11598295,5.18893595 5.99306594,5.16825832 C5.97238831,5.13034933 5.95285944,5.0935891 5.94711565,5.04993633 L5.94711565,5.04993633 Z" id="Shape" fill="#D7D4D5"></path>
                <path d="M5.83377334,4.04810787 C5.82595292,4.04810787 5.8168291,4.04633823 5.80900868,4.04633823 C5.76599638,4.04810787 5.72689428,4.04102929 5.7347147,3.96316482 C5.73992832,3.9136147 5.77120999,3.89591823 5.79597465,3.91538435 C5.82986313,3.94015941 5.88851627,3.96139517 5.84811077,4.04633823 C5.84289716,4.04633823 5.83768355,4.04810787 5.83377334,4.04810787 Z" id="Shape" fill="#B08D03"></path>
                <path d="M5.24752256,4.0790976 C5.25068006,4.03892997 5.25068006,3.99876235 5.25068006,3.95859472 C5.30751503,3.95859472 5.36434999,3.84813375 5.41802746,3.95357377 C5.44328745,4.0037833 5.44012995,4.05399283 5.41171247,4.09416045 C5.3548775,4.18955856 5.30120003,4.12930713 5.24752256,4.0790976 L5.24752256,4.0790976 Z" id="Shape" fill="#A91718"></path>
            </g>
        </g>
    </g>
</svg>