<?xml version="1.0" encoding="UTF-8"?>
<svg width="11px" height="11px" viewBox="0 0 11 11" version="1.1" xmlns="http://www.w3.org/2000/svg" xmlns:xlink="http://www.w3.org/1999/xlink">
    <title>印度</title>
    <g id="数据大屏素材" stroke="none" stroke-width="1" fill="none" fill-rule="evenodd">
        <g id="素材" transform="translate(-656.000000, -54.000000)">
            <g id="印度" transform="translate(656.000000, 54.000000)">
                <circle id="Oval-3" fill="#FFFFFF" cx="5.12345679" cy="5.12345679" r="5.12345679"></circle>
                <path d="M9.9552592,6.83161503 C9.30071099,8.68308513 7.61213125,10.0460356 5.58344146,10.2265451 L4.6633342,10.2265328 C2.6347058,10.0459739 0.946187756,8.68304317 0.291654382,6.83161503 Z" id="Combined-Shape" fill="#009842"></path>
                <path d="M5.74626005,0.0374714547 C7.70806611,0.275209144 9.32807845,1.62170115 9.9610134,3.43166379 L0.285900185,3.43166379 C0.918835126,1.62170115 2.53884747,0.275209144 4.50065353,0.0374714547 Z" id="Combined-Shape" fill="#F2AB48"></path>
                <path d="M6.12645826,4.60256154 L6.17046341,4.52624403 L6.24665518,4.57012346 L6.20277576,4.64644096 L6.12645826,4.60256154 Z M6.28739138,5.00401424 L6.22452688,4.92857683 L6.28739138,4.86571234 L6.35025588,4.92857683 L6.28739138,5.00401424 Z M6.27481848,5.35605544 L6.22452688,5.26804514 L6.31253718,5.23032644 L6.35025588,5.30576384 L6.27481848,5.35605544 Z M6.14028845,5.60965083 L6.22553271,5.58727108 L6.24791247,5.6723896 L6.16279394,5.69476937 L6.14028845,5.60965083 Z" id="Shape" fill="#22297B" fill-rule="nonzero"></path>
                <path d="M6.12645826,4.60256154 L6.17046341,4.52624403 L6.24665518,4.57012346 L6.20277576,4.64644096 L6.12645826,4.60256154 Z M6.28739138,5.00401424 L6.22452688,4.92857683 L6.28739138,4.86571234 L6.35025588,4.92857683 L6.28739138,5.00401424 Z M6.27481848,5.35605544 L6.22452688,5.26804514 L6.31253718,5.23032644 L6.35025588,5.30576384 L6.27481848,5.35605544 Z M6.14028845,5.60965083 L6.22553271,5.58727108 L6.24791247,5.6723896 L6.16279394,5.69476937 L6.14028845,5.60965083 Z M4.68158058,3.76545785 L4.74369071,3.70309626 L4.80605229,3.76520639 L4.74394217,3.82756798 L4.68158058,3.76545785 Z M5.03865095,3.75150193 L5.11484271,3.70749678 L5.15884787,3.78368856 L5.0826561,3.82769371 L5.03865095,3.75150193 Z M5.50787158,3.88502613 L5.41986128,3.91017193 L5.39471547,3.82216163 L5.48272577,3.79701583 L5.50787158,3.88502613 Z M5.70903797,3.98560934 L5.80903797,3.98560934 L5.80903797,4.08560934 L5.70903797,4.08560934 L5.70903797,3.98560934 Z M6.04850627,4.33765054 L5.96049597,4.31250473 L5.98564178,4.22449443 L6.07365208,4.24964024 L6.04850627,4.33765054 Z M5.98564178,5.89669015 L6.08564178,5.89669015 L6.08564178,5.99669015 L5.98564178,5.99669015 L5.98564178,5.89669015 Z M5.72638858,6.229872 L5.74864261,6.14487919 L5.83388687,6.16713323 L5.81150711,6.25225176 L5.72638858,6.229872 Z M5.40728837,6.39960615 L5.44500707,6.32416875 L5.53301737,6.36188745 L5.48272577,6.43732486 L5.40728837,6.39960615 Z M5.05524717,6.47504355 L5.11811167,6.41217905 L5.19354907,6.47504355 L5.11811167,6.53790805 L5.05524717,6.47504355 Z M4.70320597,6.46247065 L4.77864337,6.41217905 L4.82893497,6.50018935 L4.75349757,6.53790805 L4.70320597,6.46247065 Z M4.36373766,6.36188745 L4.45174796,6.33674165 L4.47689377,6.42475195 L4.38888347,6.44989775 L4.36373766,6.36188745 Z M4.06198806,6.16072105 L4.16198806,6.16072105 L4.16198806,6.26072105 L4.06198806,6.26072105 L4.06198806,6.16072105 Z M3.80587808,5.99727334 L3.82876076,5.91240627 L3.91375357,5.93503749 L3.89099662,6.02015602 L3.80587808,5.99727334 Z M3.61414136,5.66698326 L3.65814651,5.59079149 L3.73433829,5.63492237 L3.69033314,5.71111414 L3.61414136,5.66698326 Z M3.58421786,5.24289934 L3.64708236,5.30576384 L3.58421786,5.38120124 L3.52135336,5.30576384 L3.58421786,5.24289934 Z M3.59679075,4.89085814 L3.64708236,4.96629554 L3.55907205,5.01658714 L3.52135336,4.94114974 L3.59679075,4.89085814 Z M3.61175251,4.57716428 L3.69674531,4.5542816 L3.71962799,4.6392744 L3.63463519,4.66215708 L3.61175251,4.57716428 Z M3.79783144,4.24994124 L3.8974047,4.2495145 L3.89783144,4.34908776 L3.79825818,4.3495145 L3.79783144,4.24994124 Z M4.14999836,4.01075513 L4.12485257,4.09876543 L4.03684227,4.07361964 L4.06198806,3.98560934 L4.14999836,4.01075513 Z M4.34035207,3.88678634 L4.38435722,3.81059456 L4.46054899,3.85459971 L4.41654384,3.93079149 L4.34035207,3.88678634 Z M4.91665367,5.11717034 L4.96665367,4.57653563 L4.91665367,3.75929713 L4.86665367,4.57653563 L4.91665367,5.11717034 Z M4.90437237,5.11717034 L5.08039297,4.60168144 L5.25641357,3.80958872 L5.00495557,4.58910854 L4.90437237,5.11717034 Z M4.90437237,5.11717034 L5.20612197,4.66454593 L5.58330898,3.94789063 L5.14325747,4.62682723 L4.90437237,5.11717034 Z M4.90437237,5.11717034 L5.31927807,4.76512914 L5.85991278,4.16162994 L5.25641357,4.70226463 L4.90437237,5.11717034 Z M4.90437237,5.11717034 L5.39471547,4.87828524 L6.07365208,4.43823373 L5.35699677,4.81542074 L4.90437237,5.11717034 Z M4.90437237,5.11717034 L5.44500707,5.01658714 L6.21195398,4.76512914 L5.41986128,4.94114974 L4.90437237,5.11717034 Z M4.90437237,5.12945164 L5.44500707,5.17945164 L6.26224558,5.12945164 L5.44500707,5.07945164 L4.90437237,5.12945164 Z M4.90437237,5.11717034 L5.41986128,5.29319094 L6.21195398,5.46921154 L5.44500707,5.21775354 L4.90437237,5.11717034 Z M4.90437237,5.11717034 L5.35699677,5.41891994 L6.08622498,5.79610695 L5.39471547,5.35605544 L4.90437237,5.11717034 Z M4.90437237,5.11717034 L5.25641357,5.53207605 L5.87248567,6.07271075 L5.31927807,5.46921154 L4.90437237,5.11717034 Z M4.90437237,5.11717034 L5.14325747,5.60751344 L5.58330898,6.28645005 L5.21869487,5.56979474 L4.90437237,5.11717034 Z M4.90437237,5.11717034 L5.00495557,5.64523214 L5.25641357,6.42475195 L5.08039297,5.63265925 L4.90437237,5.11717034 Z M4.91665367,5.11717034 L4.86665367,5.65780504 L4.91665367,6.47504355 L4.96665367,5.65780504 L4.91665367,5.11717034 Z M4.90437237,5.11717034 L4.72835177,5.63265925 L4.56490407,6.42475195 L4.80378916,5.65780504 L4.90437237,5.11717034 Z M4.90437237,5.11717034 L4.60262277,5.56979474 L4.23800866,6.29902295 L4.67806016,5.60751344 L4.90437237,5.11717034 Z M4.90437237,5.11717034 L4.50203956,5.46921154 L3.94883197,6.08528364 L4.55233117,5.53207605 L4.90437237,5.11717034 Z M4.90437237,5.11717034 L4.41402926,5.35605544 L3.73509266,5.79610695 L4.46432087,5.43149284 L4.90437237,5.11717034 Z M4.90437237,5.11717034 L4.37631056,5.21775354 L3.59679075,5.46921154 L4.38888347,5.29319094 L4.90437237,5.11717034 Z M4.90437237,5.12945164 L4.36373766,5.07945164 L3.54649916,5.12945164 L4.36373766,5.17945164 L4.90437237,5.12945164 Z M4.90437237,5.11717034 L4.38888347,4.94114974 L3.59679075,4.77770204 L4.37631056,5.01658714 L4.90437237,5.11717034 Z M4.90437237,5.11717034 L4.45174796,4.81542074 L3.73509266,4.45080663 L4.41402926,4.87828524 L4.90437237,5.11717034 Z M4.90437237,5.11717034 L4.55233117,4.71483754 L3.94883197,4.16162994 L4.48946666,4.76512914 L4.90437237,5.11717034 Z M4.90437237,5.11717034 L4.66548726,4.62682723 L4.22543576,3.94789063 L4.60262277,4.67711884 L4.90437237,5.11717034 Z M4.90437237,5.11717034 L4.80378916,4.58910854 L4.55233117,3.80958872 L4.72835177,4.60168144 L4.90437237,5.11717034 Z" id="Shape" fill="#22297B" fill-rule="nonzero"></path>
                <path d="M4.57747696,6.43732486 C3.84824875,6.23615846 3.42077015,5.49435735 3.60936366,4.76512914 C3.81053005,4.03590093 4.55233117,3.60842233 5.28155938,3.79701583 C6.01078758,3.99818223 6.43826618,4.73998334 6.24967268,5.46921154 C6.06107918,6.19843975 5.30670517,6.63849125 4.57747696,6.43732486 Z M5.33185098,3.63356812 C4.51461247,3.40725592 3.67222816,3.89759903 3.44591596,4.71483754 C3.23217666,5.53207605 3.70994686,6.37446035 4.53975826,6.60077255 C5.35699677,6.81451185 6.19938108,6.33674165 6.42569328,5.50693024 C6.63943258,4.70226463 6.14908948,3.85988033 5.33185098,3.63356812 Z" id="Shape" fill="#22297B" fill-rule="nonzero"></path>
                <path d="M5.19354907,5.19260774 C5.15583038,5.34348254 5.00495557,5.43149284 4.85408077,5.38120124 C4.70320596,5.34348254 4.61519566,5.19260774 4.66548726,5.04173294 C4.70320596,4.89085814 4.85408077,4.80284784 5.00495557,4.85313944 C5.15583038,4.90343104 5.24384068,5.04173294 5.19354907,5.19260774 Z M5.50787158,3.88502613 L5.41986128,3.91017193 L5.39471547,3.82216163 L5.48272577,3.79701583 L5.50787158,3.88502613 Z M5.70903797,3.98560934 L5.80903797,3.98560934 L5.80903797,4.08560934 L5.70903797,4.08560934 L5.70903797,3.98560934 Z M6.04850627,4.33765054 L5.96049597,4.31250473 L5.98564178,4.22449443 L6.07365208,4.24964024 L6.04850627,4.33765054 Z M5.98564178,5.89669015 L6.08564178,5.89669015 L6.08564178,5.99669015 L5.98564178,5.99669015 L5.98564178,5.89669015 Z M5.72638858,6.229872 L5.74864261,6.14487919 L5.83388687,6.16713323 L5.81150711,6.25225176 L5.72638858,6.229872 Z M5.40728837,6.39960615 L5.44500707,6.32416875 L5.53301737,6.36188745 L5.48272577,6.43732486 L5.40728837,6.39960615 Z M5.05524717,6.47504355 L5.11811167,6.41217905 L5.19354907,6.47504355 L5.11811167,6.53790805 L5.05524717,6.47504355 Z M4.70320597,6.46247065 L4.77864337,6.41217905 L4.82893497,6.50018935 L4.75349757,6.53790805 L4.70320597,6.46247065 Z M4.36373766,6.36188745 L4.45174796,6.33674165 L4.47689377,6.42475195 L4.38888347,6.44989775 L4.36373766,6.36188745 Z M4.06198806,6.16072105 L4.16198806,6.16072105 L4.16198806,6.26072105 L4.06198806,6.26072105 L4.06198806,6.16072105 Z M3.80587808,5.99727334 L3.82876076,5.91240627 L3.91375357,5.93503749 L3.89099662,6.02015602 L3.80587808,5.99727334 Z M3.61414136,5.66698326 L3.65814651,5.59079149 L3.73433829,5.63492237 L3.69033314,5.71111414 L3.61414136,5.66698326 Z M3.58421786,5.24289934 L3.64708236,5.30576384 L3.58421786,5.38120124 L3.52135336,5.30576384 L3.58421786,5.24289934 Z M3.59679075,4.89085814 L3.64708236,4.96629554 L3.55907205,5.01658714 L3.52135336,4.94114974 L3.59679075,4.89085814 Z M3.61175251,4.57716428 L3.69674531,4.5542816 L3.71962799,4.6392744 L3.63463519,4.66215708 L3.61175251,4.57716428 Z M3.79783144,4.24994124 L3.8974047,4.2495145 L3.89783144,4.34908776 L3.79825818,4.3495145 L3.79783144,4.24994124 Z M4.14999836,4.01075513 L4.12485257,4.09876543 L4.03684227,4.07361964 L4.06198806,3.98560934 L4.14999836,4.01075513 Z M4.34035207,3.88678634 L4.38435722,3.81059456 L4.46054899,3.85459971 L4.41654384,3.93079149 L4.34035207,3.88678634 Z M4.68158058,3.76545785 L4.74369071,3.70309626 L4.80605229,3.76520639 L4.74394217,3.82756798 L4.68158058,3.76545785 Z" id="Shape" fill="#22297B" fill-rule="nonzero"></path>
            </g>
        </g>
    </g>
</svg>