<?xml version="1.0" encoding="UTF-8"?>
<svg width="600px" height="200px" viewBox="0 0 600 200" version="1.1" xmlns="http://www.w3.org/2000/svg" xmlns:xlink="http://www.w3.org/1999/xlink">
    <title>编组 3</title>
    <defs>
        <linearGradient x1="50%" y1="0%" x2="50%" y2="100%" id="linearGradient-1">
            <stop stop-color="#151A82" stop-opacity="0" offset="0%"></stop>
            <stop stop-color="#4F53C3" stop-opacity="0.679970562" offset="49.6003432%"></stop>
            <stop stop-color="#131675" stop-opacity="0" offset="100%"></stop>
        </linearGradient>
        <linearGradient x1="50%" y1="0%" x2="50%" y2="100%" id="linearGradient-2">
            <stop stop-color="#434AD6" stop-opacity="0" offset="0%"></stop>
            <stop stop-color="#4F53C3" stop-opacity="0.679970562" offset="49.6003432%"></stop>
            <stop stop-color="#2024AD" stop-opacity="0" offset="100%"></stop>
        </linearGradient>
        <path d="M599.445002,1.42108547e-14 L599.444296,145.472722 C591.323155,145.537772 584.759817,152.141307 584.759817,160.277793 L584.759817,160.277793 L584.759279,192.529 L14.4442788,192.529 L14.4450021,160.277793 C14.4450021,152.221534 8.01045643,145.668144 0.000290910867,145.476549 L0.000557671584,1.42108547e-14 L599.445002,1.42108547e-14 Z" id="path-3"></path>
    </defs>
    <g id="数据大屏素材" stroke="none" stroke-width="1" fill="none" fill-rule="evenodd">
        <g id="中" transform="translate(-404.000000, -35.000000)">
            <g id="编组-2" transform="translate(-0.000279, 0.000000)">
                <g id="编组-3" transform="translate(404.000000, 35.000000)">
                    <path d="M599.444723,6.83087028 L599.444017,152.303592 C591.322876,152.368642 584.759538,158.972178 584.759538,167.108663 L584.759538,167.108663 L584.759,199.35987 L14.444,199.35987 L14.4447233,167.108663 C14.4447233,159.052405 8.01017759,152.499014 1.20750756e-05,152.307419 L0.000278835792,6.83087028 L599.444723,6.83087028 Z" id="Combined-Shape" fill="url(#linearGradient-1)" opacity="0.798516757"></path>
                    <mask id="mask-4" fill="white">
                        <use xlink:href="#path-3"></use>
                    </mask>
                    <use id="Mask" fill="url(#linearGradient-2)" opacity="0.7" xlink:href="#path-3"></use>
                    <path d="M30.0447233,145.25 C30.684794,145.25 31.2642693,145.50944 31.683727,145.928898 C32.1031846,146.348355 32.3626245,146.92783 32.3626245,147.567901 C32.3626245,148.207972 32.1031846,148.787447 31.683727,149.206905 C31.2642693,149.626363 30.684794,149.885802 30.0447233,149.885802 C29.4466865,149.885802 28.9015348,149.659336 28.4903949,149.287443 C28.1079756,148.941528 27.8413722,148.469856 27.7561082,147.937584 L27.737,147.78 L27.732,147.701 L27.727,147.604 L27.729642,147.452556 C27.7558483,146.917801 27.9632758,146.430672 28.2918065,146.051286 L28.4057196,145.928898 C28.8251772,145.50944 29.4046525,145.25 30.0447233,145.25 Z" id="Combined-Shape" stroke="#5B5FB4" stroke-width="0.5" opacity="0.932650321" mask="url(#mask-4)"></path>
                    <path d="M597.044723,145.25 C597.684794,145.25 598.264269,145.50944 598.683727,145.928898 C599.103185,146.348355 599.362625,146.92783 599.362625,147.567901 C599.362625,148.207972 599.103185,148.787447 598.683727,149.206905 C598.264269,149.626363 597.684794,149.885802 597.044723,149.885802 C596.446687,149.885802 595.901535,149.659336 595.490395,149.287443 C595.107976,148.941528 594.841372,148.469856 594.756108,147.937584 L594.737,147.78 L594.732,147.701 L594.727,147.604 L594.729642,147.452556 C594.755848,146.917801 594.963276,146.430672 595.291807,146.051286 L595.40572,145.928898 C595.825177,145.50944 596.404653,145.25 597.044723,145.25 Z" id="Combined-Shape" stroke="#5B5FB4" stroke-width="0.5" opacity="0.932650321" mask="url(#mask-4)" transform="translate(583.306452, 147.567901) scale(-1, 1) translate(-583.306452, -147.567901) "></path>
                </g>
            </g>
        </g>
    </g>
</svg>