<?xml version="1.0" encoding="UTF-8"?>
<svg width="366px" height="485px" viewBox="0 0 366 485" version="1.1" xmlns="http://www.w3.org/2000/svg" xmlns:xlink="http://www.w3.org/1999/xlink">
    <title>国内订单</title>
    <defs>
        <path d="M351.802469,0 C358.893533,-3.07896406e-15 364.641975,5.74844272 364.641975,12.8395062 L364.641,120.52 L361.945679,120.520164 C348.466986,120.520164 337.514825,131.337538 337.29713,144.764353 L337.293827,145.172016 L337.293827,467.358248 C337.293827,473.791375 335.784182,478.029081 332.764892,480.071365 C330.055824,481.903811 326.292185,483.030042 321.473977,483.450055 L12.8395062,483.44976 C5.74844272,483.44976 4.30171935e-14,477.701317 0,470.610254 L0,12.8395062 C-8.68404816e-16,5.74844272 5.74844272,-1.64609612e-14 12.8395062,0 L351.802469,0 Z" id="path-1"></path>
        <filter x="-57.3%" y="-37.4%" width="214.5%" height="174.8%" filterUnits="objectBoundingBox" id="filter-3">
            <feGaussianBlur stdDeviation="12.8395062" in="SourceGraphic"></feGaussianBlur>
        </filter>
        <filter x="-53.8%" y="-71.4%" width="207.5%" height="242.9%" filterUnits="objectBoundingBox" id="filter-4">
            <feGaussianBlur stdDeviation="12.8395062" in="SourceGraphic"></feGaussianBlur>
        </filter>
        <filter x="-70.4%" y="-28.2%" width="240.8%" height="156.4%" filterUnits="objectBoundingBox" id="filter-5">
            <feGaussianBlur stdDeviation="12.8395062" in="SourceGraphic"></feGaussianBlur>
        </filter>
        <linearGradient x1="50.0004356%" y1="0%" x2="50%" y2="94.0797563%" id="linearGradient-6">
            <stop stop-color="#06052D" offset="0%"></stop>
            <stop stop-color="#141258" offset="32.6363801%"></stop>
            <stop stop-color="#0B0B34" offset="100%"></stop>
        </linearGradient>
        <linearGradient x1="73.0676411%" y1="-7.66796876%" x2="17.1120906%" y2="111.304688%" id="linearGradient-7">
            <stop stop-color="#C9DAFF" offset="0%"></stop>
            <stop stop-color="#2125B4" offset="45.0358189%"></stop>
            <stop stop-color="#C9DAFF" offset="100%"></stop>
        </linearGradient>
        <path d="M351.802469,-1.70530257e-13 C358.893533,-1.71832864e-13 364.641975,5.74844272 364.641975,12.8395062 L364.641,120.52 L361.945679,120.520164 C348.466986,120.520164 337.514825,131.337538 337.29713,144.764353 L337.293827,145.172016 L337.293827,465.305933 C337.468364,472.772908 335.934645,477.628181 332.69267,479.871751 C330.213854,481.587186 327.113498,482.614057 323.391603,482.952364 L12.8395062,482.952229 C5.74844272,482.952229 4.30171935e-14,477.203786 0,470.112723 L0,12.8395062 C-8.68404816e-16,5.74844272 5.74844272,-1.58569508e-13 12.8395062,-1.70530257e-13 L351.802469,-1.70530257e-13 Z" id="path-8"></path>
        <linearGradient x1="50%" y1="0%" x2="50%" y2="50%" id="linearGradient-10">
            <stop stop-color="#6E60B7" offset="0%"></stop>
            <stop stop-color="#383C95" stop-opacity="0" offset="100%"></stop>
        </linearGradient>
        <linearGradient x1="50%" y1="0%" x2="50%" y2="50%" id="linearGradient-11">
            <stop stop-color="#050022" offset="0%"></stop>
            <stop stop-color="#000235" stop-opacity="0" offset="100%"></stop>
        </linearGradient>
        <linearGradient x1="93.5824576%" y1="100%" x2="5.00333595%" y2="100%" id="linearGradient-12">
            <stop stop-color="#1B1694" offset="0%"></stop>
            <stop stop-color="#B8B6FE" offset="26.2139293%"></stop>
            <stop stop-color="#3E3C8F" offset="100%"></stop>
        </linearGradient>
        <linearGradient x1="0%" y1="100%" x2="94.0433855%" y2="100%" id="linearGradient-13">
            <stop stop-color="#1B2780" offset="0%"></stop>
            <stop stop-color="#DBDBFF" offset="63.626716%"></stop>
            <stop stop-color="#7F7FC1" offset="100%"></stop>
        </linearGradient>
        <linearGradient x1="93.4432788%" y1="192.671871%" x2="3.13500178%" y2="192.671875%" id="linearGradient-14">
            <stop stop-color="#154EC7" offset="0%"></stop>
            <stop stop-color="#96ADFF" offset="100%"></stop>
        </linearGradient>
    </defs>
    <g id="数据大屏素材" stroke="none" stroke-width="1" fill="none" fill-rule="evenodd">
        <g id="中" transform="translate(-1025.000000, -67.000000)">
            <g id="国内订单" transform="translate(1025.000000, 67.022222)">
                <g id="框" transform="translate(183.141975, 242.000000) scale(-1, 1) translate(-183.141975, -242.000000) translate(0.641975, 0.000000)">
                    <mask id="mask-2" fill="white">
                        <use xlink:href="#path-1"></use>
                    </mask>
                    <use id="Mask" fill="#2124B1" opacity="0.145663496" xlink:href="#path-1"></use>
                    <ellipse id="Oval-5" fill="#7F7FC1" opacity="0.2" filter="url(#filter-3)" mask="url(#mask-2)" cx="363.614815" cy="125.441975" rx="33.6395062" ry="51.4864198"></ellipse>
                    <ellipse id="Oval-5" fill="#7F7FC1" opacity="0.2" filter="url(#filter-4)" mask="url(#mask-2)" cx="-0.128395062" cy="483.535802" rx="35.8222222" ry="26.962963"></ellipse>
                    <ellipse id="Oval-5" fill="#7F7FC1" opacity="0.2" filter="url(#filter-5)" mask="url(#mask-2)" cx="-8.60246914" cy="186.42963" rx="27.3481481" ry="68.3061728"></ellipse>
                    <path d="M350.061111,0.935052701 C350.061111,0.885725309 360.989738,3.09552469 360.989738,13.4443673 C360.989738,20.3435957 360.989738,54.6956276 360.989738,116.500463 C355.663488,117.226015 351.828688,118.127121 349.48534,119.203781 C346.061953,120.776667 342.828018,123.90841 341.066435,125.668673 C335.710957,131.020139 333.662654,137.963018 333.662654,145.837731 C333.662654,160.770345 333.662654,267.193655 333.662654,465.107664 C333.7643,470.030435 332.630144,473.830273 330.260185,476.507176 C325.774384,481.573954 309.12716,481.483595 309.359877,481.483595 C309.686214,481.483595 315.078472,481.483595 325.536651,481.483595 C333.009125,480.911849 336.659766,475.453205 336.488572,465.107664 C336.317379,454.762122 336.317379,348.338812 336.488572,145.837731 C339.040275,128.081764 348.227803,119.203781 364.051157,119.203781 C364.029758,119.203781 364.029758,84.3366537 364.051157,14.6023995 C364.051157,11.0531661 363.373071,8.04341564 362.016898,5.57314815 C359.982639,1.86774691 357.186034,2.52175926 350.061111,0.935052701 Z" id="Path-7" fill="url(#linearGradient-6)" opacity="0.434386322" mask="url(#mask-2)"></path>
                    <mask id="mask-9" fill="white">
                        <use xlink:href="#path-8"></use>
                    </mask>
                    <path stroke="url(#linearGradient-7)" stroke-width="1.54074074" d="M351.802469,0.77037037 C355.135269,0.77037037 358.152553,2.12125441 360.336637,4.3053384 C362.520721,6.4894224 363.871605,9.50670635 363.871605,12.8394992 L363.871605,12.8394992 L363.870637,119.749677 L361.945679,119.749794 C355.001604,119.749794 348.707808,122.533942 344.119642,127.046839 C339.52225,131.568811 336.637461,137.826524 336.526759,144.758151 L336.526759,144.758151 L336.523457,465.314965 C336.690031,472.388889 335.353227,477.093691 332.254283,479.238278 C329.881669,480.880217 326.912849,481.854198 323.356422,482.181994 L323.356422,482.181994 L12.8395062,482.181859 C9.50670635,482.181859 6.4894224,480.830975 4.3053384,478.646891 C2.12125441,476.462807 0.77037037,473.445523 0.77037037,470.112723 L0.77037037,470.112723 L0.77037037,12.8395062 C0.77037037,9.50670635 2.12125441,6.4894224 4.3053384,4.3053384 C6.4894224,2.12125441 9.50670635,0.77037037 12.8395062,0.77037037 L12.8395062,0.77037037 Z"></path>
                    <polygon id="Path-6" fill="url(#linearGradient-10)" opacity="0.2" mask="url(#mask-9)" points="1.54074074 176.414815 87.3400409 176.414815 106.909729 195.984503 335.847823 195.984503 335.847823 289.492289 1.63395635 289.492289"></polygon>
                    <polygon id="Path-6" fill="url(#linearGradient-11)" opacity="0.419214221" mask="url(#mask-9)" points="1.54074074 320.217284 87.3400409 320.217284 106.909729 339.786972 335.847823 339.786972 335.847823 433.294758 1.63395635 433.294758"></polygon>
                    <polyline id="Path-2" stroke="url(#linearGradient-12)" stroke-width="0.5" opacity="0.4" mask="url(#mask-9)" transform="translate(168.386111, 185.738973) scale(-1, 1) translate(-168.386111, -185.738973) " points="-2.91936571e-13 195.257857 230.775293 195.257857 248.869753 176.220089 336.772222 176.220089"></polyline>
                    <polyline id="Path-2" stroke="url(#linearGradient-12)" stroke-width="0.5" opacity="0.4" mask="url(#mask-9)" transform="translate(168.386111, 329.638805) scale(-1, 1) translate(-168.386111, -329.638805) " points="-2.91936571e-13 339.157689 230.775293 339.157689 248.869753 320.119921 336.772222 320.119921"></polyline>
                </g>
                <rect id="Rectangle-24" fill="url(#linearGradient-13)" opacity="0.617583786" x="2.05432099" y="27.4765432" width="361.046914" height="1"></rect>
                <path d="M2,27.6790123 L2,17.1506173 C2.00100029,17.0650562 2,16.9795585 2,16.8938272 L2,12.7851852 C2,6.82869188 6.82869188,2 12.7851852,2 L352.261728,2 C358.218222,2 363.046914,6.82869188 363.046914,12.7851852 L363.046914,16.8938272 L363.043,17.15 L363.046914,17.1506173 L363.046914,27.6790123 L2,27.6790123 Z" id="Combined-Shape" fill="url(#linearGradient-14)" opacity="0.2"></path>
            </g>
        </g>
    </g>
</svg>