<?xml version="1.0" encoding="UTF-8"?>
<svg width="336px" height="70px" viewBox="0 0 336 70" version="1.1" xmlns="http://www.w3.org/2000/svg" xmlns:xlink="http://www.w3.org/1999/xlink">
    <title>形状结合</title>
    <g id="数据大屏1408" stroke="none" stroke-width="1" fill="none" fill-rule="evenodd" opacity="0.340068272">
        <g id="中" transform="translate(-532.000000, -96.000000)" fill="#80BFFF">
            <g id="全球订单" transform="translate(420.000000, 90.000000)">
                <path d="M424.881481,71.617284 L424.881481,71.8740741 L404.32036,71.8746128 C404.131638,73.9658873 402.423383,75.6188779 400.308252,75.7209287 L400.100645,75.7259259 L305.856033,75.7259259 C305.727104,75.7259259 305.599521,75.7201674 305.473526,75.7088935 L305.474074,75.7259259 L301.108642,75.7259259 L301.107901,71.8738025 L298.539901,71.8738025 L298.540741,75.7259259 L294.175309,75.7259259 L294.174901,71.8738025 L291.606901,71.8738025 L291.607407,75.7259259 L287.241975,75.7259259 L287.241901,71.8738025 L284.673901,71.8738025 L284.674074,75.7259259 L280.308642,75.7259259 L280.307901,71.8738025 L277.737901,71.8738025 L277.738243,75.7259259 L273.372811,75.7259259 L273.371901,71.8738025 L270.804901,71.8738025 L270.804909,75.7259259 L266.439477,75.7259259 L266.438901,71.8738025 L263.870901,71.8738025 L263.871576,75.7259259 L259.506144,75.7259259 L259.505901,71.8738025 L256.937901,71.8738025 L256.938243,75.7259259 L252.572811,75.7259259 L252.573177,75.7089098 C252.447241,75.7201729 252.319718,75.7259259 252.190852,75.7259259 L157.94624,75.7259259 C155.736215,75.7259259 153.921384,74.0338963 153.726524,71.8746128 L137.276543,71.8740741 L137.276543,71.617284 L424.881481,71.617284 Z M446.654475,6.13580247 C447.363582,6.13580247 447.938426,6.71064674 447.938426,7.41975309 C447.938426,8.12885943 447.363582,8.7037037 446.654475,8.7037037 C446.252469,8.7037037 445.893615,8.51895027 445.658189,8.22972026 L445.658189,8.22972026 L429.416435,18.2049383 L130.889892,18.2049383 L114.648139,8.22972026 C114.412712,8.51895027 114.053858,8.7037037 113.651852,8.7037037 C112.942746,8.7037037 112.367901,8.12885943 112.367901,7.41975309 C112.367901,6.71064674 112.942746,6.13580247 113.651852,6.13580247 C114.360958,6.13580247 114.935802,6.71064674 114.935802,7.41975309 C114.935802,7.64845661 114.876006,7.86319399 114.771195,8.04918398 L114.771195,8.04918398 L130.889892,17.9481481 L429.416435,17.9481481 L445.535132,8.04918398 C445.430321,7.86319399 445.370525,7.64845661 445.370525,7.41975309 C445.370525,6.71064674 445.945369,6.13580247 446.654475,6.13580247 Z" id="形状结合"></path>
            </g>
        </g>
    </g>
</svg>